<mxfile host="app.diagrams.net" agent="Mozilla/5.0 (X11; Linux x86_64) AppleWebKit/537.36 (KHTML, like Gecko) Chrome/128.0.0.0 Safari/537.36" version="26.0.6">
  <diagram name="Page-1" id="vZe6ZPlMuPoYMC1QnJFo">
    <mxGraphModel dx="3578" dy="2686" grid="1" gridSize="1" guides="1" tooltips="1" connect="1" arrows="1" fold="1" page="1" pageScale="1" pageWidth="850" pageHeight="1100" math="0" shadow="0">
      <root>
        <mxCell id="0" />
        <mxCell id="1" parent="0" />
        <mxCell id="0HTE8HzG7Rag_H_1Zpx2-1" value="" style="shape=image;verticalLabelPosition=bottom;labelBackgroundColor=default;verticalAlign=top;aspect=fixed;imageAspect=0;image=data:image/png,iVBORw0KGgoAAAANSUhEUgAAB9AAAAfQCAAAAAC/U5ulAAAgAElEQVR4AezBB6CX8+L48fenoczI6pzSkshWpGSLyMwWMrPJCNkyMrJXdvaWmaxsDdmEoqFxKiMZSet8/u74398dcj+l81zP832/XiEiSZLyLkQkSVLehYgkScq7EJEkSXkXIpIkKe9CRJIk5V2ISJKkvAsRSZKUdyEiSZLyLkQkSVLehYgkScq7EJEkSXkXIpIkKe9CRJIk5V2ISJKkvAsRSZKUdyEiSZLyLkQkSVLehYgkScq7EJEkSXkXIpIkKe9CRJIk5V2ISJKkvAsRSZKUdyEiSZLyLkQkSVLehYgkScq7EJEkSXkXIpIkKe9CRJIk5V2ISJKkvAsRSZKUdyEiSZLyLkQkSVLehYgkScq7EJEkSXkXIpIkKe9CRJIk5V2ISJKkvAsRSZKUdyEiSZLyLkQkSVLehYgkScq7EJEkSXkXIpIkKe9CRJIk5V2ISJKkvAsRSZKUdyEiSZLyLkQkSVLehYgkScq7EJEkSXkXIpIkKe9CRJIk5V2ISJKkvAsRSZKUdyEiSZLyLkQkSVLehYgkScq7EJEkSXkXIpIkKe9CRJIk5V2ISJKkvAsRSZKUdyEiSZLyLkQkSVLehYgkScq7EJEkSXkXIpIkKe9CRJIk5V2ISJKkvAsRSZKUdyEiSZLyLkQkSVLehYgkScq7EJEkSXkXIpIkKe9CRJIk5V2ISJKkvAsRSZKUdyEiSZLyLkQkSVLehYgkScq7EJEkSXkXIpIkKe9CRJIk5V2ISJKkvAsRSZKUdyEiSZLyLkQkSVLehYgkScq7EJEkSXkXIpIkKe9CRJIk5V2ISJKkvAsRSZKUdyEiSZLyLkQkSVLehYgkScq7EJEkSXkXIpIkKe9CRJIk5V2ISJKkvAsRSZKUdyEiSZLyLkQkSVLehYgkScq7EJEkSXkXIpIkKe9CRJIk5V2ISJKkvAsRSZKUdyEiSZLyLkQkSVLehYgkScq7EJEkSXkXIpIkKe9CRJIk5V2ISJKkvAsRSZKUdyEiSZLyLkQkSVLehYgkScq7EJEkSXkXIpIkKe9CRJIk5V2ISJKkvAsRSZKUdyEiSZLyLkQkSVLehYgkScq7EJEkSXkXIpIkKe9CRJIk5V2ISJKkvAsRSZKUdyEiSZLyLkQkSVLehYgkScq7EJEkSXkXIpIkKe9CRJIk5V2ISJKkvAsRSZKUdyEiSZLyLkQkSVLehYgkScq7EJEkSXkXIpIkKe9CRJIk5V2ISJKkvAsRSZKUdyEiSZLyLkQkSVLehYgkScq7EJEkSXkXIpIkKe9CRJIk5V2ISJKkvAsRSZKUdyEiSZLyLkQkSVLehYgkScq7EJEkSXkXIpIkKe9CRJIk5V2ISJKkvAsRSZKUdyEiSZLyLkQkSVLehYgkScq7EJEkSXkXIpIkKe9CRJIk5V2ISJKkvAsRSZKUdyEiSZLyLkQkSVLehYgkScq7EJEkSXkXIpIkKe9CRJIk5V2ISJKkvAsRSZKUdyEiSZLyLkQkSVLehYgkScq7EJEkSXkXIpIkKe9CRJIk5V2ISJKkvAsRSZKUdyEiSZLyLkQkSVLehYgkScq7EJEkSXkXIpIkKe9CRJIk5V2ISJKkvAsRSZKUdyEiSZLyLkQkSVLehYgkScq7EJEkSXkXIpIkKe9CRJIk5V2ISJKkvAsRSZKUdyEiSZLyLkQkSVLehYgkScq7EJEkSXkXIpIkKe9CRJIk5V2ISJKkvAsRSZKUdyEiSZLyLkQkSVLehYgkScq7EJEkSXkXIpIkKe9CRJIk5V2ISJKkvAsRSZKUdyEiSZLyLkQkSVLehYgkScq7EJEkSXkXIpIkKe9CRJIk5V2ISJKkvAsRSZKUdyEi/WnM+m7q1O+mTv1u6tRZNapXr1G9eo3qNRZbZumll15m6aWXqoYkaV5CRPrfi6Peem/kF+N+Yt5CnRWaNG7SuEmT5QKSpH8TItL/1lfDhr711nckW7xx4yYt2qxVE0nSP4SI9L8zfsDLQ8byd7UaL1d3mbp1l6lbt+4ytebOnTN37py5c+dM/27atGnfTZs27buJP/N/Ft2gTZs2ZUiS/ipEpP+RmY/f9mLkr5bfsPX6qzeozu+K34wZO2bsmLFjZ/J3Ddtu07EekiRCRPqf+Oi2e77lV4u1at26daNAusopo94dMngsf7N+5/2WR5JKXYhI2fvhgVuH8aumB3RoVYMFMnnokCFv/cyvau508DY1kKSSFiJS1gbf9PDPQK3dDt2sGn/EnGH9n/6AX5UfcNAqSFIJCxEpW8+fM4RfrXto52VYCD7re+cUfrXJwbsvgSSVqhCRsjTuhH5AnX0PacnCMvvZ25+eAyx1wgl1kKTSFCJSdmZefsEMWOvEvRZloZpyz22fAsud17UGklSKQkTKzLPHfQ4r9t4vsNDFt26+aw6scXkHJKkEhYiUkbEnPA7Vj+lZh6ox+owHgO0ub4EklZwQkTLxy2W9ZsDG169N1Rl8wlCofsS5yyFJJSZEpCwMOmgkrHjZvoGqVPlAj/FQ59KuAUkqKSEiVb146WmR6seeW4eq9vMVF0+HrW5pgiSVkhCRqtysI2+H1reuRRYqTrsLluy7G5JUQkJEqmrf7fYynHtGDTLyfNdx0O3SRZCkkhEiUhUbtf0Iat25F9n54Yj7YcOHGiJJpSJEpKr1xi7fsvwTbclSvPH4WdS9a3skqUSEiFSl7j14Fqs/3YSMvbPHGOhxfg0kqSSEiFSFYs+esPXDdcjctIMeh80fWRZJKgUhIlWdOV3vgMOvrcn/QLzy1Dk0698cSSoBISJVmbmdHyJcdkLgf2PQbpNZ9vmWSFLxhYhUZU69lJr378b/zLgdPqLOgLZIUuGFiFRV7jyQ6k9sz//Q99u/yeJPbYEkFV2ISFXkzS1ncd3R/E9N3+VFaj/aEUkquBCRqsbY1l9z5A38j/2yx9PUvH83JKnYQkSqEj+2+4itBtTkf232vg9T/Y79kKRCCxGpKlR2epJmQ+vyvzfn0DsJd3RBkoosRKSq0OMS6gxZjT+DymP6UO2RTkhSgYWIVAXu7kL1AVvz5xCPvZ5aL7dFkoorRKSF78MNf+HaY/izqDzoLpYf2gRJKqwQkRa62S0/putNgT+NWdu9xOqD6iBJRRUi0kJ3xUmsM6Q2fyLftR3B1v1rIkkFFSLSwlax6k9h6Ab8qYza8FsO7xOQpGIKEWlh63w/h93En8wbW83iihOQpGIKEWkhe3lLlh2xLH829+5HeGJHJKmQQkRauGav8ym3HMqfz7k9qfNuUySpiEJEWrguO5nWg6vx5xP3epiWg2ohSQUUItJCNWG16WFYK/6Mflj/c864AEkqoBCRFqq9H+TIG/hzer/17OqDN0CSiidEpIVpUDuWG1GXP6nzz2b1d2ojSYUTItJCFDd/jZsO489qdpt36XERklQ4ISItRC9tRfPhNVhwU7745ttvvvn2u1C9WvXq1aovXmfpOnWWrrN0/cVZKD5uObvaoA2RpKIJEWkh6vA89+3Dgvnpnbfeemscv23Zhr9qtN7KgT+m1xms9l5tJKlgQkRaeN5rSZORNVgA8ZVb+s3kv1q2TZs2G9Rhwc1p+zYnX4okFUyISAvPPg9w/VHMv6/73vo5f7HE+muvsNxyyy27DJVz586tnDN92vffT/v++28njJswl7+rttVBuyzKgvpkvVnV3lsbSSqWEJEWmjHNKpf/clHm1+xrz/kJWHbXNhuuVp15mDtp3LjP3xryDX+x1N4HtgksmF5nsMXAgCQVSohIC80x13PeWcyvN4/8CNiya6da/Fdx9JDBz4zhV5tc2YoFMnONUTy6K5JUKCEiLSxfN5qx+Li6zJ/vTuoLoevJzUhV+fodD08HuvSqz4J4vBNrfRCQpCIJEWlhOft8jr+S+TO64who2ac18+WnRy4aCYudcsqizL/YdihP7ogkFUmISAvJzw2/rTF6JebL0B2/ZqleR1Rnfs26oec0WOfhVZh/T+3EhoMDklQgISItJH0PZt97mC/99v2F1fo3ZUF82/OGuSx5++7Mt7juh7y4FZJUICEiLSQbDWZwG+bH/ftGNu+3DAvooz0/g+N6L8L8enBvtngJSSqQEJEWjo/XYq0PAvNh2CYz2f/WRVhgPx12P7R+rJz5NLfF5wxqiyQVR4hIC0e3a7jmWOZDxQYVHHpz4A+IN3WbRdOBjZlPtx/CDk8hScURItJCMaN8Wu2KZUj3y2ZvscmLi/DHvLvrlzQY2Jz5M6vZeN5fB0kqjBCRFop79qfLncyHI2+k0bDl+aMmtv+MFV9ck/lz3bHs+SCSVBghIi0Um77O6xuT7q0NWWzQOvxxX239IXWfb8V8mdFkSvhyJSSpKEJEWhg+a0GL4YFklW2GcVU3Foap273FUm+sxXw5tye9uyNJRREi0sJw0hVccQLpbjuUNd+rwULxw46v0XBoPebHyFVpOwhJKooQkRaCmfW/XaRiWZJ91/wbXt6chWT6FsNo/fJizI81PgmTV0CSCiJEpIXggX3Y5z7SdbuGvR5goZm04Xh2f7Aa86HHJdxxAJJUECEiLQRbvcTLm5NsSqOZi41owMLzYbufOK0X8+GNTdjtESSpIEJE+uO+WIVVRgSSndGLky5jYXpmx0oe3p10c1f8dolvaiFJxRAi0h/X4xIuPZlkPzacVnN0Axaq645lueErkK7L3Ty/NZJUDCEi/WGzVvqq5oQVSHZ5dw7sy8IVd+/Hbg8Hkj28J8degyQVQ4hIf9iju7PHQySb1XQin7RgIftqjW+4f2+Sfb/cnMajA5JUCCEi/WEdnuf5rUnW92B2eoKF7uE9qTu8HsnaD+SjNZGkQggR6Y8as3Js8kU1UsX1PuDNjVj49nqIzveS7Orj6XUaklQIISL9UWdeyIWnk+ytDWk9lCrwTYtvwqerkuqLVejYH0kqhBCR/qA5DSdVH19Gsq63ctvBVIVLetDlTlLFutPqT0CSCiFEpD/oiV3o1I9kP5ZNX3LS4lSFHxtPrT6yKak2fpMfl0CSiiBEpD9o+2d4ZjuS3Xw4R/Shapx/NofeQqqD7uDd9ZCkIggR6Y8Z16Sy4ejqJFv/Hd5pSdWY1uiHGhXLk+ii03lwTySpCEJE+mPO7UnPs0n2bitavU1V6X45fQ8k0SN7cMEZSFIRhIj0h8xtPKHalw1IduSN3Hg4VWVQOzr1I9EH69LlTiSpCEJE+kP678AOT5FsetmPi1csRVWZW/b1Yt8sSprpS9B2EJJUBCEi/SG7PMGTO5Ls9kM45FaqziG38/T2JGowcdlvkKQiCBHpj6hoOLf8yxokazuEoa2pOk/swhF9SLTly0xdBkkqgBCR/ogLz+Ss80j20dqs/X6g6vy4FO3eINHhNzNsfSSpAEJE+gMqVx4bxjQi2XHXct3RVKXySct/RaJze9K/I5JUACEi/QHPd2DbASSbUT5t0YqlqUqbv8p3S5PmumO5swuSVAAhIv0Buz/Ko7uS7O4uHHAHVarrrby1AWnu78wVJyBJBRAi0oKb0mDOiuNrkmyTN3ijHVWq9ync25k0j+7OpScjSQUQItKCu6QHPS4i2aers/rHgSrVbzcuPJ00j3fioh5IUgGEiLTAKlf9gi9WJtmJV3Ll8VStAR059xzSPLkzF56OJBVAiEgL7KWtaP8CyX5p8G2tictStZ7vwFnnkab/Dpx3FpJUACEiLbB9HuDBPUl2f2c630sVG9ieMy4gzYCOnHsOklQAISItqG/qz1p+wiIk2/JlXtmMKvbylvS4iDTPd+Cs85CkAggRaUFdcRLde5Ps8+Y0/yxQxV7bjFMuIc2LW3P6hUhSAYSItIBiixGMaE6yUy+ld3eq2itbcPKlpHl5S3pchCQVQIhIC+j1TdnsFZLNavB1zYnLU9Xu25fLTiLNy1ty6sVIUgGEiLSA9r+HezuT7JE92PNBqtwlPXhoD9I8tRPnnYUkFUCISAtmavnMuhNrk2ybF3ihPVXumOsZ3IY09+3LVd2QpAIIEWnBXNON468k2ZimNP28GlVup6eYUJ801x7HHQcgSQUQItICiWsNZ/jqJDujF71Oo+qt936NX6qT5uTLGLglklQAISItkMEb0e4Nks1uNKnG+HpUuVh3WqOxJNr7QT5vhiQVQIhIC+SgO7jjAJI93olO/ah6I1Zj+6dJtNFgZtRGkgogRKQF8X3ZjDoVi5Fs+2cYsC1V7/ZDuKgHiVaasMIUJKkIQkRaEDcczdHXkWxc49hwdHWq3sF9eW0T0sypVdnqbSSpCEJEWgBxvQ94fx2SnduT884iA6uOXOT72qQZ14hO/ZCkIggRaQEMa82GQ0g2t/GEal82oOp9tSJtB5HozY057mokqQhCRFoAh93CrYeQrP8O7PgkGXi8EydfSqL7O9O7O5JUBCEizb8fy6YvWbEEyXZ+kid3JAOH3cKTO5Lo3J48uiuSVAQhIs2/Ww7j8BtJNrHR3Ppja1D15pZ9veg3i5Fo90cZ0RxJKoIQkebfBm/zTkuSXXAWZ51HBl7bjF0fJVXTMbV/qo4kFUGISPPtvZa0fIdklU2/DGMakYHjr+aefUk0sQGbvookFUKISPPtqD7ceDjJntuWbQeQgdhofM2vlibRA/twxgVIUiGEiDS/ppf/sNikpUi2+6P060QG3t6AbQeQ6ugbeG4bJKkQQkSaX30P5pBbSTalwZwVx9ckA6dfxM1dSbXWx9WmLYkkFUKISPNro8EM2ZBkl/TgtF5koLLpl9UqViTR1GVp9TaSVAwhIs2nj9di7fcDqSqbj+KLlcnAy1uy7QBSPbUTx1+JJBVDiEjzqds1XHsMyV7aivYvkIUD7+SBvUh1Sm/6dUKSiiFEpPkzo3xa7UlLk2zvB3lwTzLwU73pdSbXJlWboXy1PJJUDCEizZ+7u9DlTpJ93WDW8hMWIQN3HsjhN5Jq+tJzVvsUSSqIEJHmz6av80Y7kl3ene69ycIWrzC4Dame70DXm5GkgggRab581oLVPw6kii1GMKI5GRjTlOafBVId1YcH90SSCiJEpPly0hVceTzJXtuMzV4hC+edQ6/TSFVZf3Ltr5dAkgoiRKT5MbPBN4tULEuy/e/h3s5koLLZmDCuAane2ISdH0eSiiJEpPnx0F7scx/JppbPrDuxNhl4bTO2fp5kJ17JXfsjSUURItL82PpFBm5Jsmu6cfyVZOGQ27m3M6liky9rfLUMklQUISLNh9Ers/LIaqSKaw1n+OpkYHq9n5aatBip3t6ADs8iSYURItJ8OKMXF/Ug2eCNaPcGWbi7C4feQrLTL+Kmw5CkwggRKd2chpNqjK9HsoPu4M4uZKH9QN5oR6q42shqk1ZAkgojRKR0T+5Mp34k+75sRp2KxcjAuMax2chAqo/WZrNXkKTiCBEp3Y5P078jyW44mmOuJQsXnsn5Z5LslN5ccyySVBwhIiWb0KhypTHVSRXX+4AP1iYDsfkXYUwjUs1ZaXLNiuWQpOIIESnZBWdxzrkkG9aaDYeQhTc3ZsuBJBvQkV0eQ5IKJESkVJUrjw1jG5LssFu49RCycNgt3LU/yfZ6iMd3RpIKJESkVM93YNsBJPuxbPqSFUuQgRn1flhi8uKk+q5s5vITayJJBRIiUqo9HuHRXUl2y2EcfiNZuL8zB91OshuPpNtVSFKRhIiU6KsGs1ccX5NkG7zNOy3JQofneXVTkrUZynvrIklFEiJSostO5tSLSfb+erR8hyxMbFjZ5ItqpPqsBeu8jyQVSohIaWKLEYxchWRH30CfI8jCxadx7jkkO+1irjgBSSqUEJHSvLYZm79Msp/Lv19s0lJkILYYwegmpJrbaGKNiSsgSYUSIlKa/e/h3s4ku/NADrqdLAxtw2avkOz5Duz0BJJULCEiJfmu/Je6E2uTbOM3GdSWLBx5I7cfRLLO9/PorkhSsYSIlOS6Y+l2Fck+XZ01Pgpk4JeyaYtNXpJU39f7ZdmKRZCkYgkRKUVc90M+WpNkJ13BVd3IwkN7sf9dJLvlMI65FkkqmBCRUry1IW0Gk2xm/W8XqViWLGz/DAO3JNnGb/J2KySpYEJESnHYLdx2MMke3Jt97iMLkxpUNhxTjVSfN2fNDwOSVDAhIiX4qeynJSuWIFn7gby0BVnofQpnnk+yMy+kd3ckqWhCREpwa1cOu4lko1em2chABuJaw/m8GakqG4+vPr4MSSqaEJESbPgWw9Yn2Rm9uPhUsvD2BrR7g2QD29OxP5JUOCEi/XcfrsO67wZSzWk4qcb4emTh2Ou45VCSdbmbh/ZAkgonRKT/7rhruf4okj2xC536kYWZ5VNrT65Dqh/r/bxMRW0kqXBCRPqvZpRPW7RiaZLt+DTPbEcW+u1G53tJ1vdgjrwBSSqeEJH+q3v2p8udJJvQqHKlMdXJwk5P8dw2JNvsNYa2RpKKJ0Sk/2qz13h9Y5KdfzbnnEsWptSfW//L6qQavTKrfRKQpOIJEem/GbkqLYYHUlU2/TKMbUgWrjyR03qR7NyeXHwqklRAISL9N6f05vITSfZ8B7Z7hkys8yGfrUqqypXHVhtXH0kqoBCR/otZDb6uOXF5ku3xCP06kYX316PNYJK9ujkdnkWSiihEpP/ikT3Y80GSfdVg9orja5KF46+mzxEkO+gO7tsHSSqiEJH+i22f44X2JOt9CqdeTBZm1f+m1qRlSPVTvelLTV4USSqiEJF+39imsckX1UgVVxvJ583IwhO7sOeDJLvrAA67CUkqpBCRft/Z53Ph6SR7bTO2eIlM7PoYz2xHsq1e4s2NkKRCChHpd81pPLH6uHKS7X8P9+1DFr4pn102rgapvmzMKiMCklRIISL9rqd3ZKcnSPZd+S91J9YmC9cex8mXkuz8s7ngDCSpmEJE+l27PMFTO5Ds2uPodhWZaPUuH69BqrjKqDC2IZJUTCEi/Z5JK82tP7YGqeI6H/HxGmTho7VZfxjJ3tiErV5EkgoqRKTf0+sMzjyfZG9tSNtBZKL75Vx3NMm63srd+yFJBRUi0u+obDYmjG5Msq63ctvBZGFOgyk1Jy1Lqp/r/bjE5MWRpIIKEel3DGzPNs+R7Mey6UtOWpws9N+B3R4h2X37cvBtSFJRhYj0O/Z+kId3J9kth3H4jWRij0d4ckeSbfMCr22CJBVViEjz9k39WctPWIRkG77F263IwtSyWStMqEmqCQ1j0y8CklRUISLN2xUn0b03yT5ch/XeJRM3HM2Jl5PsotPpeTaSVFghIs1TXP0zPluVZMdex/VHkYnWw/hgbVLF1UYypjGSVFghIs3Tmxuz6askm1E+bdFJdcjCJ2uw7nskG9KWzV9GkoorRKR5OvBO7t6PZPfszwF3kIlTL+WqbiQ74ib6HogkFVeISPMyrXzG0hWLkmyz13ijHVmY03BSjYrlSfVLve8Xn7wEklRcISLNyw1Hc8y1JBuxGi2GB7Lw7Hbs8hjJHtybLnciSQUWItK8tHyPD9Ym2cmXcfmJZGLvB3l8Z5J1HMBLWyBJBRYi0jy8sz6th5JsVoOvF5m4HFn4rmzm8hNrkqpipcpGo6shSQUWItI8HHETN3cl2SN7sNcDZOLGI+l2Fcl6n8JZ5yFJRRYi0m/7qfzHxSctSbIOz/NCezLRdgjvrUuquOYnfLEyklRkISL9ttsP4dBbSDa2aWzyRTWy8FkL1nmfZMNas/HrSFKhhYj02zYazNDWJDvrAi48nUycdjFXHk+yY67n1kOQpEILEek3DV+Ttd8PpJrTeGL18WVkYW7DihoTVyDVzLLvFp28FJJUaCEi/abjr+aaY0n29I7s/DiZeL4DOz1Bskd3Z997kKRiCxHpt/xSf2rtimVItvOTPLUDmeh8P/06kWzHp3l+aySp2EJE+i33d2a/u0lW0XBu/bE1yMK0sl+WrViEVFPqz20wtjqSVGwhIv2WLV/m1U1JduGZnHUembj5cI69hmRXnMTpFyJJBRci0m/4YhWafxZIVdlsTBjdmExsNJh3WpIqrvshn62KJBVciEi/occlXHoyyV7cmm2eIxMjV2WtDwKp3mtJm8FIUtGFiPSfZq80peaEFUi210M8vDuZOKMXl59Ism7XcNNhSFLRhYj0nx7bld0fJtnX9WcvP2ERsjC38YTqE1ck1azyb2tNXhpJKroQkf5TxwE8tw3JrjiJky8lEy9sww5PkezxTux9P5JUeCEi/YdxjWOj0dVIFVf/jBHNycR+9/LIbiTb5Qme7YAkFV6ISP/h3J6cdxbJ3tiETV8lE9+XzahbUYtUX9WfUz6uOpJUeCEi/bu5TcZX+7IByQ64i7v3IxO3duXo60h21QmcejGSVHwhIv27AR3Z4SmSTSufsXTFomRi4zcZtj7J1nufT1ogScUXItK/2/UxHt+ZZDcczbHXkIkvVmGNjwKp3l+PDYcgSSUgRKR/M3mlOWXjapAqtnyfD9YmE2ddQO/uJDvhKvocgSSVgBCR/s0lPTj9QpK9vQGth5KJysbjq00oI9Ws+t/UmrQMklQCQkT6V7H5F4xqSrLDb+aWQ8nEwPZ07E+yJ3ZhzweRpFIQItK/enlLtnqRZD+V/bTEpCXIRJe7eWgPku36GM9shySVghCR/lXn+3lgL5LdfgiH3kImfqg3Y5mK2qT6unxO2bgaSFIpCBHpX3xbPmvZibVI1nYIQ1uTidsP4ajrSXZNN06+FEkqCSEi/Yurj+fEy0n28Vqs/X4gE5u+ztDWJGv5Hh+vgSSVhBCR/llcaziftCDZ8Vdz7TFkYlQzWgwPpPpwHTZ4C0kqDSEi/bPBG9HuDZL9Un9q7YplyMQ553HJKSQ76QquPwpJKg0hIv2zg/tyxwEku29f9rubTFQ2/bLa+HJSzW7w1SKT6iJJpSFEpH/yQ9nPdSoWI9kWr/DqpmTi5S3ZdgDJntqJ3R9GkkpEiEj/5KYjOOp6kn3enFU/DShkO1YAACAASURBVGTigLt4YC+S7f4oT2+PJJWIEJH+yfrv8O56JOtxCb27k4mf6k2vM7k2qb4tm73ihBpIUokIEen/vNeSVm+TbPZKU2pOWIFM3HEQR/Qh2XXHctJlSFKpCBHp/xx9AzceTrJ+u7H7w2Rj81cZ3IZk67/Dh2shSaUiRKR/+Ln8+8UmLUWy7Z7luW3IxJimrPppINXHa9HqbSSpZISI9A93HsjBt5FsXOPYeFQ1MnHOefQ6jWQnX8a1xyBJJSNEpH/Y+E0GtSXZuT05/0wyMbfJ+Grj6pNqToMpNSctiySVjBCR/r9P1mCNjwKp5jYZX+3LBmTihW3o2J9k/Xdg10eRpNIRItL/d9IVXNWNZM9szw5PkY19HuCR3Ui258M8uSOSVDpCRPq7mfW/rVVRl2SdHueJncjE1PKZy01chFRTy2atMKEmklQ6QkT6uwf3Zp/7SDa5wdyycTXIxPXHcPyVJLvhaE64AkkqISEi/V37gby0BckuPo3TLyQbrd7lozVJ1noYH6yNJJWQEJH+ZvTKNBsZSFXZfBSjmpKJ99djg7dI9skarPcuklRKQkT6mzN6cfGpJHtpK9q/QDa6XUOfI0h26qVcfRySVEpCRPqrOQ0n1Rhfj2Sd7+fBPcnEzPKptSctTao5DSfVqFgeSSolISL91RO70Kkfyb4tn7XsxFpk4uE92fcekg3oyC6PIUklJUSkv9qhP89sR7KrTuDEy8nGds8ycEuS7f0gj++MJJWUEJH+YkKjyoajq5MqrvkJn7QgE+MbxcajqpHqu7KZy0+siSSVlBCR/uL8szn3HJINasfGr5ONC86i59kku/FIul2FJJWWEJF+Vdn0yzC2IckO7sudXchE5Sqjw5hGJGszlPfWRZJKS4hIv3puW7Z7hmQ/lP1cp2IxMvHKFmz9PMk+a8E67yNJJSZEpF/t8Qj9OpHsxiM56nqy0eVuHtiLZKdeyhUnIEklJkQk+KrB7BXH1yRZq3d5b10y8X3ZjGUqapNq9kpTak5cHkkqMSEiQe9TOPVikr3bivWHkY2bD+eYa0n25M7s9giSVGpCRCKuNpLPm5HsqD7ceDjZaDOUd9cj2S5P0L8jklRqQkTi1c3Z4iWSTS//YbFJS5GJ4Wuy7nskm9xgbvmXNZCkUhMiEvvfw337kOyOgzj4NrLR/XKuOZZkl53Mab2QpJITItJ35b/UnVibZO0GMbgNmZhd/+tFKpYlVVzjU0augiSVnBCRrj2ObleR7JM1WPPDQCYe25U9HyTZkLZs8hqSVHpCRCUvrvMRH69BshOv5KpuZGPHp3m2A8kOu4W+ByJJpSdEVPLe2pC2g0g2s/63tSrqkomKlSobjK1OqullPy4xaQkkqfSEiEpe11u5/SCSPbAPne8lGxedzlnnkeyuAzjkViSpBIWISt2PZdOXnLQ4ydoP5OXNyURcZRSjm5Bs81cZ1BZJKkEholJ3y2EcfiPJRjWj2chAJl7ZgvYvkOyLVVjtk4AklaAQUanb8C3ebkWy0y/i4lPJxv73cP/eJDujF5eejCSVohBRiftwHdZ7l2SzG06uMWFFMjGt7JdlKmqTam7DiuoT6iFJpShEVOKOvY4bjiTZE7uw66Nko89RHHsNyQZ0ZKcnkKSSFCIqbTPKpy06qQ7JdujPgG3Jxvrv8P46JNvjER7fGUkqSSGi0nZ3Fw64g2QTGlU2HF2dTHywLq3eJtk35bNXmFATSSpJIaLSttlrvNGOZOedw7nnkI3jruWGI0l29fF0740klaYQUUkbsRothgdSzW06rtrYlcjEL+Xf1Z60NKniOh8xfHUkqTSFiErayZdx+Ykke25bOvYnGw/sw/53keyd9WkzGEkqUSGiUjarwdeLTFyOZLs/Sr9OZKP9QF7ZjGRH38DNXZGkEhUiKmWP7MFeD5BsSoM5K46vSSbGNKXZyECqGeXTFp28FJJUokJEpazD87y4FckuPZUeF5GNs8+n12kku78zXe5EkkpViKiEjW0am3xRjVRx1c/5vBmZmNt4QrXx5SRrP5BXNkOSSlWIqISddQEXnk6yVzdni5fIxrPbscNTJBvTlJU/D0hSqQoRla45jSqqjy8j2X73ct8+ZGOPR3hsF5KdfT4Xno4klawQUel6ekd2fpxkU8tn1p1Ym0x8XX/2iuNrkmpu4wnVxpcjSSUrRFS6dn6Sp7cn2TXdOP5KsnHliZxyCckGdGSHp5Ck0hUiKlkVDefWH1uDVHHtj/l4DTIR1/yEz1Yl2e6P8tguSFLpChGVrAvP5KzzSDa0DW0HkY0hbdn4dZJ9XX/2iuNrIkmlK0RUqiqbjQljGpHs0Nu4/SCy0fVW+h5IsitO4uRLkaQSFiIqVS9uTYdnSfZj2fSlKhYnEz+V/bTkpMVJFdf8hE9XQ5JKWIioVO31EA/vTrJbDuOIPmSj78F0vZlkQ9rS7g0kqZSFiErU1/VnLz9hEZK1HsbbrcjGxm8yZEOSHXobfQ9EkkpZiKhEXXESJ19Ksg/WZb13ycZnLVjjo0Cqn8p+WnLS4khSKQsRlaa4+meMaE6yY67nhiPJxim9ufJ4kt1+CF1vRpJKWoioNL2xCZu9QrKfy79frKIOmZjd4KuaFcuRrN0ghmyIJJW0EFFpOuAu7t6PZHd34cC+ZOOxXdnjIZJ9ujprfBSQpJIWIipJ08pnLF2xKMk2fZ032pGNHfrzbAeSnXwZV5yAJJW2EFFJuuFojr2GZJ+1oMXwQCYmNqxcaUx1Us1q8HXNiuWQpNIWIipFseX7fLA2ybpfzhUnkI1eZ3B2T5L12409HkKSSlyIqBS9vQGth5JsVv1vFpm4HJmobD4qjG5Msu2f4dkOSFKJCxGVosNv5pZDSfbwnuz1ANl4ZQvav0CyiQ0rVxpTHUkqcSGiEvRT2U9LTFqCZNu8wItbkY397+GBvUh24Zmc3RNJKnUhohJ0+yF0vZlkY5rS9PNqZGJa2S91K2qRqnKV0WF0YySp1IWISlDbIQxtTbIzL6TXaWTjhqM57mqSvbQV7V9AkkpeiKj0fLwWa78fSDWnUUX18WVko9W7fLA2yfa9jwf2QpJKXoio9HS7hmuPIdlTO7Hz42Tj/fVYfxjJviubWbeiFpJU8kJEJeeX8u9qVyxDsp2e4untycax19HnCJJdfwzHXY0kKURUcu7bl/3vItnEhpUNxlYnE7PKpi46qQ7JWr7HB2sjSQoRlZwtXuHVTUl24Zmc3ZNsPLELne8l2XstWX8YkiRCRKXm8+as+mkgVWWzMWFMI7KxWz8GbEuyY66nzxFIkggRlZoel9C7O8le2IYOz5KNqfVm1xtfg1Qzyr5fdFIdJEmEiErM7JWm1JywAsn2fJhHdiMbNx7JiZeT7N796HInkiQIEZWYfrux+8Mk+7r+7BXGL0I2NhrM++uQbMuXeXVTJEkQIiox2z3Lc9uQ7PLunHwp2fi8OWt/QLJRzVhlRECSBCGi0vJlk9h4VDVSxRYjGNGcbJxzHr27k+zMC7moB5KkX4WISsu5PTn/TJK9vimbvUI24spjqo0vJ9WcxhOrjy9DkvSrEFFJmdtkfLVx9UnW5W7u2ZdsvLEJ2zxHsv47sOOTSJL+IkRUUp7Znh2eItm0sl+WqahNNg67hXv2Jdmuj/HETkiS/iJEVFI6Pc4TO5Hs+mM49hqy8Uu97xefsjippjSYU298DSRJfxEiKiWTG8wt/7IGqeJ6H/DhWmTj4T054A6SXXYyp16MJOmvQkSl5OLTOOMCkg1rzYZDyMiOTzNwS1LF1T9jRHMkSX8VIiohlc1HMaopyQ6/mVsPIRtf1Z/T4MtqpBrUjk1eQ5L0NyGiEvLSVrR/gWQ/lf20xKQlyMY13ehxEcm63sodByBJ+psQUQnpfD8P7kmy2w6l681kZP13GL46qWbU+2GJyYsjSfqbEFHp+LZ81nITapGszVDe2oBsjFyVlu+Q7MG9OeAOJEl/FyIqHVedwImXk+yjtVnnvUA2ep7L5SeSbIf+DNwSSdLfhYhKRlzzEz5pQbJu13DtMWQjrv5ZGNeAVFPqz11pbDUkSX8XIioZg9qx8esk+6X8u9oVy5CN99dj01dJdvXx9LgISdL/FyIqGQf35c4uJLt3P/a/i4yceil9jiBZq3cZvjqSpP8vRFQqfij7uU7FYiTb/FVe24RsVDYZV33ycqQavibrD0OS9A8holJx45EcdT3JRq7Kqp8GsjGoHdsOIFmPS7j6OCRJ/xAiKhWt3uW9dUl26qX07k5Gjr2OO7uQam6jiTUmroAk6R9CRCXi3VasP4xks1b6qubE5cnG3PpTak9ZilQD27PDU0iS/k+IqEQc1YebDiPZo7uzx0Nk5JUt6NSPZAfcxUN7IEn6PyGi0jC9/IfFJi1Fsm2f4/mtycjRN3DfPqSavuL0OpNrI0n6PyGi0nDHQRx8G8m+bBIbj6pGNubWn1Lr6yVJdc/+dL0ZSdI/CRGVhnaDGNyGZOecx/lnkpFXN2eXx0i2zQu8vjGSpH8SIioJn6zBmh8GUs1tPKHauPpk5NjruLczqSY2rGwyKiBJ+ichopJw4pVcfRzJ+u/Ajk+SkcoGk2p9tRSpLjuZs3siSfpnIaJSMLP+t7Uq6pKs0+M8uSMZeX1TdnqCZK3eZURzJEn/LERUCh7Yh873kmzSSnPLv6xBRo67lrv3I9XIVWn1NpKkfxEiKgXtB/Ly5iS76HTOuICMxJUmLvJVHVL1PJfLTkKS9C9CRCVgVDOajQykqlxlNKObkJFhrenYn1SxxYgwrgGSpH8RIioBp1/ExaeSbGB7tn6erJzRi5u7kuq9lmz6KpKkfxUiKr7ZDSfXmLAiyfZ5gAf3JCtrfBImrUiqU3rT5wgkSf8qRFR8T+zCro+S7Jv6s5abUIuMjFyVdm+QqrLx+OqTl0OS9K9CRMW3Q38GbEuyK0/kpMvISu9T6N2dVG9uzLYDkCT9mxBR4U1oVNlwdHVSxTU+5dPVyEq7QYxchVTHX80dByBJ+jchosI77xzOPYdkg9qx8etkZXJ5XONjUlU2mlDzq6WRJP2bEFHRzW06rtrYlUh20B3c2YWs3Hw4Z55PqsEb0bE/kqR/FyIquue2pWN/kn1fNqNOxWJkZcenGbY+qU68kr4HIkn6dyGiotv9UR7bhWR9juLo68jKjGVnlE2oRqLKxuNrTlkGSdK/CxEV3JQGc1YcX5NkLd/j/XXIyoCOHHIrqYa0ZbtnkCT9hxBRwV16Kj0uItm7rVh/GJk55nr6dSJV98u5/SAkSf8hRFRscdXP+WJlkh15IzcdRlZiky9rfrskiWKTL2tMqYsk6T+EiIrt1c3ZciDJppf9uPikJcnK8DVp/wKp3mvJNs8hSfpPIaJi2+9e7tuHZH0P5pBbycylp3Ll8aQ65zz6HIEk6T+FiAptavnMuhNrk6zdIAa3ITObvcbIVUi19kdUlCFJ+k8hokK7phvHX0my4Wuy5oeBrExbbm7zEaQa1Yw2g5Ek/YYQUZHFtT9m+OokO+Eqrj6OzDy6O8dfSaorTuLiU5Ek/YYQUZENbcNGb5Lsl/pTa1XUJTNH3MQz25FqkzcY0RxJ0m8IERXZobdx+0Eku78z+95DdpqOWWTq4iT6ql5s8QmSpN8SIiqwH8umL1WxOMm2eomXNyczo5qxxUukuu1QTuuFJOm3hIgK7JbDOKIPyUY1Y5URgcz0OYpep5Gq0+MMboMk6beEiAqs9TDeaUmy0y7mklPIzq6P8XYrEs1cdvryk6shSfotIaLi+mBd1nuXZLNXmlJjwopkZs6yPyz7VTUSvbANB9yBJOk3hYiK65jrueFIkj3eiV0fJTuDN2KvB0h1/NU8tAeSpN8UIiqsGWXfL1ZRh2TbP8OAbclOz3O59RASxVVG1fimDpKk3xQiKqy7u3BgX5KNb1zZcHR1srP5q4xtRKIRq7H5y0iSfluIqLA2fZ03NyJZz3PpeTbZ+WXpmY3HkOqKk+jdHUnSbwsRFdVnLWgxPJBqbtNx1cauRHZe24wD+5Kq/UA+XQ1J0m8LERVV98u54gSSPbsdHfuTofPPpu+BJPp5mVmNRwckSb8tRFRQs+p/s8jE5Ui2Wz8e24UMbfUSo5uQ6NntOOwmJEnzECIqqIf3ZO/7STalwZx642qSnVlLz2g4NpDoxCt5ZDckSfMQIiqobV7gxa1IdkkPTutFht7cmP3vItWaw6t9swySpHkIERXTmKY0/bwaqWLzL/hiZTLU6wxuPYREFfXZcAiSpHkJERXTWRfQ6zSSvbIFWw4kSx2e54uVSXTngZx1HpKkeQkRFdKcRhXVx5eRbN/7uH9vMjR3mR/LJwQS7Xsfr22CJGleQkSF9NRO7Pw4yaaWz6xbUYsMfbQ2uz1ColjvqyWm1kSSNC8hokLa6Sme3p5k13Tj+CvJ0s2Hc9lJJBq+Jts/jSRpnkJERTSxYWWDsdVJFdf+mOGrk6WD7uDNjUh0w9H07o4kaZ5CREV04Zmc3ZNkQ9qy0ZtkarURNX+oTaI9H2bY+kiS5ilEVECVzcaEMY1Idsjt9D2QLE1dltZDSRTrfbXk1BpIkuYpRFRAL2xDh2dJ9kPZz0tVLE6WBnSk21Uk+nR1OvZHkjRvIaIC2vNhHtmNZDcfzhF9yNTZ5/PAXiS68UguOQVJ0ryFiIrn6/qzVxi/CMk2eJt3WpKprV/ky4Yk2vtBhrZGkjRvIaLiubw7p1xCsvfXo+U7ZCrWnVavIpAm1p+0xHc1kCTNW4iocGKLEYxoTrKjb6DPEWRq9Mrs8BSJxjRl6+eRJP2OEFHhvL4pm71Csp/Lv1+sog6ZemQPzu5Jovv25ZxzkST9jhBR4XS5m3v2JdldB3BgX7J12sU8sROJjr2OZzsg/T/24APQ53p//Pjzfc75HuccZ5l1zrFnRvaWUVmFjIwUMo6VbCE7lBAZRTgkUdmUkFFWlJFRiOxxrHCGs8f7f3Tv/f3u/f1/P9445/v9fE6vx0MIcR9KIzKbiKD4bOFeGKu1mx9r4FwNN3MpD4YqHeROIEIIIe5DaURm8/Gb9J2BsRMlKfmbwql0rlu5rynMxAYklzyGEEKI+1Eakcno8kc4+jTGBk3jw/4418X8NNqIoZ116BqGEEKI+1Eakcnsr0LVnzCWkOdPzys5ca61LRgxAUOThxLWFSGEEPejNCKT6TGPsK4YW96WV77EyUZNYFVLDLVYy7GSCCGEuB+lEZnL3aC7vld9MVZ/K9uew8marudsQQzlvewX4YYQQoj7URqRuSwIpds8jJ0tTOFTbjhZwfO+UQozN56gznaEEELcl9KIzKXaz+yrjLGR7/Le2zhZtD/V9mJo0wsMnIoQQoj7UhqRqfxahrKHFKaS84e7XwrCyX6uRuh8DL07kiWvIYQQ4r6URmQq/WbyUW+Mfd2M5mtwtgWhTO+HoZdXc+IphBBC3JfSiMwkPviO19VAjDVdz7cv4mwDprP1eQwVuOAb6YYQQoj7UhqRmSxtT4fFGLucPzXPeXecrf5Wrj2BmVs5eWYXQggh7k9pRGZSdwc7a2FswihGv4PTBV3LeUNhZksD+k1HCCHE/SmNyEROFeep4wpTqYXPq3P5cbY/c1H3BwxNHcyi1xFCCHF/SiMykaGT+WAQxjY3pNFGnG5XbXp/hKHOizhYASGEEPenNCLzSMx7w3ElF8Zar2RVS5xuQSgf9cZQ5QMqxhshhBD3pzQi81jVitbLMXYjT1LuS5443dDJfNcAMyl+cUVPIYQQ4gGURmQeL2xic32MffAWQybhfC3Wcq4AZk4XpcVqhBBCPIDSiEzjQkFd4IwbpnSJk5wqivOVOp4lxh0za1swahxCCCEeQGlEpjFmHONHYmxnHer+gPOl+CSW+g1DE0axvDVCCCEeQGlEZpFS4LLbxRCMdVjCktdwvvMFab4GQ68s43gJhBBCPIDSiMzi2yY0/Rpjd4Ljs4V74XybGzJkEobK/OqIcSCEEOIBlEZkFi3W8nVTjH3Uh74zcIGP+hDWFTOpWeOfOoEQQogHURqRSVzNmxJ8wQNTutxRfi2NC/SdxY7amLmYn5fWIYQQ4kGURmQSE4czYgLG9lWl2l5c4aVvuByCmW31GDwFIYQQD6I0InNILXqWswUx1n0+YV1xhTK/OuLdMDPnDeZ1QwghxIMojcgcttWj/maM3Q2663vVFxfQgVGFT2NowHS210EIIcSDKI3IHF5ZxvLWGAvrRve5uMKd7Dy/FUONNxAehBBCiAdRGpEp/BmSmOuyJ8aq7mN/JVzhcHm6LMBQ0dO+UQohhBAPojQiU5g2iMFTMHa0LGUPKVxhbQvGjcJMsldK+V8QQgjxQEojMgNd6gS/F8dY31l81BuXmD6Azzpi5nxBWq5CCCHEAymNyAx+fIbaOzAWFxzhHR6ISwyYzo7amNlRl4FTEUII8UBKIzKDTp+xuAPGlnSg42e4Rou1XMiHmc86MbMPQgghHkhpRCYQERwXGO6NsTo72VkL16h8QCV6YOadsax7CSGEEA+kNCITmN2bN2dh7FRxnjqucI08V568iqHOizhSBiGEEA+kNML+dIXDHCmDsSFT+GAQrpGSJaX8Lxh67gciAhBCCPFASiPs70BlqvyMscQ8Nx1XcuEa15+k8XoMFToXeAchhBAPpjTC/nrMY34oxla2ps0yXORQBULnYybFK7nsYYQQQjyY0gjbuxt01/eqL8YabmZzfVxkQ2NGjcPMtSCafIMQQogHUxphewu70m0exs4X0gVPu+EiYd2Y0xMzhyrQbR5CCCEeTGmE7VX/iZ+rYGz0eCaMwFXGj2ZtM8x824QxYxFCCPFgSiPs7renKXNYYSq5wBX3i8G4Sq9P2FcZM/O7M7c7QgghHkxphN31m8msNzG2vikvrcNlWq7hYl7MjBvDN00QQgjxYEojbC4++I5XeDaMNfuab5rgMnV2EuuNmZ5zOVARIYQQD6Y0wuaWtqfDYoyF50sJOe+By5Q67hODoZe+ITwIIYQQD6Y0wubq7mBnLYy9O5KR43GdJ6/nvYihygfcEt0RQgjxYEoj7O1UcZ46rjCVWuScOlsAl9GeyeUOYSj/xdzXEUIIYUBphL0NncwHgzC2pQENvsN1IgOptwVDvjEljyGEEMKA0ghbS8x7w3ElF8baLmdFK1znbGHafoWZOB9q7UQIIYQBpRG2tqoVrZdj7GZIUq7LnrjOvqr0/ggzl/PSYjVCCCEMKI2wtUbfsbk+xqYO5q3JuNDGFxn9DmaOlCN0PkIIIQwojbCz84V0wdNumNIlTnKyGC60pAMz+mJmWz2GTUQIIYQBpRF2Nno8E0ZgbFdt6mzHlWb3ZtHrmFnelimDEUIIYUBphI0lF7jifjEYYx0/5/P2uNKkYaxqiZnZvfm0E0IIIQwojbCx9U15aR3G7gTHB4Z740oj3mNLPcy8O5K1zRBCCGFAaYSNNV/HN00w9lEf+szEpfrO4qeqmBk2iR/qIoQQwoDSCPu6mjcl5LwHpnS5oxx9Gpfq9BnHS2DmjTkcqIgQQggDSiPs670RjByPsf1VqPoTrvXyai7lwUz7pZwqihBCCANKI2wrtcg5dbYAxrrPJ6wrrlV/K5H+mGn2NdeeQAghhAGlEba1tT4NvsPY3aC7vld9ca2q+0hxw8yz24n1RgghhAGlEbbVdjkrWmEsrBvd5+JiJU/4RmOo0kH3JIUQQggDSiPs6mZIUq7Lnhiruo99lXGxgudzX8dQsT+y3UYIIYQJpRF2NXUwb03G2NGylD2kcLGga/kuYCjoWt6LCCGEMKE0wqZ0iZOcLIaxPh/xUW9cLVtEsZMYyhZR/HeEEEKYUBphU7trUWc7xuKCI7zDA3E1r4SyhzHklVD2MEIIIUwojbCp1xfzeXuMLelAx89wNe1G1Z8wo92othchhBAmlEbYU0RwXGC4N8bq7GTXM7havDd1tmMm3pu6PyCEEMKE0gh7+vhN+szE2MmnKHFM4WoR2Wi4CTN3stNoI0IIIUwojbAlXf4IR5/G2FsfMHUgLnctiOZrMHM1mBarEUIIYUJphC3tr0LVnzCWmOemIzwnLne+IG2/wszZwrT7AiGEECaURthS9/mEdcXYija0WYbrnSpOh8WYOV6KTp8ihBDChNIIO7obdNf3qi/GGmxhSz1c70RJOi/EzJFydJ+LEEIIE0oj7GhBKN3nYuxcIQqedsP1fi1D6HzM/FKRXrMRQghhQmmEHVX7mX2VMTZqAu8OxwIOl6fnHMzsq0qfmQghhDChNMKGfi1D2UMKU8n5w90vBWEBByrT+yPM7K1B/w8RQghhQmmEDfWdxUe9MfbNSzRbixX8XI1+0zGzqzaDpyCEEMKE0gj7iQuO8A4PxNhL37C+MVbw4zMMnIqZ7c8y9H2EEEKYUBphP0s60PEzjF3JlxpywR0r2FmHIZMws7U+IyYghBDChNII+6mzk13PYGzCKEaNwxK+f56338PMphcY/Q5CCCFMKI2wnZNPUeKYwlRq4fPqXH4sYVs9RkzAzMYXGTsGIYQQJpRG2M6QKUwdiLHNDWm4CWvYVo/h72Jm44uMGYsQQggTSiPsJjHPTceVXBhrs4KVL2MN3z/P8Hcxs+kFxoxFCCGECaURdrOyNW2WYexmSFLuS55Yw/fP8/Z7mPmuEaPfQQghhAmlEXbTcDNb6mHsg7cYMgmL+OE5hk3EzHeNGP0OQgghTCiNsJnzhXTB026Y0iVOcqooFrH9WYZNxMzmhowahxBCCBNKI2xm1ATeHY6xnXWo+wNWsf1Zhr6PmS0NGDkeIYQQJpRG2Ety/nD3S0EY67CEJa9hFTvqMmQSZrY0YOR4hBBCmFAaYS/fvESztRi7ExyfLdwLq9hZhyGTMLOtHsPfRQghhAmlEfby0jesb4yxWX3pOwPL2F2LgVMxs6MuQyYhhBDChNIIQfJTrwAAIABJREFUW7mSLzXkvAemdNlf+bU0lrGvKn1mYmZvDfp/iBBCCBNKI2zl3ZGMGoexfVWpthfrOFyennMwc7ASvT9CCCGECaURdpJa5Jw6lx9j3cJY0AXrOFaaLgswc7Qs3eYhhBDChNIIO9nSgIabMBYdFON3NSvW8UcxOizGzO8l6PQpQgghTCiNsJM2K1j5Msbmd6fHJ1jI+YK0/QozZ4rw6lKEEEKYUBphIzdDknJf8sRYlf3sr4SFhIfQYjVmLuWj9XKEEEKYUBphIx+8xZBJGDtSjnK/KCzkz1w0+QYz14JothYhhBAmlEbYhy5xklNFMfbmx3z8BlYSGUiD7zBzOwcvbEAIIYQJpRH2sas2dbZjLDY40vtqAFYS58Oz32Mm2p96WxBCCGFCaYR9dPycJa9h7POOvL4IS0l2UHM3ZhK8qL0DIYQQJpRG2Mad4Phs4V4Yq72L3TWxFO2uK+/DTKo71fcghBDChNII2/ioD31nYOz3EpQ4prCWLInlDmHII6XiAYQQQphQGmEXutxRfi2NscFTmTYAi/G7W/IYhnziyhxBCCGECaURdrGvKtX2Yiwhz5+eV3JiMTluFz2FoYCop04ghBDChNIIu+gWxoIuGFvelrZfYTVPXs9/HkO5/ix8GiGEECaURthEdFCMX7gvxupvZevzWE2+S0HhGAq+mucSQgghTCiNsImwbnSfi7GzhSn0hxtWU/hszpsYKnQu1w2EEEKYUBphE1X3sb8Sxka+y3tvYzklT/hFYajkCb8ohBBCmFAaYQ9Hy1LuF4Wp5Pzh7peCsJwKhxyJGKr4i0cSQgghTCiNsIc+H/HxGxj7uhnN12A9NfeQ7I6ZmntI8kAIIYQBpRG2EBcc4X01AGNN1/Pti1jP898T7YuZ578n2hchhBAGlEbYwucdeX0Rxi7nT81z3h3rafItN3Nipsm33MyJEEIIA0ojbKH2LnbXxNj40Yx+BwtqtYqLeTHTahWX8iCEEMKA0gg7+L0EJY4pTKUWuqDO5ceCOizhVFHMtF/KqaIIIYQwoDTCDgZPZepAjH3XiEYbsaJuYRwpg5luYRx9GiGEEAaURthAYsifnldyYqzVKla1xIr6zuLnKpjp8xH7KiOEEMKA0ggbWNGGtl9h7EZI8hOXHFjR0Mlsr4OZIVPYURshhBAGlEbYQIMtbH0eY1OGMPR9LGnMODY1xMzo8XzXACGEEAaURljfuUIU+sMNU/qpU/xRBEt6/23WNMfMeyNY2wwhhBAGlEZY38h3ee9tjO2oy7PfY03TB/DlK5j5cCBftUUIIYQBpRGWl5w/3P1SEMbaL2Xpq1jT3J4s7IyZOW+w6HWEEEIYUBpheV83o/kajN0OTsh+xQtr+qwTs3th5tMuzOmJEEIIA0ojLK/petY3xtjMfvSbjkUtb8vUgZj5qh0f9kcIIYQBpRFWdyVfap7z7pjSZX7jt1JY1NfNeHc4Zta2YOIwhBBCGFAaYXUTRjH6HYz9XI3qe7CqLQ0YOR4zm15g9DsIIYQwoDTC4lILn1fn8mMsdAELO2NVu2ozeApmdtRlyCSEEEIYUBphcZsb0mgjxqKDYvzDs2JVByrT+yPM/FyNPjMRQghhQGmExbVeyaqWGJvXg55zsKzfnqZrGGaOlKPbPIQQQhhQGmFtN/IkPXHJgbHKBzhQEcs6U4RXl2LmVHE6LEYIIYQBpRHWNmUIQ9/H2OHylP8F67qSh5arMHMxP61WIIQQwoDSCEvTT53iVFGM9Z7N7F5Y1+0cvLABMzeeoMk3CCGEMKA0wtJ21qHuDxiLDY70CQ/AumKz8uz3mIn2p94WhBBCGFAaYWkdlrD0VYwtfp1On2Jhqe5U24uZJE9q7kYIIYQBpRFWdic4PvsVL4zV2s2PNbAyR3KFg5jRblTbixBCCANKI6xsVl/6TcfYiZKU/E1hZY7kigcwk+pOtb0IIYQwoDTCwnTZX/mtFMYGTePD/liaR0rFA5hJ8aD6HoQQQhhQGmFhP1ej+h6MJYTc8rySE0vzSKm0HzPJDmr8iBBCCANKIywsdAELO2Ns2Su88iXW5p5aaT9mkjypuRshhBAGlEZYV3RQjN/VrBirt41tz2Ft7qmV9mMmyZNndiGEEMKA0gjrmteDHp9g7EwRCp9yw9rcdOV9mEnMQq2dCCGEMKA0wrqq7OdARYwNn8jEYVicm668DzMJXtTegRBCCANKIyzrSDnK/4Kx5LzXPC49ibWlulP1J8zEe1NnO0IIIQwojbCsNz9mdi+MrWtOi9VYXLQ/z23DTJwPdX9ACCGEAaURVhUbHOkTHoCxJt+y4QUs7loQTb/GzO0cvLABIYQQBpRGWNXi1+n0KcYu50/Ne84diztThFe+xMzF/LRejhBCCANKI6yq1m5+rIGxcWMYMxarO1qWrmGYOV6KzgsRQghhQGmERZ0oSYljClMphS6q8/mwur016DsDM/uq0mcmQgghDCiNsKhB05g2AGObXuCFDVje1vq8/R5mvn+et99DCCGEAaUR1pSQ50/PKzkx9vJqVrfA8tY1Z8IIzHzdjHeHI4QQwoDSCGta3pZXvsTY9TzJT1xyYHkLu/LxG5j54jVm9EUIIYQBpRHWVH8r257D2OShDJuI9U0YxZrmmJnXgwVdEEIIYUBphCWdLUzhU26Y0sX/4HRhrK/3bH6ugplpg1jWBiGEEAaURljSiPeYOAxj25/luW3YQIu1XMqDmbHvsL4xQgghDCiNsKLkfFfdLz+Jsde+4It22EDVfSrBgZmec9lXGSGEEAaURljRuuY0X4Ox28EJ2a94YQP5LuW+jqGm67kSjBBCCANKI6yoybd8+yLGZvSn/4fYQGqW5HKHMFThkHuCO0IIIQwojbCgy/lT855zx5R++hjHSmIDl/LR5BsMPXEj5DJCCCFMKI2woPGjGTMWYz9Vp8aP2MGGxgx9HzOJWajyM0IIIUwojbCe1EIX1Pl8GOu6kE87YQeTh/J5e8xcKEDLVQghhDChNMJ6vmvECxswFhUU6x+eFTvosITDZTGzpyZ9ZiKEEMKE0gjrabWK1S0wNrcnvWZjC+UPu8dkwcyKNrw/FCGEECaURljO9TzJT1xyYKzSQQ5WwA6SfRNKHMfQhwP5vD1CCCFMKI2wnMlDGfo+xg5VoMJBbOFESVovx9DgqXz/LEIIIUwojbAaXfwP/iiCsTfmMKcntrAglHeHY6jpes4WRAghhAmlEVaz/Vme/R5jMcFRPlf9sYV2X7G3GobyXfKLVAghhDChNMJq2i/li3YYW9SZzguxhdQnb/rf8sDMnezU3I0QQggjSiMs5nZwQvYrXhh75kf2VMcWjpblpXUY2lGXNz5GCCGEEaURFjOzH/0/xNjxUpT6VWEL0wYxsw+GZvXlkx4IIYQwojTCWnSZ3zhWEmMDP2R6P+zhxY0cK4mhbmHsrYYQQggjSiOs5afq1PgRYwkhtzzDc2ALMbljg64oDFXZr6J8EUIIYURphLV0XcjCzhj7qh3tvsAelnSg2zwMpfjFFfkDIYQQZpRGWEpUUKx/eFaMPf893z+LPTTczM5aGDr5FC+vRAghhBmlEZYytyc952DsTBGKnFLYQnje1AJn3DC0og3vjEYIIYQZpRGWUvkABytg7O33eX8o9vDBW4wah6nBU1nbDCGEEGaURljJ4fJUOIixpHzXPC4/gT2UPcqpopgqe1TdzIEQQggzSiOspPds5vTE2NoWtFyFPRyqQNWfMHU1mMr7EEIIYUhphIXEBkf6XPXHWOMNbGyEPbz2BbN7YerzjoyYgBBCCENKIyzks050XoixSwVS8511xxbOFk3NecEHUx2WsKM2QgghDCmNsJBnfmRPdYy9M5axY7CH3rMZNwpTqcHXfW95IoQQwpDSCOs4XoqSvylMpRS85HY+L7ZwvUC878VsmDpSjqZfI4QQwpTSCOsY+CEf9sfYxhd58VvsYfhEBn2AsSlDmPUmQgghTCmNsIyEkFue4Tkw1nINa5pjC3cKRDnOhWCs/lZOFkMIIYQppRGWsewV2n2BsWt5k5+86MAW+s2kaxjGYrMn5D+nEEIIYUpphGXU28b3z2Js0jDefg9b+K1civfJvBhb35Ru8xBCPJiOvhUbGxcbFxcbF5vMPynPLJ5ZPLN4embxyZrVJ6u3GyLzUxphFWeKUOSUwpQudprThbEDXe97xo/EXNvlrHsJIcT/Jfr8hes3bt68cfPmjUQezMcna1afrFl9sqbxvyfA39/XDZGpKI2wiuETeX8oxn54jue3YgurWlHwuBfG7jyZmOuKAyHE/xR37vy58+fPnb/F4/PzD/C/JyAgMDAgMDAgwANhZ0ojLCIp3zWPS09i7NUv+fIV7CC2xEXWNsPcJ70YMA0hxL+5cyLN7+c0/8E9V67cObP6eHv7ePt4+zgATZrUxDQJiYkJCbExMbExMbExaTQP4BsQGBgQGBgQGBgQGBAYGOClEDaiNMIi1ragxWqM3QpOzHElC3YwfCINNinMVfuZw2URQvwl5tcjR4+fuM5/c8tToGD+4Fy5c+UKdMOUToiJiY2JuRsdFRUVGZUmMirqLvfjGRgQGBgQGBgQGBgQGBgQ6OuGsDClERbReAMbXsDY9AEMmIYd7HhWexwtgbkTJSl3CCGEvnzk8JEjpzX/4vtU8YIFChbI40n6SLkbGRUVGRkRERkRERkRERkRy324+QcGBAYGBAYGBAYGBAYGBDgQFqI0whouFUjNd9YdU7r0cY6XwAbulLnMu8N5CMMmMb0fQvyt6QsHDh745Tb/krtEiRJPlcijyFhJkRGRERGRERGRERGRERGRkZr7yBoQGBgQGBAYGBAY6Ofj4+3j4+WGcBWlEdYwbgxjx2BsT01q7sYGdJuV1NnmjrmUfOEe4bkQ4u9KXz5w4OCBW/yTV+myZcuWzo5LpN6NiIiMiIiMiIiMiIiMiIhI4v68fHy8fXx8vH18vDw9HZ4OT0+Hp8PT0+Hp8HSk8XA4HB4Oh8NNIdKb0ghLSCl00e18Xox1+ZRFr2MDC7uS7UheHsJ3jWi2FiH+luIP7t279yr/9ET5cmXLFvXAOnR8ZEREZEREZEREZEREZEREDI/G4fBwOBweDoeHw+Hw8PT+By/vf/Hxz4J4OEojLGHTC7z4LcaigmIDwn2wvpMVYln5Mg+j3VesaY4QfzuX9uzdeyiJf8hVqVKlisEKq0uOjIyIiIyIiLgbGxcbGxsXGxsbF5tAOvAM8A/w9w/wz5HzL96IB1AaYQkvr2ZNc4x90os3Psb6blY/Q+h8HsbNvAk5r3gixN+JPrNjx46L/INf1SqVKuVR2FdKXFxsbFxSYlJiUmJSYmJSYlJiYlJiYnJSUnJSUlJyUlJSclJSclJSUnJSUlJyKiZ8cubOExISkickxBfxv1IaYQXX8yQ/edGBsYq/8Et5LC/uuZ8o/VNWHsaI9xg4FSH+NvTvO3buCOcfnqpWvXpJd/5WUpOSE+Lj/lt8XJqY6KjIqMhk/hf+eQoXKVK4SH4PxH9QGmEFk4YxbCLGfqlIxQNYXmqbVQT9nJeHEZE/ynE2D0L8PVzesmXbDf7iXe2Z6lWzI/6bjo+Mirz15z/cvKn5dx4FihQpXvbpQMQ/KY2wAF3sNKcLY6zXJ3zSA8sbNA3fneV5KO+OpNs8hPgbiN6xZfPv/MW3Zu06lT0R95N07Uqay1euXErgv+UvU7ZMmSLuCJRGWMAPz/HcNozFBEX7XPXH6qYPwH19Ix5KTP5bbqcKI0Qmpw9t2LInmXv8atepU8EDYSw1/HSaM6fv8i/epavWrJmXvzmlERbw2hd8+QrGPu1ClwVY3ftvw7xuPJwPB/LaEoTI1OK2fbM+nHvcq9ZvUMUD8Sj0jT+OHTl6NJp/ylOzZs0yHvx9KY1wvdvBCTmuZMFYzT3srYa16eHvw+h3eDgJhcL5rRRCZF7h67/ZFsc9RRrUfzYA8XhSLxw5euToaf4ha7VnGlZx5+9JaYTrzejPgGkYO1aa0kcVlpba+xOYOIyHNLcnLVYjRGZ1asWag9yT5fkmjQoi0kvET3t+/DmGv2Rr8ELDJ/kbUhrhcvrpYxwvgbEB05nRF0tL6rwU9XEvHlJysXMcqIgQmdLvK1Ye5Z4nmzR9PisinSUf+XHPj5f5S7kXGlV38DejNMLl9tag5m6MxYfczhKeHSsLf2UX7ova87A+70jDTQiRCR1fsfI37inftGkFN0QGubBt45ZI7vF/sW0jL/5OlEa4XJdP+bQTxr58lVeXYmXft7uB5/JmPKy4kufZWQshMpsLS5ce556qrVvlR2Ss5J83bjrIPX7N2jTIwt+G0ghXiwqK9Q/PirHnfuCHulhX6ntjUsmzvDoPbcw46m1BiMwlauXn27mneuuX8yGc4sZ3mzbdJk1AizbPe/L3oDTC1T7pRa/ZGDtdlKInFZb1Z8eN0HBJTh7amVIJHkdLIEQmkrxl8dp40tRo/XJehBMlbVu2JpI02Vp1raL4G1Aa4WoVf+GX8hgbNolJQ7AqvXTAn6h3Rrjx8Jqu563JCJF5HA/74jppinVoXwDhdAlblq+NJs3T3dpnI9NTGuFiv1Sk4gGMJeW97nH5CSzqdK+tkOuLejyC9U0J/t0PITKJuJXzdpMme7sOVRTCNeI3Lf86BvBq1a2WInNTGuFib8zhkx4YW9OSl1diTYkfjI+HVjODeATxpc7y5SsIkTn8PvezO4Bn0w4veCJc6e7ysL2kKRb6em4yM6URrhUTHOVz1R9jL25kU0MsaeuA3yDfx014JOPG8Ow2hRCZQMKquTtJU7JH++wI1/stbPEdwPHaoNJkXkojXGtRZ7oswNjFAjr/WTcsaN/b34Nbv3G+PJJzJeM9DpdCCPsLn/PJn0CW1j1qKoQ1xK+ev500DQc/r8iklEa4Vs097KmOsbHv8M5orOf4yDVAxXkVeETN1zFwKkLY3sHpy5KA4j065kBYyR9h8yKAsoPbOsiUlEa41LHSlPpVYSql4CW3C3mwmgtjF6dC4fFt3XhEK9rw5El/hLC3lHXTdwEerXrWVgirubvww/NASL/uAWRCSiNcasB0pvfD2IbGNF6Pxfw65ctkeHJMVweP6ny5SJa+ihC2Frlg1nkge4838iAsKXnNlP2AX79BgWQ6SiNcKT7kdpbw7BhrsZa1zbASvWPyRiBwWB8fHllS7Z9o+6VCCBu7Pn12FFCif3sfhGXp3VO/1hAwqJ8/mYzSCFf6qh2vLsXY1bwpQRc9sI6UNZP3A9l7D8jGYxg+kYKHAhDCvi58EBYPNOrfQCGs7eTURUmQfcibWclUlEa40vPf80NdjL3/NsPfxTJufTrnLJB/UJesPI5t9bXH7qoIYVsn3v8iGRyvDyyBsIHz4z9LgdzDenqTiSiNcKEzRSh6UmEqtdgZzhTCIvbN/ioBKDektQeP5UbZa0waghB2tX/iWg0+PQbmQdjEH+OWaggeGeog01Aa4UJvv8+kIRj7/nnqbcESYpfNPkCa+m/VUzye1CYbabDRDSHs6eDoDUC2vn1yIGzkxNjlQMkPG5BZKI1wnaS81z0uP4Gxdl/xVVss4LewxXeAwM49i/HYpg0i95EnEcKWjo5ZCwQN6u6HsJmjY9YCTaYWI3NQGuE6a1rSchXG/gxJzHElC64WvSzsZ9JU6P2KD4/vQI0kvmuAEHZ0YuxyIO+I170QNvRz/5/A0WdUIJmB0gjXeXEjGxth7MOBDJyKa+m9C5bFAFna9K6iSAcXql/lrckIYUOn3/kiFYJGhGZB2FPql0OvQM4Joe7Yn9IIl7lYQOc7644pXeoEx0vgSjc/DztBmrKhr2UjXdx+5gTVt3sihO2Ej/k0BXIP6+mNsK+YSVPiocys2tie0giXeWcs74zG2I/P8MwuXCdla9i6JMD/1dAKivQRX383RX/MhRB2Ez1laixkH/JmVoS9XRi6DOg+OQCbUxrhKikFL7ldyIOxzov4rCOucvHThRdJUyu0lQ/pJaXtKnLvLYQQNpMUNvYG+A/u54+wv939D0LQ7ObYm9IIV9n4Io3XYywyKC4g3AeXSPw6bLMGcr/etTjpR/f9iKw7KiKEveh1Q0+BxxujciIyhZQ5b9+Fl2cFYWdKI1yl5RrWNsPYnDfo/RGucHzB4j8Bt0ahTRykp8lD8fimEULYy09v7QZav1cEkWlc7LUBAj7oqrAvpREuci1v8pMXHRircIhD5XC6u8sX7CFNga6d8pC+lraHTzshhK2ED10CPPNBVawi4ebNu3GxsbFxsXGaf8ji9R+yuCMeQC/rexPqziuKbSmNcJH33+bt9zB2sBKV9uNken/Yl3cBzxahz7mRzra+mMSEEQhhJwkzxt+F4pNeUrhYSvj5c+eu3kgTyQM5svr5+fr5+vn5+vn6+fn6+foFBGRB/IdbAxeD17SeCptSGuEaqcXOcLowxnrOZW53nOrWkrDfSFM6tH0O0t13LeLoOVshhI1s6P8HZBvf3YHrpFw4fuL0uXMXkng8XoFpAgLTBATe46X4u9vc4zw0XZALe1Ia4RrfP8/zWzF2Nzg661U/nCf1+wWrEwHfdl2rKNLfqnZJNFvljhD2cbr/t6B6TMiBayT/cezE8RMn4/l3Ablz587l7+2TxtvLnb/oxPj/FBsTHR3D/TkC0wQEpskWGJgtMNCbv5+YoR/DE581xJaURrhGu6/4qi3GFnalaxhOc3nRgvOkqdG1jS8ZYVHXVF5emgUhbCNmwrREeGZmeVwg8kia3+L5L74F7wl5IlcWDKXG3I2+Gx19N/pu9N3o6KiINNHcR5bAwGyB2QIDswUGZgsMzBbgwd/Bt51vQv+JXtiQ0giXuBWcmONKFozV2MtPVXGOpPVhm1KBnB27liRjzOwHneZ7IIRtrH/zAoRMeUXhZDcPHjh4+Dz/4l6kRImSxQrmVDy+lKiINJERaSIj0kRq/m++2QIDswVmCwzMFhjo5+/n76XIjK533ghPf1Ea+1Ea4RLTBzBwKsaOlebpIwpnOLngsxuAahD6kicZQ08YDX0/dEMIu7jSbxV4DhruizPdOXjgwIEL/JMqUq50yRJFPckwqXcjIu5ERtyJiLgTcSci4k409+Hh5+/n7+fv7+fv5+/n5+2Txtsni8Lu9KwhCWSZ8qbCbpRGuIIufZzjJTDWfwYz+5DxYlcs2EWafF065SejpA6ZCqPHKoSwiZQ5w6Ph+TlFcZqUY3v37j3FP2UtU7Zc2dK+OFly1J2IiDsREXciIu5ERNyJiOdBlI+3j4+Pt4+Pj5fD0+Hp8HR4ejo8HZ4OT0+Hw+HhcDg8HA4Ph8PDHev69dXfoM0CX2xGaYQr7KlJzd0Yiw+5nSU8OxlM/xL2RRTgaBZaz50ME/f6Cpg6ECHs4lCP/ZBr2msK54jYs3fvvmj+IWuFSpUqFnXDCuIjIiLuRNyJiIiOjoqKjoqOiuNRKYeHw+HwcDg8HA6PLF7e/+Tl/Zes/v7eCpeJHzoTSq0pir0ojXCFzotY9DrGvniN15aQse4sDTtCmhKhHXKRgc62OYjb3FCEsImY0dNTIXRSdpzh1s4dO45o/uJZoUqlisXdsa7k6Oio6KjoqKi7cbFxsbGxcbGxcbGxsUk8Pg//NAE5cqbJkTNnDnecal2HaPyXNMVWlEa4QGRQXEC4D8ae3c72OmSg1B1hqxIAn1e6VldkpNVdIvH9qjFC2MQPoWeh5Ce1yHg3t+/Y8Rv/EFy9RvXyXthTclxsbHxSYlJiUmJiUmJiUmJSYmJSYlJSclJSUnJSUnJSUnJSUnJSUlJyUlJyUpLmgdyDQkKCQ0JCCuTzwClOtjgBo8e4YSNKI1xgzhu88THG/ihGsd8VGSb8swVnSFO1a1t/MlTCkJlQZFUZhLCHqKGfgNeowZ5ksIQfN2/5hb+oMrVrVs+r+NtITYj7h/i4f4qJioqKjIpK4P/jUaBI4SJFChdxkMGiu6yEF5dkwz6URrhAhUMcKoexoZOZ/BYZJHlD2IYUIHuHrk+Twc62PQBt5/kjhD1s6n4Jai0oSobSxzZv2RHHPW7l69SplQ3xl4TIW3/e+vOe8Cs3+HeOEmXSPKnIOPqDYakUWlMG21Aa4Xy/VKTSfowl5r3huJybDHF6wWdXSVMvtJkXGW11l0iyTO+hEMIW7gxcBFkn9XIjA8X/8M36S/ylXP26NQMQ/6vEa1euXLl87vSZu/yXnGWq1aienYyyre0tsi5rjF0ojXC+Xp8wtzvGVr9MqxVkgOhVn20nTUjnLgXJcAlDZkKR5eURwh6+7nkV6s0vQMa59u03W2K5J7hB/Xq5EQ+kb5w5ffqPX08m809P1ahRo7gbGeHCywdx+7gnNqE0wuligqKzXvXD2Aub+K4B6S158+fr4gCPpqEN3cl4v3fcD23n+SOELUT0Wwz+07ooMsrZFWt+5h7PZxs1KKEQDyHh96NprvEPuRo2qp+b9Bf/+nIY+p4btqA0wuk+7UKXBRi7UFDnP+tGutK/fP7lDdIUC+34BE4Q996kJLJM76EQwhY2d7kCjT/JQwY5s2LFL9yTu3HT+r6IR3Jl7549vyTxl4qNGlZzkM5Sh02BVz71wg6URjhdjb3srYaxMeMYN4r09PuyZSdIk/2VDlUVzrD5jTNQdFl5hLCFu0PmgP/MjooMcXrFikPc83TTplXcEI8j7uCeXdvvck9Aszb1PUlfc95M5Zl12bEBpRHOdqw0pY8qTKUUuOx2IQ/p5syyZUdJ4/lS+xc8cYprA74Cx1sjvRHCFnZ1Ogv1FuYlI9xa9vlP3FOxdavCiPSQuGfTd4e5J7B563qepKf1bWMpvqEQ1qc0wtn6z2BGX4x924Qm35BOLixfdpB7anVoHYhzpMwdHgm1PimJELYQP2qqxmdKL0X6S9yweH0SaSq1blUIkY6ubd64IYo0gS2vYshKAAAgAElEQVQ61HEj/Rxocp1cGytieUojnCw+5HaW8OwYa76OdS+RHk6sXnOQe6q2bZ0HZzncYx/kmNJJIYQtHHntGNRcVIR0pw8u+vI2acq+2rogIt3Fb16xLpo0hUNfDyLdnH/xBP4ba2B1SiOc7MtXeW0Jxq7mTQm+4MHj0gdWrznJPRXatimA05wb+7mGTlNyIoQtpEwdmYTnhIHupLfoL+YeIs2Tr3Uoi8gg8d8t//ou4N4ktJEH6eROs11kXV8Xi1Ma4WTP/cD2OhibOJwRE3g8ybvWrLnMPRVati2C81ybMC8JSsypgxD2cKHjTii7pDTp7dDcpXcBrxYd63kgMlLcugVbSRPS7Y1cpI/YZlvxWtcAa1Ma4Vyni1L0pMJUatGznC3IY4jfsubrW6Rxe6Zl8/w40Z3JM+Ig29v9PBHCFvSSN6NQQ97JQvqK+/KT/aSp1L2tPyLjnV34aTjg1XHAU6SL+Fbf4rmyKZamNMK5hk1i0hCMbatH/c08sqhv12y8SxrPei1eyo0zxcyYHAlZBwwKRAh7uNVrBeRfXJv0Ff7x3FtA1td6VEA4SfKmsPUpQONBdRXpIPHVVXh80RorUxrhVEl5r3tcfgJjryxjWRsezY2vV29LJE3Wxi1e9MepYsImXgfPXm8/gRA2sbnTVeg4M4B0dfDDZclAuR6v+iOc6cLM+dFAhbfauPH4kl//ArfP2mNhSiOcavXLvLwSY3+GJOa8nIVHcGHN6h9TSZOjWYt6XjjXjVmzb4Nbp9H5EcIm4obOguxzW5GeUtZN3wV4tO1TRSGcLTJsxiWg1NiWbjy2lO4LUQs6Y11KI5zqhU1saoixaYMY9AEPSx9fs/oQ9+Rp2eIZD5zsj6mfxQOtxj+FEHbxS/sT0HBhMOkoYfGkM0D2nr2DES6RtHLqQaDsOy8pHlfqm3NwW9YKy1Ia4UwXCur8Z90wpUv+zomneDinv/zyBPc81aJlRYWz/Tx5jQaPdoPLIIRdpEwenYzXlN6K9HN33tRwoET/9j4Il9FbR/8EVBj3ouIx6f4zcXzTEKtSGuFMY8YxbhTGdtei1k4eRviyL/dzT6UWLUrgdMnrp+0CfLv3z4sQtnGu426osKQE6ef2RzNuA/UGN1AIl9LfjToA1JhemceUGvopPltqYFFKI5wopcBltwt5MPb6YhZ3wNjtVV9u16Sp1ap5PpzvetjcS8CT/XoGIoRt6E/7R+M2bIwn6ebGB3PuAi3eroxwPb1+9GGg43shPJ7ktqsJ2FEWa1Ia4UQbGtPkG4xFBMcFhntjJmVT2LdJpCn/atu8OJ/ePXtVEvDUW69lQQj7uNF9HRT8vCbp5vYHM2PA/dWhpRDWoNeM+B18hg325rEkNN1C7l3FsCSlEU7UYi1rm2Fsdm/enIWRCwsXXiZN0XbtnsIFopfO/hVQTXo1dEMIG1nX7SZ0me5HeomcPi0KsnR5qyDCOpLmjL0DeSe3VTyOmPp7ybc7L1akNMJ5ruZNCbrogSld4TCHy/JgSV/P36yBoHbtKiqcTx8M+yIayBnaowBC2ElU/08h1/xmpJe7H02+A47uw4MR1nJr7JwUeHZuUR7HnbpHKb4rFxakNMJ5Jg5n+LsYO1CZyvt4oNPzF90A3Bp3e8EDF7i9NOwoaWq80SoLQtjKjtcvQLN5uUkniXPH3wT3LiPzIazn+MDvwGv0YAeP4Vqt09TY5oX1KI1wmtSiZzlTCGM95jGvGw/w4+SvSVOga+cQXCB1e9jqBCDrq2+UQwh7iR85TeM3o5MifejVw06DW/vRhRHW9G3vC1AmrDKP4UKNcNovVliO0gin2VaPelswdjfobtarftxP6ropewFH827Pu+ECVxYtPEua6l3b+CGEzRzu8BvU/qwA6WTP4L1A27FPISwrZvT0VNz6jvfl0R2sFce7w7EcpRFO88oylrXB2IJQQudzH/GLp54C8vTplBsXSPp2wYZUIEfHrqUQwm5SJo9JwvO9AW6kjz+GrQbqTqmEsLQD3Q5D/s9r8ehWvwwrWmE1SiOc5c+QxJyXs2Cs2s/8XIX/0+05s64DpYe09cQF/liw6Dqg6oe+lAUhbOf063ug7JLSpI+Idz5KhhKTGyuExSVNGxuP27CxDh7ZxOF476yExSiNcJbR4xn0AcZ+LUOZw4r/Q+SkmTHAs281Ujhf7KqwnaTJ26VzfoSwHz1/YAxuQ8d6ki5SP337JjwxrosHwgZOd90JlZYW41HpTosJ2pcHa1Ea4STaDY6XwFi/mcx6k/9d4txxf4Jbq7cq4QK/hC2NAhzNutZ3RwgbuthtMxRaXJP08VOfA+A9ZLAvwh5SpoxKxmd6qOIRJTz/I+V3ZcVSlEY4yZQhoDEWH3zHKzwb/xu96u3T4Nl1UGGc784XYYdJU6Jrh9wIYUc6bFA0dJ/qS7q4NuwzoM2UfAj7OPDaKWi2IAeP6GbVc7RcqbASpRFOUuAC9TdjbGl72n/O/+bHt/YC7d4tiNPpHQtWxgM+bUOrK4SwpQvdtkDIvBdJF8kfjY6G0rPqImwlZtBcyL+qIo/oWI0opg3ASpRGOEdkUBy3smOs7g521Ob/d2rYGqDOlMo43dVFC0+TpkpoW3+EsCc9f3A0dJkaSLo42P0XCBzXywNhN+tC/yTL7C48ovVN8dhVDQtRGuEcc97gzVkYO1Wc4icU/1PUiDkpUGJyY4WTJW8M+zYFyN6h69MIYVfnu22FPPMbkS6iR81KRYW+mwthQ5db/wTdZ2bh0QyZQr5D2bEOpRHOUeEQh8tibMgUpgzmf9ocegmeHNfZAyc7vXDRVdLU69rcCyHsKmXWiFgI/SCAdLH2zSvw9NzqCHtKGDAHqqzMyyNJevZHmqxzwzKURjjFwUpU3oexxDw3HVdy8Z8iB4eBz5BBvjhX3Oqw7aQJ6dy5EELY12+hP0Pe+Q1JF5ffXAfeYwc4ELb1Wc94cq6swyO5XP5PJr+FZSiNcIqec5nXDWOrWtF6Of9pU7fL8OyCgjjX4bClEYBH09CG7ghhXwnvTUyC3u/5kx70/MHR0Gh2QYSdHWp5HsfC9jySTS/gvqMmVqE0whnuBkdnveqHsUbfsbk+/y5i0ELwndLdDWeK/GLBQdIUC+34BELY2Z7QE/BUWE3Sxdlu38OTM1orhL3dfvU7GDdS8ShGvEfI4ZxYhNIIZ/i0C6HzMXa+kC5wxo1/s739FagXlh8n0rvDVsQB3q1Dn1EIYWcRI+ZoPIaN8CI9pH48LBa6fhCIsL3kN+dC57kOHkFyvR28uF5hDUojnKHGXn6ugrHR4xk/kv+WOmlkKn5TQxXOc/2zBadIUzG0XQBC2Jr+asB1qBxWhnRxqutuyDe/ASIz0FOGQr2VATyCq+VuMD8Ua1Aa4QTHSvP0EYWp5AJX3C6G8F/iXlsDz32aD6dJ/i5sfTIQ2L5rOYSwuVNvbIOs4/u6kx5Spo+Mhzfe90NkEss7JlBqUx4ewcYX8fs1P5agNMIJ+s9gZh+MrW9K06/5L3++tBc1epQ7znJ24aIrpHk2tIU3Qthc/PsTE6Hl9LykizOddkOhBXURmcePzW5RYFshHkHoAp7b4oYVKI3IePEht73Cs2Gs2dd83ZR/OdvoD3yXv4CTxK9ZsI00QZ26FEEI29vyxmnI/1ET0oWeOzgG1W9CVkRmcrrRGUK2FefhRT59idm9sAKlERnvy1dp/znGwvOlBF/w4J/2N7lB0IZyOMfRBZ/fAdwbh77ggRC2d23gl+AxeGRW0sXlrpuh4KLaiEzmar3j5N76NA9vSwOyHi2EBSiNyHjP/cCO2hgbP5qR4/mnb9vEUmJjfpwhYnnYftIUDn09CCHsL+WT4VHwzCelSBd6SZ9I6DHFD5Hp3GxwmOybK/Lwen1Cne/dcD2lERnudFGK/a4wleIB5wrwD/N7plJ7bTYyXuLGJd8kAF6tutZRCJEJHOx5AHJMed2NdPFnj9UQvKARIjO602gf/htr8NCiy5xnRl9cT2lEhhs2iclvYezt90HzFz1mPLT5zIuMpn/6fNlt0pTr9mogQmQGkaM+ToUuk3KSPjZ2uQavzcqGyJyimuzCd2tVHtoPz+F9pCgupzQioyXlve64nBtjCtp+xT16wAwYOMWNDPbH0iVnSJO7XccKCJEp6KVDrkKpObVIH7FvzYYcc19GZFqxzbeQbcfTPLS+s2iwSeFqSiMy2uqXabUCY3+GJBLtyz0fvIWa1p+MdW75skOk8W7eob4HQmQOB/vsBe8xAzxJH/vbn4JGC4MQmVhc4x94YncRHlZMqQusfBlXUxqR0V7cyHcNMDZtEG9N5p4NTTQLO5ORLi1ftp806rkOLfwRIpO4OSJMw0szCpA+kieOS8b7g14KkalF19tH/l15eVhrWpL3RFZcTGlEBrtYQOc/64YpXfJ3ThYjzR+VI3lnNBnn8uple7inUtt2IQiRWSTPHh0JxWc0JJ2c6bAXKi0pjsjsbtf5jeI7c/OQ9IubePs9XExpRAYb+w7jRmFsdy1q7yBNdLXjtFypyCCnVq/Zxz3l2rQpjBCZx/d9j4HfmD6epA+9oH8MbsNHOxCZ39VaZyi3PYCH9EfpRMdvxXAtpREZK6XgJbcLeTD2+mI+bw/oVqsp+ZMfGUEfWr3mOPeUatumOEJkIhcGrQI6TXySdHKz2zoo/Hl1xN/C+VqX/x978AEQZd0AcPj3Hnsq3ClLEBAERUURTXDlSHOUO0dZadP62lnZzrK962t9pZblyNyrnOUAJ4oKgiJLpt4BArK59ztEzcrqBY5j/Z+HG9eZU0PPz2PYzxINSpIR6tfGUYxeh2J57sWtM2yAec/T6oA/xle5Z+XqFKp0GzcpCEFoTorffrMEen1yHcayYeZZuPsDe4QWIq5vDv/5hBoq6pTKivE0KElGqF/jV7HmZhT77EEe+hjYcJMsrR+JsZVuXbX2HAZS2PixHRDqRC4qLikpLqlSpq/UV+or9ZWyuZm5ubmZubm5tZ2tgZ2VhGAq8sonUqDtm3eoMJILT3wJmq/HILQcv91Qzif/oYZWTsAr1o6GJMkI9SrLs8It1Ryl5JAjHO0Kp3qd57XnMK6Cjas2FmBgPmTcGFeEmtLn63Q5uhxdbn5+QX5BfkGBnn8n2To4OTk7OTk5Ozm7urqYI9SbmEe2gflDL7XCWPZNPwWjvnFBaEkWzkC1fgQ1I4/4hRfm0pAkGaFevTmHZ+eh2MFeXLcXCvrEMv4nCSM6t3bV1lIMbEeMG9UaQamy7CpZ2dnZ53L01JXUxs3NzdXN08e7FYJxZb/0Pz0M/agzxlI+93U9tu/fKyG0LHPexCGiCzVzsku53WkXGpAkI9QnfcfTnPZFsfu+4n93w93f0HmvA0aTumrVLj0GzjeNG2aD8O8KzqSnp6Wnp6ed5drsHB0cHWytrW2sra1trC3MVGYqM5WZSqqsqKyoqKyoLC+5UFR0oaio6EJ+biF/5eTj7ePj3aGDBYIxFH/4RgF4fzBGwlhip0dB70UdEVoa/aSVtD/Qhpp56FMe+pgGJMkI9Wn7EIZuQbFCt0L7THsiw3E86I+RnFy+6hBVPMaOG2CB8E/knJTklJSU5JRc/sy2rVrtrHZWO6udWjk62JuhXFlebk5ubo4uKzMzM6uCq5l36BTYKTDQEaEu9EvnpILDnEdtMBb9x8+UYv7iHHOElqdowCGGb1RRI9kdLlic9KbhSDJCfZq6lGW3oNj8u7jnK+SwfXz8EEZxZtmSKKp0HDc+VIXwdypST58+nXg6sYA/MHNt5+5SxdXFHqPQ52RmZqYkJyWd0fM7905dg4M7WyHUyu7HD4DqnldcMJrUGdsh8PueCC1SRo+zvPo8NfPCa9z+LQ1HkhHqkc69TJNmhWJhe9nfi1Xj6XLYnLo799OSXVQJGTe+k4RwLZWpJw0SUiq5ilm79l7tPDzaebiYUV/K05KSk07FxZdwmXlgsIELQs0kPL0SGPFOEEYjf/+ffHjkDRuEFmr7UFm1ZTA1ct43RzrahQYjyQj16MPHePw9FDveleDDUkW3E6wbTV2Vrp2/pRKDnlMntkf4q/zY2JMn4xPK+J2Zt0977/btvd3NMZXK1LgTcSfitFzmERraq6cGQaHcVz8th67vDsN4tPevgHYLhyC0XK++iMthN2rk3dncvIYGI8kI9UfuEktsJxR75GM++Q8LZtJ3l0TdxH7znRaDwKlTOiL8SUFsTExM7Bl+Z9/BwLeDlzkN5Gy0wYkKLvEODQ3t5Yjwb8o+fyUXXF6bYYbxbLgrG277pDVCC6Yf+QsDt5pTE8X+6ewJp6FIMkL9iehLv10oVuKea53hVNLxDLv6URcXfvw6AgOvKVODJYSrFMTGxsTEnOEKS7+OVdpKNAKlJ6KjD0flU00KCusTFqBC+FvymtkJYPPEUw4YT+ETX4HzlxMRWrZzPdJ5dh418r97GfCrRAORZIT6M2Mh396OYotvZfp3fPA4o9ZTB0kfLigALMffPUiFcFnZiSPHY2JSuaJVUFDnTh29zGhk9AkHDx6MukC11teFhV3XCuFads/ZDdw+rx1GFHH7aRj5tRtCSxcxsELaHU5NVASdZOsQGogkI9Sb8+5FrTJsUWzQr+zsn++rk450o9b2v7tCDwTdc5saoVpOdPSRI7HlXNYqqHNQUGd3icarMu7g/sijlVwkdQoL69NJhfAH0c9tAAa+1xMjKnn5HT12798jIQhvPIv/EVtqYulUbthMA5FkhHrzxSwe+C+KnepIwAnpxVe59XtqSb/+3V2AzbR7eksIBlmHDh06fIbLHIOCgjoHuUs0CRcORkZGnqNaq+v6hPVpjXDJ6ReXyBD4xhgJI9o34wSEfeeHIEBF/708/BE1URGQyMGeNAxJRqg3PaM43B3Fnn6bd57M7nDBIs6XWtH/+HI84PLQ/WoEsg4ZpHOJWWBw925d3CWaGDkpMnLvkUqqdQ4PC++oQsh89X8V4PnKdHOMqOTF9/RYvPyUOYJQJb57CdsHURNfzOKWZTQMSUaoL1E9CT2AYmWeZy3S2zzxPv/5hFrZ8vRhoNMTt1rT0hUe2rd/XxqXOHQP7t49yJqmq+hg5N7IbKo59QkP6+1AS5b19ucloHnufmuMKXJmHPRc2AVBuOSjR/E+6kANFHufVcX70SAkGaG+zPqCL+9FsRUTmfRjiXuudbILtXDwmW3AgKdGqGjRKmP27d8Xo6daq5CePXt2UNEMyMmRkZFHKrlI1TUsPKyDRIuU+fYXJWD/5GOOGFPxC+/LWL482xxBuEw/+Dfu/ZKaeP057vuCBiHJCPXkgluBXaYDio34mc03LJvC9O+oueRnlgE93rqBluz8vj0RewupZh8a2jPUV0WzcuFgZESklmptwsLDQm1pYTLf/qIEbGY90waj2nX3Sei1IAhBuEpS1wv8OpAayPMqsEp2pSFIMkI9WTiDu75GsRQf2SdBNW41W4dQU/ovZ18A33m3qGip5MSIiD3HZS4y63pd7+sCzWie5NMRkRHH9Vxk3j0sPMxLoqVIe++LErCZNdsVo8p/+guwnPuEOYLwB58/QNBhC2pg9rvMeZ2GIMkI9aRvBJF9UOylubz23Pm2ZS7pZtRQ0l07oM2L91rSMulP7Ny5M4Nq7uFhvUNsae4K9kdE7s2lmlvYdb16OtL8xb7zQznYzJrtinGtm5UO183vjCD8SWXYAd59ghpI9ylvlepIA5BkhPoR04UuRyWUqvROU6V6fHsnD31Mzeg/f/oC3PuOIy1RRfTOnbt0XKTqHh7e11OipdDHR0ZGxFJNCuzVu1ewFc3Y7rfXATazZrtiXGcfXga2r//HDEH4i4O9Zfs4D2rg7m/44FEagCQj1I/HPuSjh1Fsw2huWsuIn9kTTo3k3bIF2n89lJZHH71j+84CLrIP7x/e256WJ3dfZOTeAqpZBPfq3SvQjGZIv/6tCKD1gw+5YFzyosdyYNiX3gjCtcz6gslLqYETnQk4IWF6koxQL0o8cqwynFFs3GrW3qR1rfRKUlETKaNiYNZbDrQw8ont23/L4SLn/gMGdDen5aqMO7D/QHQ51ex79urdq71Ec5Kz8PMEoN3jdztgZKcf2AzOH94mIQjXlBOgZesQauD63/h1IKYnyQj1YulUbv0exTI9K91TzL+8n9lvUxOHRmehWTqEliVj8+bt2VzUduDAgZ1VCJQc3X/gQJxMNecQgw4qmoVDny0uAbo8NcUCIyt9Z14JTPmoLYLwd+bfReBRC5RbMo0pSzA9SUaoF0O2s+N6FHvjWZ5/lUG/EtWDGtg4qQj/jX60IMW7Nv9ynIucrh88qLOE8Lv8Q/sPHEjlEoceISEhAeY0aSU//nc/BkMfHSlhbDtmxUO7z0cjCH9P3y+SL+5DudJ2Wou0tpicJCPUh9N++MdLKKX3TyTRJ9ND7hgnodzegWX0Xa2hpZBjf/llZwlV7AcMHtzNDOEasg/sP3Qom0tsgkNCQoIsaZL0u79fnge0unNWAEZ39slFYPboy/YIwj/ZG4Zbgi3KPf02bz2FyUkyQn2Y8yZvPYVi24Zyw2YWzuC511AuPTSLiYusaRl0W3/ZnE4Vqdew4ddZIPyTzCiDVC6x6BIc3C1YTdMSt+iHFAyCH5xmh9Hpv346D8K+6IYg/Ivxq3h9Dsol+ON7SoWpSTJCPSj3zDZPc0GxKcv4cRK3/cCufihWPPAAA7dY0AKU7/1l80GZKh7Dhw1VIyiiPRwVFZXAZe7Bwd2CO5rTJCSsXXwIA7sJ94VJGF/0/XvB6a27VAjCvznRRd8q0Rnlhm1h8w2YmiQj1INV45nwE4ppPcrapFnKbtn2ORYoNmMh7Q+0odk7u3H95gKqWA8cPryThFAj549ERR2K13OJVVC34OBuahqzish16+IwUA2bPsaOelDw8keVcPs7bREEBe6az+y3UW7FRMavwNQkGaEejNrIz8NR7IPHefIdkny5cROK7e6PbUQwzZt8bP26fTJVug4f1t8aoXaKYo5GH43O4zKPbkFBQZ3taIS029ZvzKFKz9umuFIf5NUPp0HA54MQBEXO+Jdan2qHYuVeWWZprpiYJCMY3xlvvVeiGUrJQSc4EcjKCTz/KkrJ/SL44j6as5Id69enUkU9bPgN7gh1JJ85Gh199KTMZT5BBp1saDRyf9ux4xhVVGE3jQmkfiQ/tB6sn3/SCkFQaPa73Pslyj37Bh8/hIlJMoLxvfIyr7yIYnv60X8nvPgqK8aj1OpxBB4zp9nK3LB+SxFVgm4a3ccMwViKYqKPRkef5zLJN6hLUFCANQ1MF/HrjiMyVRxuvGmEhnpS9sErxXDjpx0QBMVyfPItk9xR7HhXwvdgYpKMYHSVPmdUKe1Q7M5v+W463LSe074oVNE1jtVjaJ7kw+vWH6SK5fU3jfJBMDo5LcYgtpDLVH6BAYGBAWoaghy/J2JPPBepQgYNG2BJvfn5kZPg/tEECUGogWfeYvbbKNf1OMntMS1JRjC6TSMZtR7FzrsVt86wAc80xzwJhX6aRN9dEs1Q2Y5V6zKo0nbUTUMdEOqP/kyMQWwRV2gCAgMDAn3MMZkLByP3RORwkRQ8aFD/1tSjhMfXgeqhuY4IQo1k+pTapzqh2OvP8ebTmJYkIxjdhJWsHoNinz/Afz4BbRsG/IZSE1byyzCanQs/r9xwnirdR4/upUIwAX1yjEFcMVdY+AUGBAb4O0vUK/l0ZOTeo5VcZBHSt99AZ+pV4evvlUHfT3ogCDV1/5fMexbFEjsQfATTkmQEY8tuV+GaaoFiIYeJ7gZbb+Dhj1Aov22pS7oZzYtu3arNJRhYDblplCeCSenPxMfFxcdl8LvWfn5+/n5+bSSMr3D/3si9Wqqpw/uGh9pQz+Sls9PB/Z2pEoJQYwkB+jYpNijWZx+xnTApSUYwtreeYc7rKHYolF77gXeeYsGdKLTodh76mOYkbfWq3yoxaDV63I12CA0k/2R8XFz8yVJ+5+B3kZuEccinIiP3HtNzkdSlT1h4R4n6d+Sh3WD5+HP2CEJtTFnGfx9AsQ8f48VXMClJRjAyuWMCCR1Q7P4v+eoe4NbFHO6OQqM2siecZiN+1coDVHEdM/56S4SGVpkaFx+fkJCq53e2HXx9fH18fGypPTnp8OGofTlUc+4TFtbLEZPQPf+VHka/748g1M7hEHwSVCiV0U72j5cwJUlGMLIdgxmyFcUK3QvsMh2A3gekYiuUyWtT4ZWkolmQD69YdYIqHcaN66NCaDxKkxNOJSQkJFdylba+3l5enl5eThI1UZQQfTjqyHmqqbqG9QnzlzCRiq+ezwX/D0ciCLU2bAsbR6DY4B0c7IkpSTKCkU1bwtLJKLZgJnf/DwPXbPd0FNp6A//5hGZAPrT8p0SqBI8f10VCaIzKU04lGCRWcDU7T08314taS/w9uSD91MlTp06lcZkmrE9YL3tM6LeHj4L9C49aIgi1t3ocN69Bsa/u44W5mJIkIxiXzr1MnW6FYuGR7OsNlNgQFoFC785mwZ00dfKB5T8lYyD1HTfWF6GRq0xPTDJIzORPLJ1aV2nVytrC0tLC0lJVVlpWWlpWmnvu7Lmz50r5nUePHiE9vCRM6szsZcD0N90RhLqo8E5XJXmhVKY7IYcwJUlGMK6PHuWx91EspgtdoyUgw4Oxq1Doth843J0mTd6//KcUDMwGTRzrgtB0FKelpqaeSU1NLUY5jb9/5x492mByhW+9Vwwhn4QjCHX0ysu8MBfFekaR4YYJSTKCUcldY4jthGKPfsTHD2EQ14nbv0WhoFiLQkuaLnnf8p9SMTAbPGmcBqFJknOzs6rl5eVzbeZt2rR18fP393eiQVQueD4bNK/PNEMQ6iq9faVbigVKvfAa38zEhCQZwagiw+m7G8VKPHKsM5wwONCb/3yCMsX2+u6Haar0e5evOGnBCIsAACAASURBVIOB+ZBJYzQIzUFl/vm8vLyy8rKysvKySksrKytLK6tWbdu0VtGQNj95DCwefNEJQTCC8av4aQJK7Q1j/ApMSJIRjGrmAhbegWKLb+W2RVTZNpQ5r6NMVE/uXECTJO9f+lMaBuZDJ41RIwj1J2b2JmD8W34IglFsGcYNm1Gq0lXroLXEdCQZwZjy3YocM21RbPAOfhtAldXjeOMZlNk8nBfm0vTIx5YuTcLA/IZJY5xp+ioLC0qKS0qKS4pLKir1lZX6Sj1m5mbm5mbmFrbV7CwRGsTZl77SQ+j7/REEI9H7J6rS3FBq+vdsG4zpSDKCMX15P7M+Q7EEfzrGSVT57g4+fRBlVkzk7dk0NSeXLj2BgcUNk8Y40TQVaXN0uhxdji6vID+/IP8C/87G6SLntm6ubq6WCKZR/OEbBeD5xlQVgmA0L7zGh4+g1JJpPP4epiPJCMYUeoioHij2zFu8PZuL/vsfvpuOMgtm8vn9NCkpy5YexkA1ZMo4J5qWiqy0jGyDrOzsC9SNs5url4+3j7ebGUI90i+dkwr2cx6zQRCM6ERneu9DqZw2+sATmI4kIxjR4RB6HkSxcs9si7S2XPTmHFaNRZmPH+GHaTQdWcuXRlCl/5SJbWkqKjOTU9LS0tPSs/Rcg8rB0dHB0d7W2sba2sbaysJMZaYyU5nJlZUVlRWVlWVF1Qpzc3OL+TOL9t4dAwM7eUgI9WD34wdAdc8rLgiCcfU4QkIHlOq3hyRvTEaSEYzogc/54j4UWzmBicup9uwbbB2CMq+9wNqbaCJ0K5f+qseg15RJnjQBctap0ykpySlnKvgTJxcXjdpZ7axWO7duZSuhVGlubm5OVlZmVmZWZglXsQ/oFNilm7eEYEQJz6wAbnynC4JgbG8/zavPo9QrL/PddExGkhGM54J7vm2mI4qN3MQvw6g25012XI8yc95k22Cagvw1SzdXYNB1yuQONHJy5qmEhFMJCRe4muTSzqOdu6uLi0tbK+pMzktJTk5KTkoq5ArHbsHdgrvYIRhDxtxvKqDLu8MRBONLbU+nGAmFtg/hnq8wGUlGMJ5v72TGfBRL9ZbbJ6qo9vw8tgxFmXnPs3oMjV7xhqUbSjDwmzIliEZMn3kqIeFUQkIRV2nd3rt9e8927VwtqAeyLj7uRFxckp5LpIDQ0NDudgh1kvvWx8XQ9rUZ5ghCfRiwi8PdUaioVUXgCUxGkhGMp98eIsJQ7OVXmPsCl7z8ChtHoMyX9/P1XTRuZZuXrinEwHPylBCJRkqfHBMbExNXxO/Mffz8O/h4t3fEBEpOnTgaHX2GS1SdQ0NDu1sh1M6Fj986Dw5PPO6AINSPzx7k5ZdQqs8+zrbBVCQZwWhigwg6JqFUpc8ZVUo7LvngcRZPRZmVE3jjGRox/a7Fy3MxaHvLlDAVjZE+JSYmJvZEEVeY+/r5+/n7tTfH1HKORh89cqycalYhYX3C2iHUVNnXr2aB1QNz2iAI9eWMF732o9ST77FqLKYiyQhG8/gHfPgIim0cxeh1XLbodj5+CGV2DuSJd2ms5COLl6Rj4DRhykBzGh055XhsTMyJIi5T+Qb4+/n7eZnTkEqPHzx48HgF1dqF9QkLsUJQrPzbecmguvMlLwShHnWPJssFhdaM5fH3MBVJRjCWUg+dVYYzio1bzZqbueznEbwwF2VOdOb2b2mcEpYsjsPAbszUYZY0MpXxhw9HHc7jMlWHzkFBQQHWNBbFRw/u23uKapYhfcLC2kkI/67823nJwIRXOyEI9eq515k/A4V0Gnrvw1QkGcFYlk5l6mIUy2pX6ZZqzmUHezHrM5TRtmHwNhqhrGWL92NgPmLaTXY0KqUxUYejjhZxidQhqHNQUIANjZB2797I/YVUcw8LCwuxRvgn5d/OSwZunNsLQahnEX2Z8BNKBcWa59lhIpKMYCxDt7F9EIq9OYdn53FFijcTl6OM7J7VKkdFI3N+5eLtegwGTpugphEpjI46HBVTwSVuId2COgfa0KhVHt8bGXmSapYhYeFhHgjXVv7da8nAjS/1QRDqXaWLzkFriUL3fcXWIZiIJCMYyWk//E5KKKXveJrTvlxxwZ7rd6DQ2DWcCKQxKdm4eH0pBt1vnexJo1F2bN/+ffEyl/iG9Ajp4UJTodsXuXdfAdU8w8PCulsi/MmF+e+lADe+1AdBMIXp37NtMAotup15z2IikoxgJM++wZtPo9j2IQzdwlVsi4OOo9Drz/Ht7TQalTsWr8jHwHfa1M40EnLSvv37okqppuoU0iOkeyuanMrYyMiIk1SzDg0LD3NBuEL73090wI0v9UEQTGPpVGa/jUIxXbhlGSYiyQjGUe6VZZ7mgmJTl7LsFq7idcYlC4W2DeXBT2kc5AOLl2Vh0HbKtN4SjUJpVERERBbVLLqFhPToaksTpt0bGbmviGo+4WFh3cwRIPn9b4qAES/2QRBM5awLfSJRqMK+NCAOE5FkBONYPY7xK1BM61GmSbPiKqGHVCUWKHPeSQ49QGMQv3hxAgYOE6YNMqcx0O6OiDhYSrUO113Xu7s1zUHFsciIyESq2fYOC++joWWLfntZJZhNnd0NQTChTnHm521RKPSQqsAW05BkBOMYvYGNI1Dsw8d44l2udstyTvqjUNfj0hkPGtrZJd8fxMBy1LRRNjQCGTt37oyhmmNYn+t6q2lesiMjIw+UUM0/rHevYCtapoq1/90O2N79eHsEwaTu/R/bBqPQXfPZ1xvTkGQEo0hrr/dKNEMpuUsssZ242nOvs2EkCr38Cu89ToMqWrNocyUgDZ42vjUNL+XXnb+dplqH8L7hnc1onsqiIyMiU6lmEdy7V+8AM1qY7P99mQZoHnpQjSCY2PfTeellFPr4Eb68F9OQZASjmPsSL7+EYhF96beLP/juDt54BoXiAwk5RMOp3PH9ikIMQm6d4k6D0+7YtvU0F5mF9O8X7kJzlx4ZGXmojGr2ob169faSaCHkiM+WlwP+j8ywRRBMLsWbwdtQ6LfreeC/mIYkIxhDpW+qKtkTxWYs5Nvb+YPYIMatRKnQQ5wIpIEcXbQ4AwOvW2/rTEO7sGvbtiMyVSyvGzAgzIGWouTo/gP747ikTe9evXtpaPYKlv33CKAa/eBQFYLQENqn2uRZokyeE313YxqSjGAMP49g5AYUO+9W3CrDlj/Qty7wSEOpDx7nhbk0hPTF3x/FwHHS9P4qGlb5ga3bIsupYhE25Pre1rQ45w8d2H/gDJe0DzFwpdmq2Pbd6iJAfc993ghCA7ntByL7oJB3ikOeCpOQZARjmLCSleNQ7ItZPPgpfzJkO2keKJTRTm6XYIWpFaxctF0GzEfedpM1DUo+vm3br4Vc1GPI0H52tFxZBw7sP5DDJW4hBp4SzY0cvWhxFga9H7zFGkFoMJ89yKcPotCYtZz2xSQkGcEIsttVuJyxQLGeURzuzp88+wYrxqPUzev47wOYlLx7/o9FGITddouGBpW7ZePP2VzUYeiQQRoEOfHAgf1HCrlEHWLgq6LZSP9h0XEMnKbMDEUQGlJkOHf/D4Wee52NIzAJSUYwgref5pk3UCyqJ6EH+LPV43j6TZQ6FIr7aWtMJ/27Bacw6DD9Vj8akhy9aWNkJVXaDhk6pD3CFfqEKINcLnHs0SM4uJM1Td7JtWt3y4DF6OkjrRCEhlXoKIceQKH5d/Hpg5iEJCPUnRxwioQOKDbrC768lz/LdOf6HSg2dg0fPYyJlK2b/7MeaDX1juskGlD+1o2bMqhiO2jokC4Swl/IyVFRUYfOcYlZYLfgbsFuEk1UReTatSepEj79FmcEoeEFnLQqNEeZXwfx+HuYhCQj1N2vgxi8DcUuuBXYZTrwF15n7PPMUOpID1xP22IKx+Z/r8VgyMxxNjQcOWbTxt0VVAkYObK/FcLfkzOiDNK4TB3cLTi4kzVNTMHmtRt0VAmYcpsfgtAoTP6R40Eok9qecSsxCUlGqLtbF7NkCootmMldX/NXE1dwJBjFJq7gxVeod3lL5h/EwGvGHT40nAtbN208QxXrwSNH+CIocTY6+mj0iXIuMQvsFtwlyEtFk1ASuX3HvgoMVP1uvqkjgtBYvPEsP0xDmUqb8uAjmIQkI9RZjnupc7o1ivWNILIPf/XRo7zzJIod715ptjeUeqX/9ZuVJYDV+JmDVTSYrHVrtpZSpcPIkQNtEGqiLO5odPTRbC6z69wlKCionUQjVnZg+46IUqrY33jzSDWC0IhsGsnst1HIP8HhvIQpSDJCnX38CI9+gGIxXehyVOKv4gMZvA3lXppLp0M21J+UbxckYxBy11QnGooct2bNPhkDy+tHjvRHqJ3so9FHo0+Uc5lj5yADd4lGp2j/nl27irio4w03D7SiSagsLCwoKCwoLCgoLi0pKS0pLSkpr6gor6hSKSPLyDKSeRUz899Z2FSxtbGxsbUxsLWxMUNo7DI8GP4zCg3fzDkNpiDJCHUldztOTGcUe+xDPnqYa5B9k82z1ChW3ieKx96nnpSsWrBVBpxvm9GdhlIZuWbNKaq43Tx6kB1C3ZTFRcfExCRxRevOQUGBgZ4qGomMPXsiDldwkffgQYM8aKzKcg1ycnNz8wsKCwoKCwqKMRJLRwdHBwdHB0cHRwcHRwdHB0dHS4RGRXYs9DuFQrO+YF9vTEGSEepqbxjhe1CsxCPHKsOZa3nifb68F+ViQ0qlbYOoB/Lh+T/kAdLwmTdb0UCKtqxZf44qXcaM6alCMJILJ2IMUrjCpmNgYEBgRzsaUsXRvRF7kqnmPnjQIB8aGbnw3O8uoIj5RSpJQpKQJH1lxUWV1Ihtayen1k6tnZxaOzm1dnKykxAaVvBR82JzlHnnKZZMwRQkGaGu7prPgjtRbMk0bv2eazoUysBfqYH3n0C9JwBj0/0wPxoD35m3e9JAzq5fs6UYA1X/MTd3QDC6ghMxBmf4nWdgQGBAoIeEyWXvjYw8WES1zn37hvtJNBJyTmZGZsbZc1VK+RuWDvYO9g4O9g72Dg729nZW1tbWVtbWVlbmKolrkvUVl5QVFxcXFVcpKjYoKi6+UFCQX8o/MW/trNao1Rq1Rq1RO1sgmNz4VSR5o8yKicx7FlOQZIQ6yncrcsywQ7Eh2/l1INckd4on1RPl9MO30j7CHWOq3DJ/TRlgM2lmfxUNI33lT7v1GNgNHzNKjVB/8mNj4+PiTldyhX3HAD+DNhImUR4duTcyiWo2vfv27eNMw5N1GZkZmRmZmRmZZfyVpG6jdrqklYODvSVGVlZQkF+QX5BfUJBfkF+Ql5ebV8TfaaXWqNUatUat1qjV1gimMPtdtg5Bmb1hPPQxpiDJCHX01X3c/zmKnfbDP17i2ua+xNuzqYHzA6PptrMVRpOwcGE6Bn1mTnakYSStWLGXKi43jxlijWACZYnxcfFxcbn8ztHvIleJ+pMZuTfyYAnVvMP6hHW3oEFVZJ45k3bmTHpmZjl/ZqZpY9C2TRVnM0yt9Hxubl5ubl5uXm5uXm7Oea7NTq1Ra9RqjVqj1mhsEerJF7P48l6UOe3HlCWYgiQj1FGvgxwKQbE5b/LWU/yNBH+Cj1ATmeHJDPzZGqO4sGL+bxi0vX1GZxpG/IqfDlOl4/gxvVUIpiRr4+Lj4uIT9fzOroOfv5+fr4cZxnXu8OGofSlUswkNC+vjSoPRZ51JO2OQlqHnT9Tubu5ubu4ubdq0VtGIlOfotDqtTqvTaXXaXJlrstZo1BqNRq3RqDUaWwTj2Tycp99EmfxWDNmKKUgyQt0c6UHIIRQr98w2T3Ph71y3n+NB1MTJvloGrXCizuR985cWAGajZo60oCHIx1asiKFK1wkTgiSEhlGalFAluZLfWXj5+Pj6+PhoJOpKTj18+HBUOpf4hvUJ62ZBgyhNTU5OSU45k17BH7Vxd3N3c3N3c3exogmozNXptDqtTqfVaXW6Sq7JWqNRazQatUaj1mhsEerktB8Tl6OMbF0WfARTkGSEunnwMz6/H8VWjWfCT/ytjx7l2XnUyIFBF+i4wY+6yV40/wQGgTOnu9IQ5IMrViRQpeeECR0RGlx5SsKphISExAquYuvp5enl5enlaUPNXUg4aRCfyyW2vfuEXeeC6RWnJicnpyQnZ/JHbT3beVZxs6Tpks/rtDqdVqfVabU6bTnXZK3RaNQatVM1GwmhZsot6ROJQh4Z7umYgiQj1EmR+3nbjFYoNnITPw/nb2V56D0TzamRvTefw3nVAGqvbNOC9ZWA/ZSZfSQagHxw2U8pVAmfMN4boRGpOJOQcCopKbGAP3B2dXF1dXF1dXFxsuaflZ49m302O+nUyTSuaNU9pEePQHNM60JKSnJySnJyNn/g7Onp2c7T09PDmuZGLtDqtFqdVqvTanXacq7N0snA2ekyGwnh3zjndkhAoe7RFqUSJiDJCHXy3R3cuQDFzrSXvRLN+HujN7ByHDWTPDoGi//dQe3IB75bqsNgwMyJdjQAOXrZj4kYqAZMGOeB0CjJOUlJiUlJqalF/Jll61atW7Vq3cre4jJ9SUlpSWlJSWlJztnss+f5g3Zde4T08JEwoZLkpMTk5JTkc/yBi7e3d3tvby87Wga5QKvTanVarU6r1WnL+TuWTk7qti6uLi6uLi52CNcUGO+Qj0I3bOW8IyYgyQh10n83e8JR7JWXeeVF/sEvNzLwV2ro/C2b4ZZP21Bzyd8vOomB+513+tMQYpYtO4mB+ZAJY9oiNHZybuqZ1DOpqZmZxdSQpqN/x44d/WwxGX1mYlJiYlJiBn/g7t3e27u9t5cNLZhcoNPqcqvk5BoUcm32Ph2rqCWEP+i/m2JrlJm6lIQOmIAkI9TFic50Pi6hVKXPGVVKO/6BvnM8u/tSQxWPfAaaT2+RqJFzq37YiYH12OnDzGkAJ5cti8FANXjyODVCUyIXZmdlZWdlnc07n3f+vMzfadXWpW1bl7Yu7fydMZnziUmJSYlJyaVcRfLw9vZu7+3taYXwZ+V5udVycqsU8kdOHTt2DA13RLhs/CpSPVHm4U+I7IMJSDJCXTzxPh88imKbRjJqPf9o4QyGbKWm5MUP58C4z1xRLHvV8l/1GFw/fUIrGkDSsmVHMJAGTJ7QFqEp0xfmnT9/oby8rPwiM2sra2trK2trq1ZtrTGhstTEpMTEpMRcrtbW18fXx8e7nSWCQqVns7Oys7OyszOSKrhMFdyvf39XhCr3f8mhEJR59UXWjcYEJBmhDko9dJYZahQbv4rVY/hHFZ0S+HUgNZb14Epwem6WLUpkrVy+U49B4PRb29MAzvy47ABVwidPdEcQ6qY4MaFKqp6r2Pr6+Pr4+vjYIdRaRfLJKme4pEP//v38JVq8F17j5+Eo88HjLJ2MCUgyQh0sm8KUJSiW5VnhmmrBP1t0OwN+lagx+acHz4HLnPus+WeVBzdtOiBj4DtpUoiE6WUuXxZBlV6TJ3khCLVXcDrhdEJCQhpXUXn5+Pr4+vi2kRCMpCghZs+uYzIXuU+4JVxFy/bJw3w3HWU+f4Bvb8cEJBmhDm7YyrbBKPbWM8x5nX9R0SWebYOphXNPfC+D+7N3W/G3zv2y6RcdVfwnTewuYXpnVyzbKWPQffItvghC7eQlXJTNVVp38PPx9fH1tECoD3kRu3bvL6OKx6TJ10m0YAtn8MV9KDP/Lr68FxOQZITaS+xAh5MqlJI7JpDQgX+zZBp9d0nUxvFXfgJcb7ujC38lp0TsiYiWqdJlzKRuEqaXu3LpjkoMgiZP7ogg1Fxe/KkEAx1XaeN3kTNCfSs5uGvn9jIMvCZNDpVoqZZO5YNHUWbxrXz8ECYgyQi19/w8Xp+DYjsGM2Qr/6qyWyy/DKN2ol9ejUHInVM1XEV3Yn9ERCYXOdww4sZ2NICidUs2lmPQcfLkIAShZiqS4uPj4+LPchU3vyodWiGY0Pm1P/5SjoH3LXd1pGVaPY43nkGZFRN5ezYmIMkItVbRPsPsjBuKTVvC0sn8u+W3ELpPRS1Fvb62HDDrFBIS4lhWVlZ4Ki7uhJZqUvDwEeEWNIDyrYtXF2LgM3lysIQgKKeLr5JQzhWSZwc/gw52CA0id82PWyowGPXYYIkW6OcRvPQyymwYzavPYwKSjFBr625m7CoU07mXqdOt+Hf6HkeZP4Na0y759hB/5RAWHn6dIw1BH7HkRy0GblOm9JIQBGXktJiY2Ph4Lb9zDQgI8PfzsUZoYLrVy7ZXAl0fnWZNi/PrIJ56C2W23sBzr2ECkoxQa2PWsn4Uin30KI+9jxLbh9Am3ok6iPn2l9gKrnDrFNg1PMiMBiEfW7wkFYPWE6cNMEMQFJDTYmJiY2ILuMKqY0BAQGDHVgiNxrmFn5wB2sx6wIUWZl8fHv4IZXb358l3MAFJRqitDK9Kj2RzlJK7xhDbCUVuWc4dC6mbkuNRxyosLC2sfQIDWtFgkpYsjsHA5qZpN1ohCP9GTouJjYmJLeAK98AAAy8zhEanfNUHewHLqY8F06JEd+feL1HmQG/+8wkmIMkItfX6c7wwF8Uiw+m7G2XOdMln1ViavOwfF+/FwGzYtDEOCMI/yzsaHX08toArvIM6B3UOdEBoxPZ++FMlMPaNQFqQE525YyHKHA3mnq8wAUlGqCW9f6KU6I1iMxew8A4UWjiDNsfb0qSdX7Vkqx6DvtMmtUEQ/oH+dLRBKld4dw4KCgq0R2gCUv/7VR6Y3fOSKy3GsW7c/T+UOdKD+z/HBCQZoZa2D+GGzSiW71bkmGmLQvK4NYxZJdFklWxcvL4Ug27TprRHEP5WwbHo6OhjF7isfVBQUOdO9ghNSOHCeVlgN/sJe1qIqJ7M+gxl9l/Hwx9hApKMUEvTlrDsFhT7YhazPkOxs13OsfAOmqaKHUtW5GPgPW1qFwThb2QeioqOPs1l9t2Cg4O72CM0QRfef7sQXF65y5wWYV8fHv4IZXb358l3MAFJRqgdnXuZJs0KxUIPEdUD5VaNx/GYF02PvH/xsmwM2k6edp2EIFzLuUMHDx5M5zLvYAMfFULTdXbulxUQ8NbNEi3A7v488S7KbB/CnNcxAUlGqJ2PHuXx91DscAg9D1ITd3zH4C0qmpjYJYsTMXAYP22wOYLwVzmHDh08mMIlNl2Dg4O7tkJo+k4+uwIY9LUvzd+OwTzzBsr8PIKXXsYEJBmhVuRux4npjGIPfM4X91ETed3O8NpzNCUZi7+PxsBy9LSRNgjCn+UfOnjwYCKXOPYM7dndzwyh2Yh8ajfYvX2/iuZu83BemIsya8cw71lMQJIRamVfH8L3oNgF93zbTEdqZPtQWdp4I01Fwcrvt8mAavC0ca0RhD+qjI2M2BvPJXYhoaGhfiqEZkZe82gKDJrvTTO3YTRzX0CZFRN550lMQJIRauXub1hwJ4otnMGM+dTQvOdpvTuIpqBiy6LVxRj0nnaLG4LwB/n7IiL25lPNukdoaGiAGULzVDD7S7B75z4VzdqyKbz7BMosmcZHD2MCkoxQGwVuFxwy7VCs3x4iwqgh/YTVtIvwpLGTD32/5CwGvrfd5o8gXEU+HRERcVzmIsvg0NDQzuYIzdrWu1JhyDftac4+f4AFd6LMt3fy2SxMQJIRauPre7jvCxQ70ZmgYxI1VTDoEJ12O9OoJf/wfRwGzpNvC5MQhCuKD0ZERpyjmmt4eFiINUILkD/7K7B/916J5uu1F1hzM8p8dR9f34UJSDJCbfTZx4FQFHvifT58hJo72zeB8C22NFq5Py3ahYHlTdNHWCIIl+Xt3rnzUAUXqYLDw8O8JYQWY/PdZ2Dkd2qarcc/YFc/lHnrGX6agAlIMkItHOtG9ygJpUo9dFYZztRCYng2o1eZ0yhVbp2/ugyD/tMnOiEIl2h37vwtWuYip7Dw8F72CC3M+Se/Bq+fetFc3fktsZ1QZva77LgeE5BkhFp45GM+fRDFfpzM1MXUypEBBcz8WqLxOb1wYRoGgdOneSMI1XS/bv81lmqBfcPDO6oQWqSfbz+HzaIJNFM3rSfLBWVmLuBoV0xAkhFqrsQ91zrDCcWGbWHbYGpnx41lPPO6RONStGL+rxi0mXZbTwlBqJK/a/v2aJkqUvCAgf3bILRg6ZP3wFuzJZqlvhGUWaDMmLWku2MCkoxQc0umcdsiFEvyxfeUilpaPlnm6TckGg95//yl+YBq5MxRlgiCQWnE1u0HKqliFjJwQD8nhJau9N7v4O7PLGiOAk465KNQvz2UWGECkoxQc4N38NsAFHvhNV6fQ619/gA89IEZjcTZRfNjMeg4c7o7ggBy7OYtvxVRReo+eHA/RwTBQJ73Agxd3prmR7YrDjyBQp3i7AswBUlGqLEEf/zjJZSq8E43S3Wn9r68H8b8YEcjUPHzN+srALvJM8MlBIGzWzdvyeCiToMHD1QjCFcsmVFK5/U+NDtnXbhxEwq1Pdc+GVOQZIQae/YN3noKxTaM5uY11MW3d1USstaDhha/4NssDPrNnGSPIFTs27Qpiovchg0d4oYg/NGesVrabg6muTnQm/s/RxnZojLkEKYgyQg1VeGZZZ7mgmJj17D2Jupky8R83Nf3oCEVLJ+/BwO3O2Z0RBCyf960OZcqNtffMKyzhCD81elR8ThtDqWZWX4Lbz6NMnlO3LAZU5BkhJpaM5bxK1As07PSPcWcuokdnYTtkptpKPKe+T9eAMxvumu4OUJLpz+0buMhLuoxfFi4FYLwN3JHR+D4aw+al3eeYskUlDkZwNTFmIIkI9TUTevZOALF3pzDc69RV2fHRiK987hEQ8j4bv4pDDrfdVtbhJaudPvatRlUaTVsxI1uCBfJZQWFBQWFBYUFhYXFpSUlpSUlpWUVl8iyjIyMZP4nFjY2NrY2VWxtDGxtbG0kmpeC0TtxifClWXnwMyL7oMyWYTz1FqYgyQg1lO6l90wyQynZ/zSnfamzqwHshAAAIABJREFUkplL4M7/2mJqZRu+2aQHHKfO7CUhtHC5G9b8XEiV7iNGhJnTghXn6HJ0ObocXW5+YUFBYUEFRqFydHB0cHRwcHRwdHB0cHRwbN3agibtwrAI/Pa0pTkZvYFMV5T53718fj+mIMkINTTveV56GcV2DGbIVoxAfuUVCPqxMyYVM3/ROQwGzRxvi9DCJa9Zs7MSA6uhY0a50/JUnsvOyj6r0+XocnQ5xfw782pmKiQJCUlfWXEJNWDn1NrJqbWTU2snp9ZOTq1tJZqWnP6x9NzhQDMScNKmUIUyz77BphsxBUlGqBm9X5KU1B7Fbl3M0skYxZK7i7Ca+7g5pnJ+6fz9GLSbcacvQssmH1qz9ihVnEePGWZPy1F5Ljs7Kzs7Kzs7+5zMtdk5ONg72Ds42Ds42DvY29tYW1tZW1lbWUj8DVlfcVFZcVFxcXFRsUFRcXFxUXFRQX5BfhH/xFKjVmvUGrVao1ZrWkk0fmfC0xi6wZJmo9he3/MgCk1bQlwApiDJCDWz9QaG/4xiOe6lzhlWGMeJW45Dr/ldMAX9b/NXFAOW42YOMUNo0cp2rFmbTpUOY8aEm9MCyOfT09LT09PSM7R6/spK7ax2dlY7q53Vzk6t7FQYVUVhQUF+QX5BfkF+QX5ebl5ubgl/w0ytVmvUGrVao9aoncxonGL75TL1exXNxaFQ7liIQmF7KbbGFCQZoWamLGP5RBT75GEe/QBjKX7hfRmLF5+2oL6lfrsgCYPud01zRmjRCjat3pBPld5jxnSWaNYqs9LT0tPT09LTi/gzKxcXVxdXFxeNs7PaRsKkSvJy83LzcnPzcvNydTptKdckOak1arVGrVFrNGq1OY1HxNBiHnuf5mLhDN59AoXcstwyMAlJRqgRrUdZmzRLlJKDj3E8COPZOyMOeiwIpj6VrJ2/WQacbp3ZA6FFO7t29dZSDKyG3HyTO81WQWqVlNS0Sv7I3NXV1cXVxcXVxaWVRCMhF+m0Oq1Op9VpdVrdBa6ttUat0WjUGo1ao3E2p2GtG1fJ/Bk0E0+8zy/DUKbYlvA9mIQkI9TIB4/z5Dsotv86wiIwppJX3tZjPudZa+qJfs+iH88D0g0zx1gjtGBy/Pq1e/QYtB49drg9zVBlVmpqSqpBLn9k387Dw6Odh4dHWzMauxKdTqvT6rQ6nVanzefaWms0ao1Go9Zo1Bpnc0zv63uw2tOT5mHYFjLcUCauE9N+wCQkGaEm5C6xnAhEsXv/xzczMa6DM46D93vjJOrByUXfJ2PgM+MOL4QWrGzX+vUJVPEYO3agBc2LPjspOSk5KTm1nD9wbt+unUc7Dw8PR5qoshydTqvV6bRarU6bx7U5qTUaZycnJ2enKlaYxAOf4x3tSLPgluWslVBm00ieew2TkGSEmogMp98uFCt0K7TPtMfISue9UQG95w6TMC7d0kX7MLCbcMf1KoSWK3vzul/yqRI4bmyoimZDPpeclJyUnJxcytXMPb28vNp7eXna06xU5Gi1Oq1Wp9XqtNo8/oaNk5OTs9MVVtSPsoF7uecrmgNtGwb+ikIfP8LXd2ESkoxQE3fN59vbUeybu7n3S4wv5pFtQPjcwRJGo1u9fFsFoBp6+1g7hBbrws6tW45RxWzA6FEBNAtyblJyUnJyUnIRV3Pwad/ey8urvYsZzV9Fjlan1Wp1Wq1Oq83jb9mqXVxcXVxdXLy8zDCmpK4X2DiCZmDDaB79AIXu+ZrIPpiEJCPUQL5bkWOmLYqF7WV/L+qBvO6Fo8CAuQMxCu3q5dsqMeh2+1R3hJaq4tCWrRHlVHEeOXp4a5q8kuREg6SkAq5m6+3j7ePt4+0k0UJV6HJzc3KvKOJarPw7BgQEBDlgJF/dh9txZ5q+5+fx4yQU6rOPAntMQpIRauCr+5j1GYod70q3IxL1Qr/ypVhg0Cv9qSvtquXbKzHwumV6N4QWqvTAbzv3XKCKFDp0ZB9zmjL53OnEKukyV7Fq7+Pt4+3j3UZCuFpp7lXOndNzFVWPgQP7O2EE8ohfuPV7mr7BOzjTDmX0jhd8T2MakoxQA70PENUDxR77kI8for5ULn85Hrju0fGW1Jo+auOm/XoM2k+a1EtCaJEu7N35295SLupww9BBzjRZpcmJiacTExMvcBXz9t4+3t4+3q4qhH9XqcvKzsrOTIxPKKea1HXgqCHm1FVal/OsGE9TV9GqyCsFhU77MXYVpiHJCMpFdyfkEIqVeORYZTpRfyqXvJIAqCdPv06iFnI2b/r5LFW8J00KlRBaovN7du48UMFFbgMHD/WhSZJzEk4nJp5OTJe5isbXt4Ovr6+HGUItVCTHx8ftPcZFbSZNDVdRN4tup83xtjRxh0OYsgSFVo3nhbmYhiQjKPfQp3w2C8WWTuXW76lXFYvfO4qB/223+VIjxQd2btqrp0rQ6Ik9JYQWSLv7t51H9FzkM2DAQF+JJkfWJZxKOJVwKo+rWHh38DXwcUSoM92u3347ImPgOfnW7tSFPH41E36iifvvf/j4IRSa+xLLJ2IakoygWLF7nk1mKxQbuo0d11PP5F+/XlWMQd/ptzihzNk9e3ZHlVPFbuiIEV4ILVDmzt92xlAtcMCAAZ40MbI2IeFUwqmEPK6i6eBbxcMMwZjyti1dX4JB/yduUlF72V20bLqRpu3WxRwIRaGJK4gLwDQkGUGxH27jjoUoltgBv5MS9a9gxaIdMmA5enjfQDP+UWn8/t17EqjWacTIflYILU/yzp2/JXCR1HXAwP4uNClFp+Lj406eOs/vJC9/vw4dfH0cEepJ/polWyoA/8fusKXWvp9Ox2OWNGWyV5rNeQsUCjhpXWiGaUgygmLX/8aufij23Ou8+TSmceaHRbFUse0eEhLS2YK/KoyLPRF74rSeagF9+w72Rmh5Lmzb8EsKF5mFDBjQz5mmQ06Lj4+Lj0/ld1J7fz8/fz9fK4R6p/3xkzhAPesRDbUkD9jNxw/RlMUGMfxnFCqyl3sexEQkGUGpkwEEnJBQqsIr0yzNFVORDy9afJZqlt1CAv1crS3Ky8rKy8rLyvKys0+dSOUyy9C+/cI1CC1Q8ob1O0qpYtF74IBwB5qKorj4+Lj4k0VcoWrv5+/n7+djhWA6+k3v7QAcn3vYmtqJ6olrog1N2AeP8/5jKLRrADO/wUQkGUGpZ97inSdRbN3NjF2FKVUc2HUgKpF/YtOpU7e+Pa0RWqCKyA3rY6hiFT5w4HU2NA1FcTExsTFJMle0DggIDAjws0JoCFHvLauE9m9MkaiViSt4/zGasBt/IaYzCr31DF/fhYlIMoJC5Z7ZFmltUezmdawfhcnlHomKioqX+bNWnTt17tTZS4XQIpVt/2m1jioeo0cNtqMpKIqLiYmNSZK5zMw3ICAwIKCNhNCQUl9ZIEPv9/pRG8e7yW0T7Wiyip1L2qVKKHTzOk4EYiKSjKDQqvFMXI5i6V56jxQzGkbhsYSEnJIyS0tLC0tLSwsHFxcvNwmhpSrdunxNHgZSn1Gju0k0emUnjsbGxCTJXPZ/9uACIKp8Yfjw7wwhKNi6go2FiGK32N2usVhYu3Z3N7auXYsKdqzdLbai2Ili69oFSM35Rvfe99t778Y5ysycmfk/TzKvfJ55PD0cETThUr99QKuZqfgKP6xl0gAs1t7qtAtEITndq9QvJUxEkhEUqr2T3dVRLGAow8cgCOb2ac+Gre8xSFazbs10aN2LiwbX4/i3ZF758nnly6xD0BJ5T7+rkDGwOupd99aniXDFUvWdztqmKHTTkzrbMBVJRlDmYTZ9lrt2KKXPdVe6mw1BMKuEQys3vsfAtW7j6knRtPibFy9euviUf0vmlS+fV77MOgQtil8y4B10muKCaq1WMG4olirfNd2L1Ci0pD0TBmEqkoygzNgRjB6BYgeqUHUvgmBG8rmVa55hkKJ+46pOaNj7sAsXL16N4V/sPH18vPNl1iFo2cP2+8AjqCxq3c6bkPJeCizTTU9KnUCpDoEc8cVUJBlBEb3Hfel+ZhTzW8O6JgiC2YSvWnkLA9dGTas4olkfL4SGht7k31L5GHg5IVgAeUG/KOzm/4habZcRMBjLFDCUqX1RKu8Nh3fOmIokIyiytzo1d6LYK/fYtI+SIAjm8X7d0hMYONZqUdsZjYq6GBoaekPP76RcPgaZJATLEd7mOPSfqEOd8Nyy+z0HLFLhMO5lRaFXaSlxCpORZARFmq7n10YoNrMXfaYhCOagP7J0QzQglW/xfSo0KeZSaGjo1QR+5+hTpJCPdzIEi5PQfwY0Wp4UdRpuZvUPWKI7OSl2BqW21qf3dExGkhGUeJExLv0jB5SS81/lWl4EwfTuBS27h4F3a79MaJD84MSJk5fi+J19/qJFi3o7Iliq+d30FNv2HaocqkS1PViiyQOZNAClus1lSz1MRpIRlJjWjwGTUOxUKcocQxBMLWrj0oMYpGzetoiE5sSEnThx4im/0+UrWrRoAScEy7a76QcKhKRADX3OCOlBJixQ8bOE50CpnHccXrliMpKMoIDsdYObuVGsQyBL2yAIJiWfWrr2PSBVa1vfCa15dvLEiXMxfCF5Fi1atGBSBGtwufZDyu92Qo3Ro5gwCMtzPxuFzqNUeC4qHMJ0JBlBgeNlKX8YxT64Rbo+TYYgmNCT4GU3McjVpnUmtCXh8okTJyL4nWuJ0qVLpESwHrfKvKTROjtUiPAgz3UJixMwlPFDUGpuNyYOxHQkGUGBtstY3hLFFv9ExwUIgsnEbluyWw+4NG1XWkJLEi4cOnz0Pb/LWbpU6Xx2CFbmbMVIOs+VUKF8CKdKYGnk3OFSRFaUqrudsIKYjiQj/LN3btEpnjqjWIkzhBZBEEzkauDylxiUb9s4GRqScPHQ4ZD3fOFUrHSpUukRrNKeOvHM6YoKS9vRaT6W5qgvlfejVEzqqAxPJExHkhH+2YLOdJ2DYpd8KHheQhBM4f2awDMYZPFv44F2JFw6fCjkHV+k9y1bqqAjgvVa0YqkF3Kh3IcMUSmfOmFh2i5jZXOUOlgZ/2WYkCQj/LOi57jgg2I9ZzGnK4JgfPLRwPXRgGOjdpV1aIX+0uFDIW/5Il2FChXySghWrus8SofYoVyrFaxrgmX54BaZ4qkzSg2Ywio/TEiSEf5RWGGKnkWxT+5vnJ6kQhCM7UnQknAMfNq3SI1WROzbd+ANX6StUKGCl4RgAz4WvMOUfii3vyqNfsWyLGlPp/ko5nNJep4WE5JkhH/UdR4LOqLYqha0CkYQjCt2R+AuPZCyRbvCaMS7Q3v3hfNFmgoVKnjpEGzFMV/Z8Xw+FEvI8DLZC2csSrljnC6OUndzUPw0piTJCP8kyv1d0qfJUazSIY74IgjGdGVZ8AsMKrdv4Iwm6M/t2nM6gc9SVahYIZ8Owab0m0aZoxKKtV/CzppYkmv5yHdZQqlJg5g4EFOSZIR/srw1bZegWHguct+QEASjebE66DwGmdu2yY4mvNq7a/cLPrMvXa1qETsEm/PJ5xa7q6PYr43pNwVL0nERP/dEsWKhhOfAlCQZ4Z+UD+F4aRQbPJHJ/REEI4nZEbQzHnBs0L6yHRogh+3YdVrPZ57VqpZ3RbBN65pR/JSEUi/TUSQUC/I6U7Tro+QoFeFBofOYlCQj/IObnuS9KqFUXJZn9o++QxCMQT4bvPo1BkX9/dKgAbFHtmx9yGculWvWzIJgu/QFL7O9Nor5XNK9SonlmDSIHjNRbMoAAgZjUpKM8A8GTGFaHxTb0oBGvyIIRvBoRdANDNxbtfZCA97t2rLzPZ951apZ1hHBtm1qROFQCaV6zmJLPSxGvMdD6VZOFCt+llu5MClJRvh7sZmfOzxJi2J1drCzJoKQ2CI3BR2QAeeG/pXtML+HW7YcjsfAsVK9WlkRBLlIGJsaoNTmhvSejsVY35Q621DsfjZ8LmBakozw9zZ+T9O1KPYoqz5zhB2CkKj0IcHrP2Lg6984OWYnX9yyJYzPUtauXz05gvDZtnr4HkGpN2nkgmFYjDIn2FcFxab1Y9xQTEuSEf5ezd3srYpi44YzchSCkJjCg5ffw8CjdSsPzC4uZMvW+3yWtX79cg4Iwr/IeW9yNztKFQ6TXqbGQpwuSb7LEoqVPM3N3JiWJCP8rQfZ5Gx3dCilz3FPisiKICSat+uCTmCQvKl/GQlzi9yzefsbPitSv35+CUH4g4mDGTUSpfpOZ2NDLES9bSzugGJ3clLgIiYmyQh/a/Qoxg5DsX3VqL4bQUgk8fuCNscAumqtGzhjbi+3bd77CQOHivXrZUIQ/sujLHL2cB0KbatH36lYhosFyXTHEcWGjWfiQExMkhH+ToLHA939TCjWbB0bvkcQEsXloJXPMMjn38Idc7u9fctRPQautRvUSIEg/Inqeznii0LP3Kh0AMvQbB2zuqNYQtbHdg/dMDFJRvg7u2tSezuKvXSPS/fIEUH4di9WBYVhkKa5f2EJ84o7vn37TT7LUL9hhSQIwp9b1YJ2gSiV8Umq11iEm3nl9PecUWx3TepuxdQkGeHvNP6VzfVRbEYf+k1BEL5VzI6gnfGAQx3/mo6Y16td23e/47NcDRuU0CEIfykqwwfXVw4oVHU/L9NgCdoEMWkAyjVdz6YGmJokI/yN5xnjMzxwQCk533WueyII30Q+G7TmNQZF/X9Ii1nFntq//7QeA13ZOnU8JQThb/mt4VQJFOq8gFMlsAARuRJS3XdFsZfucekfOWBqkozwN6YMYNAEFDtRhnIhCMK3eLQi6AYG7q1ae2FO8pX9+49E8lnKmnVqpEYQ/tGijkwYhELT+rGiBRag4yJGjUS5mb3oNwWTk2SEvyZ73uJ2ThRrt5Sg1gjCV4vcFHRABpwb+le2w3zku0cO7v+NL/LWrlPGHkFQ4lYequ1BoS0NGDUS7budN8H1XmoUk30uc9ULk5NkhL921JeKB1HsvVtU8qdJEYSvoz8atP4jBr7+jZNjNvL1IyEhT/giQ5UqlTMhCErJmZ4kfeOIMle9abEC7fNbw+gRKHeuKCVPYnqSjPDX/INZ2RzFFnai8zwE4avcCQ6+h4FH61YemEvCpSMhR1/yhUuFKlW8JARBjZYrOV4aZaKTUuIUmnehEOnuuKLcT4tZ3AHTk2SEv/TWPTrVEycUKxbK+UIIgnrv1gUfw8C1qX9ZCfOIO3ck5Nh7vkhWprxvCQcEQa3ADowfgkKZH6V5iebV3smMXij3KtMn18eumJ4kI/yleV3pPgvFLhSi8DkEQS05JHD9J0BXtXWDpJhF9JmQIyej+CJlufK+hewRhK9xLR9+q1Co0iFep0LjjpUj8y0nlJswhF4zMANJRvhLhcO4WADFus9hXmcEQZ0nQUvCMfDyb5ERc/h4IuTImVi+SO/rW95bhyB8rRhnudgZFOoQSFhBtE32PUZgO5SLy/5YCvfADCQZ4a+cL0Lx0ygW7f7W+WkKBEGFuJ2BOxOAVM3bFJEwvejDB0POJfBFpvK+5XNLCMI3yXY/1WsUGjaePdXQth118Lxsj3Jr/Ki/GXOQZIS/0nkBi35EsRWt8F+GICh3a0nQMwwqt2/ohOk93LHjQDRf5PT19c0mIQjfrMoBXqVGmVk9WdECTYsrcIP1jVGh5GkOVsQcJBnhL0S6v0/21BXFKhzhaFkEQaHIDYFHMcjYtq0HJpdwevuOS3yRz9e3XEYEIXF0Wsjp4iizpD0Lf0LT5naj9DEJ5U6VosAFCXOQZIS/ENSG9r+g2K085LkuIQhKyKGBqz4A9vXbV7PD1OKPbNj4nM8y1KpZPh2CkHim9mdFC5RZ3Zyfe6Jlb3K94lQJVPBbw5K2mIUkI/yFcsc4UQrFBk5mSj8EQYG3yxdfxiBv+1bpMbW4gxs2veKzYnVqF9IhCIlqQxMmDkSZzQ2ZMAgt6zud5itR4VH2+HQPnDALSUb4czc9yXdZQqm4TM8dHqVHEP6JfHbBmmggWbMOJSVMLP7Ami1vMHCqUb/mdwhCottVi5GjUGZ3TUaMRsNu54tzupkFFfpNY/gYzEOSEf7cgClM741imxrReD2C8A8+rFpwAYNS7Zu6YmLymZVrn2OQtE7jmi4IgjEcrsjAiShzpAL9J6NhDTczbCwqvMwa5RSRAfOQZIQ/FZfpucOTtChWaxe7qyMIf+vCgpUfgRStf/LG1G6uXHUHA9e6jasnRRCM5HRJesxEmTMl6D4L7TpckQy3XVBhaADdZ2EmkozwpzY1osk6FHuYVc56V4cg/LWotQvOYFC8Y7NkmNirVUHnMEhSp0VNJwTBeC758OMilLlcgA6L0ay4QlcJbIcKb7J+cLiTGTORZIQ/VXsne6qh2JiRjB6BIPylqwuD3wHJWnYshInF7126NRbQVWreKAWCYFS3c9NyOcqE56LFCjRrRh+KnrJDhbEj+HER5iLJCH/mUVZ9lggdSiV4PJDuZ0YQ/tynXxcexcCnU/PkmNiNpcufYlCkxQ9uCIKxPcxC4/Uo8yArTdahVU/zfJBOFUeFD9le293ywFwkGeHPjBvOqJEotqcGNXciCH/q/vxfXgHOP3QsLmFa79YuPYVB+lZtvBEEE7juhf8ylInwoPlKtKrVCjosRo0pA2gdhNlIMsKf0OeMkO5lQbEmG9jYEEH4X/KBOdv0gFfHVqkwLf2hpRujAfs6bWs6IAgmcbwsvWagzE1PWgehUUd9SXUrLSpEZX8uXfPEbCQZ4U8cqEL13Sj2PFNc+kcOCMJ/+xA85wbg0LhzWQnTilgWdB+D/G1bpEcQTGV7XcYMR5nTJekxE22KL3KJeZ1RY2Yvmq7FfCQZ4U80X826Jig2rR8DJiEI/+XG3KAPgHvnH7/DtKI2LjmEQarmbQtLCILpBPszuxvK7KrFyFFo0+weFD5jhwofPV5wwQfzkWSE//XaPSbtoyQoJee9yc3cCMIfJeyYsw8D3+71HTApOXTJqveArlrbek4IgknN7MXK5iizqgU/90STHuf9wIlSqDFuOE3XYkaSjPC/Zveg93QUO1aO8ocRhD94FTjvPpC0ZdcCmNbLlYGXMcjVtnVGBMHURo1mZ02UmdOd4FZoUqNNdFiMGq883ttdy40ZSTLC/5ALXuJKPhRrE8TylgjC/wmbs+oTkKNrm1SYVMK+JVtigaTN2pWREATTaxPE+UIoM3YE2+qgRZsb8t31VKjRfyodFmNOkozwP0KLUfIkir1zi07x1BlB+F3C5hnHMajZrYYOk7q7dNkjDEq1b+qKIJhFsVAp0hll+szgeGk06L3XY1b/gBqPc35KEp4Jc5JkhP/RaSG/tEex+V3oOgdB+OJd4Ox7QIq2XXJhUtEblxzEIH3rtl4IgpnoXaNyhKNQmyCu5UWDesymxk4JNTouou9UzEqSEf5bpNuHZE9dUazoOcIKIggGd2ct+QB49WjhginJ55asegfoarWv7YAgmE2EB/W2oFD9rTzNgPacLiUnvZIdNW55JbjeTYtZSTLCfwtqQ/tfUCysMEVCEQTkozO2yECN3lUlTOnJiqBrGORq19odQTCn7XUZHIBChcPsoh3QnLiil5jSD1V+WMuY4ZiXJCP8t3LHOFEKxbrNZX4nBJsXu27GecC5dc+8mFLU5qD9eiBpk/ZlJQTBvCYPZHlLlNG7RuW+ifZMGkTBs/aocbok6e64Yl6SjPBfbnridUVCqWj3t85PUyDYuJcL5z4F3Lp1TIMJyceC1n3AoKx/0+QIgtn9sJbzhVDmfjbqbUFz7npH604VQw25zElmd8PMJBnhvwyYwvTeKLayJa2DEGzbtZnBn4DCvZs6YkJ3g4MjMMjWunUOBEED9BleuL62R5k9NRgwCa2Ra+yl58+ossYPz0sOmJkkI/ynuEzPHZ6kRbFKhzjii/Af3t17+uxNbExsbExsbKzeIZ2HR44sjlgr+eDU3YDUoHdZCdN5tyHoKAauTfzL6hAETbjkQ92tKDSzF0vaojUrW5LpmitqRHs+YEctzE2SEf7TpkY0WYdid3KS66aE8C8vrl2/dv3aE/6HLrNHDg+PnF7OWJn4DVPOAy7te3hgOgn7gzZ9AqQq/g2TIghaMb0vM3ugUOcFnCiFxrz2fMHWuqgyYQjVdkuYmyQj/Kc6O9hdHcWGBjBxIILBw+Onzl9/yd/T5a9bv4iE1YhcOu0ekK1HuxSYztWgFU8xyOvfMiOCoCG1dnHVC4UqHuZ1KjSm/RK+34Aqz3J91F30xuwkGeE/PM6iz3LXDqXiszy1e5QBmxd3fOfOq/xbGq/cbhlSOzkmcUzi6JhEinty9+6du3df8y+Z6tWv4Ig1eDFnzmug8IDv7TGZl6uDzmGQunnrohKCoCWxqSPdHksolOG3756hMYcrkvy6O6r8+Aud5mN+kozwH8YPY+QoFNtel/qbsXGPd+/c94Ev3L3yennlTcefeXv37t3rYRf5LHnN+rVSYOHCpy/9BFQfUFHCVGJ3BO2IB+xr+9d2RBA05kgFWi5HoTepKX8YbYkqeJt5nVHlYiE5eXg6zE+SEf5InzNCisiKYg22sK0ONiz+5K6dF/lMKlG1dPHU/JMn27YciMXAvnKLRsmwXGcnb9SDnV8/H0xFPhe0+hUGRVr7pUMQtKfLfJa3RKFTpei4AG3pP5VSx3SoIZc/yuT+aIAkI/zRwcpU24NizzIluN+3x2bdWhr0lM/S1KhVLS0KfdizZccbDNL26ZociyTvmnIYSPZTryyYyuMVwdcwcGvZ2htB0KJYt9fOv7miUGAHZvRCU86U0ie54IkqK1uS42oSNECSEf6o+WrWNUGxSYMYMh4b9XH9kmN8VrRWraJ2qBJ3bPPmB0Cqnj1SYXFi10y5AnzXs1MqTCRqc9B+PeDUwL+KPYKgTVvr47cKpfyDCSmHlsQUucqEQajyPs8zdtRCCyQZ4Q9eu8ekeZwEpeQ8twnPgS2STyxyzCdsAAAgAElEQVRZGwnY125U/Tu+hnxy7ho9JO/WOy0WJTpw8kMgd/+WTpiGfDRo/QcMyvo3SYEgaFbT9eysiUJy1ofOb5KgJSPGUvi0Par0nU69LWiCJCP8wewe9J6OYiHlqXgQGxS9/OfrGHi1a/kdX+/WhOUJkKxzv++wGO/nT38OlBpQT4dp3A0OjsAge+tWORAEDXubISbdE3sUCs9FlX1oyYVi8fahPqhy1SfB6Vp2NEGSEf4/ueAlruRDMf9gVjbH5kTNn/QCSO7XtrjEt4mYuDQOnDoPT4VFeDlr9lug9qCymMa7DUFHMXBt4l9WhyBoWmAHesxEqcU/ETAYDYkrEcaI0agiVz7EqJFogyQj/H+hxSh5EsXeuUWnfOKMjfm0aMIzoNxPjZKSCB5OXhwDaQPa2aF5T6YtiAKpyeCCmETC/qBNnwCpin/DpAiCxsnFQzlTDKX81nCyJBoyYQje5xxRZe0PZL/qjDZIMsL/12khizug2ILOdJuNbYlZMv4xSE37FSWxPJ06PxpKBudC2+5OXhoL9q0G5cYkrgWteIJBXv+WGREE7TtckYLnJRSS3X5zee2AdlwvGKs7VQxVPuR9zNa6aIQkI/yfSPf3yZ66oljRc4QVxJbEBY19ADQe6U1iejRgNSSd3FmHdl2duDoBnDr0z4IpvFwTFIpBaj//ohKCYAlq72Rlc5S67kXNnWhHQtlT9J+MOn1mUHs7WiHJCP8nqA3tAlHsQiGKhGJL9na/BdQfVZDEdqRDOFRZkhmNCg3YBLh26f0dJpCwL3BLHGBfy792EgTBMlz1Jku4A0rN7caUfmjHjD7kuuiMKmFF9U5XPdAKSUb4P75HOVEKxbrPYV5nbMeTHr8CtUYXxQgiB86FFLNbSmjQ0XF7gTS9uqbCBCKWLnuIQWF/v3QIgsVou4wZvVCs8a+EFkEzwgtESyFlUSWh1FkCBqMZkozwbzc9yXtVQqlo97fOT1JiMzb++BrKTCmFkexr+xgaLkyH1hwZfQhw7/ejC8b3aXPgfgzSt/b3RhAsyOPscakeuKCUPv2rlC/t0Ap95cN0n4U6c7rjFeaIZkgywr8NnMy0Pii2qgWtgrEVH3otgfRTWkkYzZseKyDDunJoyuHRhwGPgf5JML5Lv6x4A+hqta/tgCBYlD4zGDIexY5UoMEmNGNBZ7JddkGVJ54fOFoW7ZBkhH+Jy/Tc4XE6FKt0iCO+2IhTLe/A9wvTYFS/dnyF/dQeElohHx59BMg1rLk9RvdudWAoBjna+WdEECxMuFecU0QGFOu4iFV+aMV974/sr4w6TdfT/hc0RJIR/mVTIxqvR7E7Ocl1U8ImxI8bl4DLbH8JI/ut+UHoMssOTZAPjQ4Bcg/zs8fY5KOB66MBp8btfXUIgsVptIlhY1EsNsObpM+ToRH6agfosBh1dtYm3Y3UaIgkI/xLnR3sqoFiQwOYOBCbEN7yNJRa4YHxxQ+bBI1WOmF+8sHRR4HcI36ww9heLFt8G4PC7ZunRBAs0OGKuN1yQbFt9Wi+Eq2Y34XMl1OgSqT3PYJboSWSjPC7x1n0mSPsUCo+6xO7RxmwBcFdIrEbOdgekwhuH0+5LakwM/nA6GNAnhHN7DAy+eiCX2OBlC3aF0IQLFJCsTCWtEU5vzVsr41G3C0Qyd6qqNNnBpX2S2iJJCP8bvwwRoxGse11qb8ZGyCPHAs5V5TAVHY3jsRrd2bMSd4/+jjgOaKpHUb2JnjhdQwqdmjojCBYqKXtKBSqQ7GP6aPTPHVAG/QVQ+i4AHVOl9Y7Xc6Jpkgywhf6nBHS3Wwo1nAz2+pg/eSes6H9zy6YTmjt52Tc7Y3ZyPtHnQDyjmhih3HJpxes/QSkaftTLgTBYr30/o1DFVBuZUs6zUcjZvYi2yVXVIktcoVJA9AWSUb44mBlqu5FsWeZEtwe2GP19F0XIM3oiUndqX6HFFt9MZOjw0IArxGN7TCu9ysXXMLAt2MjJwTBcsmNNtNwIyrU3klIObThVsFoDlZEnTEjKXzaHm2RZIQvmq9mbVMUmzyQIeOxevqfAtEtbY2JPa8divOu8pjD2eF7AK+RjXUY1/kFqyKBlK07eiEIFi2wA2kvZ0C5F24Jme/p0ISEcifpPgt1rhWMswstiMZIMsJnr91j0jxOglKy5y3Cc2DtEtoFo1veHJP72GQ3SfeUxeQuD98C5B7dVIdRRa1eeBaDkh2bJkUQLNvtQpFsro8K87swYBLaMLU/OS8kQ5WEcicZNAGtkWSEz2b3oNcMFDvqS8WDWLv41quxW90EM4j5fgcpT+TFtG6NXCtDtpEt7TGqO/MD3wIuLTsWRBAsXVzZM/y4CBVkn8uEFUQTrhWOkULKos7sHuS66IzWSDKCgVzwEpe9Ucw/mBUtsHJxzTfgsLYhZvGp/l6ynnTDhO6NCdKD+7D2jhiTfu+cnTJQqJOfK4Jg+QZPJGeYCyrsrU6pE2hCfOmz9JmGOvfzRXLEF82RZASD0GKUOIVi79yiUz5xxrrFNtuM44a6mMmH8mEUPuKCqTwZvzgO0g3u5IwxvV02NxxI4te5mIQgWIGFnbA7URw1qu9lw/doQsBQ8oQ5o4pcazed5qM9koxg0HkBizug2ILOdJ2DddM3/ZUkm2tgNk9KPaDWFntM4sWkuZ8gZf8eLhjTlbnLI4EsnTukRRCswubv9fzcEzUuF8Djlh1acLlInO5ECdRZ0YqM15KjPZKMAJHu75M9dUWxYqGEFcS6jR6F89YqmNHVMu/4aYGE8b2d+nMkuPTqmxIjit8y5zAGlbvVsUcQrMPxKp/oPxlV2i5jVne0IK5EGIMmoM7zvK/ZWhcNkmQECGpDu0AUu1iQwuewbvurybrtNTGrw9XiCBiMsUXPnvgGnLoNSIcRPV+84BHg4t/FC0GwFtfKvqFFsA41nmaNS/nQBS0YPYp855Kgjt8amq1BiyQZAXyPcrw0ivWYzbzOWLXfCj5jwiDMbFULWNMMo4pfNuoxOPw0xB0jOjdzbSyQu5t/cgTBaoTWfk7V7Y6oMjSAQRPQgvMl4u1OF0Gd7XVJfT09WiTJCNz0JO9VCaU+ub9xepoSa6avtYfqO3WY24QhJD2TD+ORNw69CbrWI7NhPAlbfj4KSHW7VdYhCNZjR9MoCh92RZXIzG8c7rmjATHFLjN8DOq8z/eIoNZokiQjMHAyU/ui2OrmtArGqk3tT4aL6TE7uW0Quc+5YCyHBp0B6gXkw3jeL5kVAaTu0Ck7gmBNFnXWU3ZLatSZ243WQWjB0AB8zjiiTucFVNstoUmSjBCX6bnDo/QoVvkgh8tjzc6UiZf2VkEDoktfoPM8jCNs8B6g7MQyGE/E7F8+AHl7tUyKIFgTeVgANA1yQp24vHe44IMGnC2pdzjrgzoHK5PsSja0SZIRNjfk+w0odjcHOW9JWLF3hSIYHIAmhPtEsbs6RhA+fA2Qf0ItCWORj8/YrAeq964mIQhW5WX7rdB3sg6V5najyj404FPh64wdhjof899jdjc0SpIR6uxgVw0UGzaeCYOwYrLfWkqGOKAN87vgfiUVie3Z2EXxkHVsczuMJW79jFDAqVUvLwTByhxs9QRpZnfUepfzJaeLowEDplDkpAPqdJtL+YM6NEqSsXmPs+gzR9ihVHzWJ3YP3bBigR1IcSEbGiHX3EPzlSSud1NmREHaYZ2SYCyvF855Arh17ZgWQbAycSMmyaRdVhvVBk3CbxUacKKs7Hg+H+ocrkjSSznQKknG5o0fxojRKLajDvU3Y8Vu+0SzvjGa8dj7LWubkohi5o97BS59+7piLOHTl0UDhXo3c0QQrM0dv7NQJdgN1e7niUlyIxvmF1noNhMHok5k/ghmdUezJBlbp891V7qbDcUabmZrXaxYvW10XICGrG5O6ituJBZ53eAIcOg8ND3GcnrKRhmk+r3LSQiCtYmbOTIK+4C+OtRrsYoBk9CAHrMpccwedXrMptxhHZolydi6g5WpuhfFnmWOd3tgj/UKKY/7rWRoiPzDOmptl0gcIf3OAi3GZsdI9DunhAAu7XrkQBCsz8lOlyDn6qJ8hbPFSROeEvM7WBnnsDyoc6QCzpdyol2SjK1rsYo1zVBs8kAGB2C95AohLG2DprzyfsbqH0gMNwZuBSpPKYSRxK6acg3I0LNTSgTB+rwZtAikzhNd+QpyhRBmdcf83ud/wMweqBPpc4efe6JhkoyNe+0ek/pJEpSSPW9xOyfW62Bl8lyx59vF37l+40NMbGyMLnvOnDlT8i221ifDjRR8s2ejFyeA95TqEsbxbtHPTwDP/i2SIAjWR17V5zkUWliMr7K5IbmuOmB+HQKpcECHOr1mUvaIDg2TZGzc7B70/BnFjvpS4RDWSy53nJXN+TaxJ45cvXYrjj/IULNhVSe+Wv2tDA7gG0VOmxwJ7mP97TCOxzMXfADK9q+jQxCs0Im+p8BlXFd7vkpcvttsaoD57aiDy+VsqHO0vOx0KRdaJsnYNrngJS7lR7E2QaxogfXaV428l+34Bnf27Dn4kT+RrGaTRvZ8nXt5Yp1vZ+RbxC8b8RRcBvVKhnFcnboyDqQG/UshCNbozqANQKOZmfhKI8dQ7oiE2b3yfsbiDqgT5RPO9N5omiRj20KLUfw0ir1zi07x1BmrJZc+xdqmfLXLS7fe4QuHPHm98qZzTOKY5NPd8PDbZyMxyDG0pQNfpc8M2v/C15N3DrwKdh1Hpsc4jk7aASRp3TcPgmCNXo+dGwdeU2vytc6UTrA/XRjza76amjsk1Okzg9IhdmiaJGPbOi9g0Y8otrATXedgvXbVwvuijq/zZvXSUD5LX616cQ97/ih6/6atr4DsQ1s78BVeebzXXfbia53rfwhoMDEPRiHvDjgGpOzSPQOCYI2i5417C+nHtrPna0UVusXoEZjf+qakuuKOOsfLyU4X8qBtkoxNi3J7n/RpchQrFsr5QlgtucRZNnzP15AP/bIxBrAvU72Gj44/EX9o0gEgR2B5vsKEIdTbwtd5PCQYKDmlLEah3xgQBmTp3d4VQbBGnxYHPAPnvgNc+Xrd5lL8uD1m98z7FSubo060z22m9kXjJBmbFuxP2yUodrEghc9hvbbXxee8DvXkAyNOYlCknV8q/trx0ftA6j3eCdWicj/maFm+QtSUyVGQY0JjCWOIWzXxBpB3kJ8DgmCNYpaMfwyS/9hMfIO91XEOy4PZyQ228v16CXX6TqfkMTs0TpKxab5HOVYGxXrMZm4XrJZc9Dyb66NeyPAQIE3Ltj78g5MDjkHe4KKoFtiBUscl1NKvGvQYUo7s4ogxfFoy+T5QeGgDHYJgjeKWjXsANBqVn2/xOv8TZnfD/ILakO5qOtQ5Wl5OcsETrZNkbNmtPHhek1Dqk/sbp6cpsVrHylE4VEKty70PAF7DGiXhn+l/HhKD3eghEirF+1xjUwNUOt77LNh1GZkGY/iwYPozoNzQahKCYI2il065B9QfVZBv47eGqrt1mN1D7/dsaoA6H33uMrUvmifJ2LJBk5jSD8VWN6flcqxXp4Usb4lKCdOHxULuUU3tUOZq6/PQboEDKm2tj0+YhBr3Bq4Dak/1xBhez5r1BqgxpByCYJXezJv5Aqg9qijfaI0fKa9kxOzkavtpHYRKXeZT9rAdmifJ2LD4zM/sH6dHsSoHOFweq5Xg9iLpby6oc88/BHKM9LNHsbix42RqrUuGOnLxULbUQ7n3E2bEgPf0qhjD0+kLPoLUaEhhBMEqPZqx6CNQY1QJvtVj77es8sP85nch45WUqLO3Okkv5UD7JBkbtrU+DTei2N0c5LwlYbVOlqbhRtRZ2fkDUv8xSVBlXatYim9Phzrb6lH0jIRCCUuGPYd0Y9vbYwSPJy2KAbsWg/IiCFbpyvQVcaBrOqAQ3yy20nGarcH87hSIYk811Hmb/xFzu2ABJBkb1mAL22uj2PBxTBiE9Ro8kSVtUWV6X8ga7Itahxu8I+f+rKgiF77Azpooc7D3JXDsNSQFRvBo4i8xkKR9/2wIgjVK2DHzIODUtp8HiaDbXDJdTI3ZJVQ4Rqf5qNQmiCp7dFgAScZ2PcuU4PbAHqUSsj62e+iG9fK+Kj1LjxrjhoP/rOSod7nmYzyPp0aVjd9T4qSEArf7bQW+n+yBETyc+EssJO3Sxw1BsEbvlsy5C6Ts0uM7EsOMPjgeLY75TetH9ksuqLO1PskvZ8ESSDK2a/JABgeg2M7a1NuC9bqbg1InUEEeFgBjh/FVHla5he/eJKih97nC3qr8o8jx02KhyHRfjODhhMBYSNa1XzoEwRrdnLPsI5Cze5vkJIo1frCkLeZ3tUiMdNgXdV56/8bSNlgEScZmyXlvcjsnijXaxNa6WK+ZvQgYjAojxsKUfnyliJLPabZKhxrrmlE2ROLvyRv6PAL3gFY6Et+DCYFxkKx737QIghWK3bTwEAbVetTUkTgO1ohjxGjML67UOfpMQ6Vm66izVcIiSDI263hZfI+g2G+Z4t0e2GO9Kh/ksjfK7aoFc7ry1ULLRzFgEmokeN/gUAX+1rXuB8Gx7xAXEt/9CUviwKV7n7QIghUKX7TsBZDUv5sXieWC7wc6LJIwvzEj8TzvjDprfyD1FTcsgyRjs9otJag1ik0ZwOAArNe7tPHZ70go9rjgS6b04xtsr6/nl/aosbIlZUMk/tr70bPioebMXCS++wFL48ClR580CIL1id2y8AAGuX9ql4pEc6/UM+putMf8zpeItztZDHWe5XvNmmZYCEnGVn1wi0z+NClKyZ63uJ0T67X2B3rMRLH4Skept1niWyzoTNKLOVEh3vsmO2rxV+TVfX6D7D/XlUh09wKWxoNrj95pEATrc3HZipeAQ6OOFSQSz8uyNyl5ICnmF1PkKsPHoI5cbztN1mEpJBlbFdiBjgtQ7Fg5KhzCirVYxb4qKDZiLJkvpObbdFxE6RA7VPi1MQXCdPy5O533gdPg/s4kuifjF8eBa8/eqREEq/Ny9dIwDHL81CY9ieldtTPkOZ4GDRg0iYKnHVFnWVvSX02LpZBkbFXpk5wujmJtgljeEuslf/ci+QtHlLrjGW8XUppv9NHnLhMHooJcPJSVzfkzsdPGfIIGM7KR6F5MnPcJkvfslRpBsDbxe5ZujQMcG/xYSUeielv9DG4nsqEBJ8rpHc7lR52H3u/ZUg+LIcnYqOteeF+SUOqde1SKp85Yr2duVNmHYv7BDB3HNzvmKzuEFkCFA1XwuO7I/zrR8QpknluXRPdm2s+R4NKrTyoEwcrIZ1esfY5BsTY/pCaRPa0dRpqDBdCAyILhTBiEOnK1/bQOwnJIMjaq/1Rm9EKxhZ3oMhcrdqgSPX9Gqeve+lQRKfh2AydT4KwjKlQ5wLzO/Le3gxaCrucYFxLbh1lT34JTt4FpEQQrE75yRTgG6Vu18SbRXat1n3QH8qMFPWZT8qg96szvQsYrKbEckoxtisv03OFJWhQrfpbzhbBiS9sxuxtKNVvHxIEkgpiiV5jVHRXOFue766n4D/K6nr9BkUWFSWzR8ya+BIefhrohCNblt3UrT2OQpI5/DQcS35EGb8m6Ky9acKAKzhdyo86dAlHsqYYFkWRs06ZGNF6PYpd8KHQeazZyDNvqoNDlAqS/m4zEcLY4ae8kR4XGv9IqmD+K6LoLXMZ1tSeRxf4y7inYtRmeFUGwKq82rj2kB6QKLb9PgTGs8Y+l8HY3tOBdgQfM7IE6CRWO0XEBlkSSsU11drCrBor1nMWcrlgz/2Aue6PQoElM703i+GEtw8aiwiPvd2xqwP+JmzEqGurNyUwiiw8ecx8kv5G5EQRr8m7Lmn3xGBRo6ZcJo5CnDoAa613QhPZLqHBAhzrT+pH9oiuWRJKxSU8y6zPds0OpGPfXSZ6mwpqVD+G9Kwp53tT9lpbEcSdvXNJwN1QI9if91bT8y+mfLkHG2Q1JZPq1I28DjUZ7IwhW5P329btiMPBo5pcfI4nvNRfaz3dAE7bXxeVyNtS5XihGOlQeiyLJ2KQJQxg2FsXWNaP5Sqxa1gdpXqLQjbz4HiGx9JhNxwWoIDfcQuN1Ep+9HjFPRuo+NjmJS949+CJQc2wRBMF6vN76695YDDI3bVZUwlgeND8OY4ZJaMIr72cs7oA68aVC6T0dyyLJ2CI5dzh3PFCs+l4OVMKaxTnpi55FoUmDmN6bxPIixwe7q3lQ4bd8rxgUIMH7GdPfQ8FFxUhkpwYdAcqPK4sgWI0XmzccjMfgu6bNSukwns3t3mC/uA0a4beGWtsl1Bk3nDxhzlgWScYWhZSn0gEUu59dzh6uw5pFeNB4PQqVPc4dDxLNuOE0XYsavzaGfpOj5kx+DUnH9LQncV0fshkoMqGKhCBYibtbNh/TY+De6PtydhjRp/5zIOvqUmjEumakuuKOOmHF43UnSmBhJBlb5B/MyuYoNmYkY4Zj1Q5Vot8UFEr1Nus9Ek+kx3Ppal7UmN8F3KPfgH27YZlJXA9HLdNDrvHf6xAEqyCf27L5Cp9lafx9SR1GdavZBfj+l5RoxDPvV6zyQ52YolcYMh5LI8nYoHdu0SmeOqOUPsc96X5mrNqqFszohTJvU1HxIIlo8kBaLkeVxT9hoGs5IgeJ69XE2THgNrKdA4JgDT4d3rblMZ/latS4iISRLe8cSZKfO0pohNxgK43XSagzeCIFzjpiaSQZG7SwE13motj+qtTYhXWb34WlbVDmYkHaLiERfcj2WncrB6ps7P0gRZ2heUlckTMnv4MUg3okRRCswKOdO/ZH8VmJBvU9JYztY9dg8FxbAM0IakP6K+lQ50Q5vcNZHyyOJGODSpzhXGEUa76a9Y2xbhMH82sjlNnSgNEjSEzjhtP+F9SJ/y2DHYkrLnD0M3DqPig1gmDxEs7s2H6RzxwrN6jrhgns73QH2s1KhmY8yP+eTQ1QJ7JgOOOHYHkkGdtzJT8+YRJKvXGLSfM4CdZtzEi210aZmb0Iak1iepf1nX14VsxLv35YOOjajcyEIFi6x3v27H/NZ+lr1a7uiim86LMCXBY2Rzv01ffTOgiVus+hxDF7LI8kY3t6/8ys7ig2pzu9ZmDlAoaypR7KjBzDrhokqhFj6TwPszrSLxRoNN4TQbBsn47u2XOFL4rWrl1Eh0nIS/u/hrJLc6Ih87qS8UpK1DlQBeewPFggScbmxLq/SvIkNYoVusBlb6zc5IH82ghlRo9iVw0S1eusHx3vZMJ8rg3cDlSYWAJBsGT6CwcOhETzWYrKtWu6YSrXO4VAyintdGhIuE8Ue6qhzrv8D5nZA0skydicDU34YTWKhRWm2Bms3fS+rG2KMmNHsKMWiWvQJH5aiLk8HRmoh/yTq0sIgsWSbx04cPg1n0nFqlcvYY/JfAqYGActpn2HliSUP07neajUbikV9+uwRJKMzam5m71VUazbXBZ0xNrN6snK5igTMJRtdUhcLz0+2F3PhVl8nDo1EjKOa2WHIFgoOTzkyMHHfOFevXqVNJjSnu63Icf8qmjL1P54XHRBnW31cL2UDYskydiah1nlrHd1KBXt/tb5aQqs3byuBLVGmYmD2VKPRDZ2BM3WYAbxS0Y+A9fBPZMiCBZJf/1ISMhTvkhVsVLlPBImdaXfHrAfMMwZbblWOEY6Ug51Xnr/xi/tsUySjK0ZN5xRI1FsVQtaB2H1FnUksB3KTB7IpgYksg85XnC+EKYmbx94Hew7D0+HIFigT+dPHD/6ii+SlqtUuaAdJvZsRKAeSi/0RmPiS4XSdyoqNVtH7W0SlkmSsTH6nBFSRFYUq3KAw+Wxekvas/AnlJnWj7VNSWyzelJjFyZ2tv8R4PsJuRAEi/Ps5Inj52L5wqVMed9ijphc1IyJHyHLxGY6tGbSIDzPO6POGj9SX3HDQkkyNuZgZaruRbEID3LekrB6wf7M7YIyy9oypyuJLSbPfQ6Xx5QihqwBSk0tjSBYlqiwM2dP3+V3KcuV9y1kjxnoVw55BK5DejqjOdcLxuqOl0Sdp/nesKYZlkqSsTEtV7KmGYqNGEvAYKzfqhbM7IEyu2oxfAyJbllbSh2XMJm342bHQq6JDSUEwXLEXT175uyVBH6Xq3Tp0l46zELeNfw82HUcmR7tSSh7ir5TUUeus5Oma7FYkoxteev2KfWTJCiVkP2h7qE71m99U6b0Q5nzRfhpIYkuocA1ttTDROIXjXwJaUf95IAgWIioS2Fh56/E8DunYqVLl0qHucj7R5wC6kzOixZN60fuC86oE9iB766mwWJJMrZlXle6z0KxPTWovR0bcLAyAyahzONM1N9M4tvUCM+LjpjE7r7XwKnPwOQIggWQn1y+fCHspp7f6byLFyuezwEzOjTiGFBoSmU06ZbPJ+loGdS5l/8j2+pguSQZ21L0HBd8UKzpejY2xAZc9cZ/GcrEOVLyJIlPLnOSSQMwgWt9dwN+E7MgCFr35urly1euvOFfpFyFihcrnAzzOjbiEOA9poGEJiWUP07Pn1FHX/kw7QKxYJKMTblYkCKhKPbSPS79IwdswKu0VN+NQmleZ7+LEZwvKie9mBNjezlyYQKUnFESQdCwhAc3bt64ceM3/s3Bu1ChQgVcMbvjY/YCnqMb69Comb3wuJQMdWb1JMvl5FgwScam9JjNvM4oNrMXfadiC/RJ4guGoVDeG0k/ShhB9zmUPWyHUcXOGfMOMk/6QUIQNOnjvYiIexF3bn/i/2Tyzu+dP58jGiDvnHgMyDnSzw6tupM/msPlUedmwU8cqIQlk2RsySf3N05PU6KU7HOZa3mxCRmfuD1BoSoHeJkGI/hYIIKpfTEieUv/cEg2uI8zgqAxnx5ERETci4h4yR9kyOOVP3++VGhE/NpJl4FsI1rZo1n6SkfoOgd14suepvssLJokY0vW/kCLFSh2tjilTmAbipy3i9WhzI+/cLYoxmQgxN0AACAASURBVBBSQU5y3gujudD7MEhtx7khCJoR/ygiIuJeRMQT/sg+p6dBnpRoSNTSqfeAvAP9HNGwud3IdtkFdQKGkutCUiyaJGNLqu3jYEUU67SQX9pjG2rt4nk6lJkwhHVNMIo+Myh60h7j+G3IUhkqTC+EIGjBp/AbN+9GRDxM4A+kjNmzZ8uePbu7PRrzcsGsF0DJQXV1aFlE/kj2V0adi8XidMdLYtkkGRtyP7ucPVyHUlFu75M9dcU2tFvKpfwos8aPSQMwiuhCNxk7DGOImzvyPeSYWl9CEMzsxY2bN27ciNDzB+mzZ8+WPXv2zEnQpEuzVn4Cag4qJ6FpctUDdFyAOrHFLjE4AAsnydiQ0aMYOwzFlrem7RJsxOCJ7KuCMqdL0mk+xnGmlN7hTEES36HuVyHF8G5JEARz+hh65vSZR/x/KbNnz54te/ZsSdGuhG0zDwO6ZgN90LpFHcl8JTnqDA0g/9kkWDhJxnboPe7r7mdCsQpHOFYGGzG7B0vboMzz76i+GyMZGkD+M04kskf91oLULiA9gmA28VfPnD59Tc+/uHjm8cyTK1tKtO7tkjkRQIr23bKjeQ+8P7C7OuqcLq13OFMQSyfJ2I591ai5E8XCc5HnuoSN2FaPEaNRRnaJyn0TI4kpfolO80lUMdPHRUGxOcURBHMJ373rSCS/cy3i7enp6S5hCS4uDI4Ecvfwd0H75Do7aReIOlGFbjFuKBZPkrEdP6xlfWMUGxrApAHYiqvetFyOQt5XHaN1GMmV4tH83JNEdLjTTUg7sa0OQTCLyEO7d9/hC7v8JUoU97TDQkStXXgag+o9q+uwBKub4341Jer0mknx4/ZYPEnGZrx2i0372BGl4rM+sXuUAVsR6UKZYyjUYAsR2TCWJe1hZg8Sy4t+waDrMiYVgmAG8rXdu47G8lkG3xLFCyfFclxZuPwdkMy/uyeW4WXel2xqgDpHKuAU5onlk2Rsxuwe9J6OYjvqUH8ztuO75+6PUWjQJHbVwGhGjYZZ3UkU8tL+r6HkAh8EwQxur159g8/sy9aoUUDCgkRvWHgcA5+OLZJjKfyD+X4D6nwsEMGMXlgBScZWyIUuctkbxb7fyJZ62I5Sp4hyRpllbZneG6ORR46F2d1IBNc6HYUUk37UIQgm93Dd6nN8lrVmjUquWBL59NI17wHnZh1LSFiMfdVIcd0NdbrNpdxhHVZAkrEV54tQ/DSKPc8Yn+GhPbaj+Wque6LM6ZL8tBDjkUeMgzld+VbR46bEgd/0DAiCqb3YsPoon5VrWDOPhEV5snzZDQzydWyVEgsSmT+CRT+izsHKOF/KiTWQZGxF13ks/AnFpvVj4ERsyNAAdtZEmbep8D2CEcnDx8O8znybPV3uQo551RAEE0vYuXB3AgaF/ZplxrLEbFu6Ww8ka9K+jIRF6TeN8gd1qPIx/z1mdccqSDI2ItrtnfOz5Cgl57vOzdzYkMAOzOmKQm7P0v+GMcnDAmB+J77Bs95rwGHgEGcEwbSeBi56iEEeP7/cWBb5xIp1rzEo17aJCxbmXHF9kku5UafLfMof1GEVJBkbsbIlrYNQ7FQpyh7FlhyqRO/pKFTxMK9SY0zy0AkwvxNfS79w8DvwXZAXQTAp/cEFmxOATM39fCQsy42VKyMwyOzvnxOLE1f8AuOHoM6BKiS97IF1kGRsROWDHPFFsR9/YWkbbMnjTNTagUKdF3CsDEYlD5kI4wdLfJWLHU9DmiltJATBlF4uWxgOSLU71bDDsjxbs+IcBs4N2laywwJNGkT+cw6o8iH/fWZ3w0pIMrbhbg5y3ZRQ6qPbR5dnybAlcooP2e+i0KyeLPoR45IHTwL//8ceXABWdaULGP1OBAgQ3IKF4E5xl+LuTqF4gbZA8SJFi2txd3d3d3cImgR3SYAQ3Q860zedmcq+sck5919rahxs927QxBBoOSYJQkSl2+PmBwDJ27Zzx1xer1+xNxRwKP9VbVdM6Xaujw7HC2GbDjMps9cBizAU9mHAMEb0QduCVrSdjX0pdNp474KeA1/y3WQimRrTG7JMroCNQpb1vwdZZpRBiKh0evRaBZTrUMsZU/HdtGJXEJ/k/6pxCkxKldtP1wnYZndF4lz2wCoMhV0ISffA4X5KtJU8wvEi2JcWi7mYGz0vk1DqIJFuRdv3UG5kAWwQuu6n6xCzX6+YCBF11M7R+4G4bTtmxlQ+bFm5NYBPPJo1y4p5zWuD+5W42MQ3532mdsIyDIVd2FGF6pvRdiMr2a8Y2Jfh/VjRCE2pHiV8aRDpbjU7DTQalhFNauuAC0ClyZkQIuoErRp9CUjepWMCzOTdtrVb3/NJqkaNChqY2JNsb9heGdu0n82XexywDENhFxqsYX1ttPUezbhu2Jn1dRk0EE1VdnA/NZEvdGX/u+DUfkAKdOztfwIoPqwMQkSd4MVDvIFMPVrEwkTeblmz4yOfJGvQqLgD5tZoFc2WYJtdlYhz2QPrMBT24HmqoGQPnNEVlOap08Nk2Jnr2Wm8HE29R7O1KlEhcNaQ5xC7e494/A21c9QBIP+wSgZCRJnQVQNvAoV613LEPF5tXLs7kE8S1WlS2gmz21qdxNeTYpO3ue4zvQMWYijswcQf6DEGbZtqUXct9iYwdsgX59G0pDkjexM1/MaPfQdJenaIx1+4sW7JNSDH0NoGQkQZtXnAJaBi31IGpuGzccOhED5JVrdeaWfM70N2HxY1xzbt5lBut4GFGAo7oHJf4XpWtNXaxNaq2J2sN2K9c0TPpTw0XUpUeTZsRhDEb9KsiBN/xOfggYN3+STT4IaOCBFl1N7+J4FSw0piFurCxo0X+CxV3frFHbGEH0dSdo+BTfZUIO4Vd6zEUNiBU4UpdhRtj9OEpPJxxO7UX8uNzOgJjBuU/SpR5+6A5QqIVyyTR/r0HnH5f8r74IGD3vyqRLeajggRdU72OQAUHFbBwBwCD23aeI/PMtSuV9gBi7j6RXCMS1mwybtc3kzvgKUYCjvQYSZz2qBtdG/6/oz9GTyI1fXRlO+8g28cotCNMcv8+adk6dN7pE0aN8j3waWD9/hVjKI163ggRBR62GcJkGtoTQNTeLJt624/PitYq1YOA8tQZQ4xYAi26fILpfc5YCmGwvo+uPnGeeyKLpX1JrczYH/W1+WnwWhqN4cjxYlSfuu37X3BH4hVtHTpwi4IEZX8xw//AJmGNHTABELPbt16hs+cv6xdMxWWsrAlGS67YJOjJZXLpYxYi6GwviXNaTUPbUdKUmY/duhORmqvR9OMjkzqTFRTT+7+6hG/cSlWukyhmAgRtdS6Ht6QaGh7J6K/F7t37njKZ4mrVKsSH4t5mfUFOyphk49f3GBsdyzGUFhfuX0cLoG21vNZ1Bw7FBrvffo7aDpdiBYL+V/x97nz+MUH59ip0+WNgRBR7mKXg+DYaVAiorugEzt3nlV8lqd6tUKOWE+7OTRciW36DafQMUcsxlBYnld6Mt0w0OXn9j7e49jYo6In8HVFz0fX4OxXEcIeve47KxQqTMhB9Kbu7Nm5z5fPYperXjU1lnSyCK6eKbHJ+YIhzudyYjWGwvIGDmFEH7TNaUeH6dil9rM5XgRN+c47+MZBCLuj1nz/FDKMr2EQnT3eu2/vPX6Vu1KlEjGxqJDCZ5nYBZsEFbrAoIFYjqGwuhCP+w73U6Kt6AlOF8AuTfmeme3R1G4OR4ojhL158O0miDugS0yirzcH9u69zq+SVKhU0Q0Lm/UNuc45YZPh/ch1JgaWYyisbndFqm5F27Uc5LpoYJcOlabjNDTN6MikzghhX0Jn9PGDmlNTE129OHzw0AXFZ7GKl6uQzwFLe5n5FQdLYZPrXwQ6nCiI9RgKq2uygjX10NZjHBO7YJ/eJqDwCTSdLkSLhQhhV661OwYpJtcziJYeHzp46Cq/cihYrlyxWFhexxk0XYpNQkoep+doLMhQWNxrt4AkD2OgKzD18xiPEmOnMt+K5eeEno+uwTmuIIQdCRzxcxC0HZ2Q6Cf02rGjx27zKyN36XKl42MPzhZUcW+kxCa/dCHTRRcsyFBY3LRv6ToBbevq0WAV9qrJCi7mRlPeCw6+cRDCblxvdh4yzSpDdON36uixE2/5lWO+0qVKJMROhBY/wZge2MQr5wcOlsKKDIXFFTjLpVxoq76VHZWwV2N7Mq8VmtrO5WgxhLATalqPjzj1HOBCdBJ89dSp05dD+VXMAqVLFXPFjixoRbaLzthCVdxDp6lYkqGwtotfUOA02h6mDU3j5Yi92l+WTlPRNKMjkzojhH140moHZFuSj2hD3T11+tQ5f/4hefFixfLFxL74Zn7KnnLYZEEr0l5xxZIMhbV1ncTUTmgb3o+fBmO33iag8Ak0nS5Ei4UIYRc2tHsB349yIVoIuXH+/LkLr/kHx5zFixVLZ2B/+oyi3hps8iLrS7ZXxpoMhaUFpHoZ83FCdKlMd7jrgf3KdDuWnxN6ProG57iCEHbg3Q9zIMX8yvzvvb924fz5i/78U/pChQrmjYN9upstMIanBzZpuZAmy7AoQ2FpaxrQZBnaDpah3B7sWOOVXMyNprwXHHzjIITlnW10B2rPSsr/VNCty1cuX7mr+Ce3fIUKFUiCHau/lj4jsMn+siS4ngKLMhSWVnU7u8uj7etFLGuCHRvTi3mt0NR2LkeKI4TFqdnfBxJnUmuD/xX/W56enlc9A/lNhrz58uZNjp07WIbkt1yxRUDum8xsj1UZCit7mDY0rZcDunxT+Cd45IId21eOb6egaWYHJnZBCGv70GkhFFqakf+B4Adetzw9Pb0Vv4mdM2fuvHniIwgpcIG5rbHJ4EEUO+yAVRkKKxvRl4GD0Da7PZ2mYs/eJKTIcTSdLUCzJQhhabfqX4Lvx8YgKoU+8fb6xPteCP/PMUvOXLlyejgg/mFOO/KedsQWN3IHOp3PiWUZCgtTmW/jlQ5tRU9wJj92LdNtF18n9AS6BmbxRAgrW9/SlzhzGhM11CsvL28vLy+fj/yOa9bPMsRE/I5vpmccLIUtVNkD9BmBdRkKCztcirJ70XY9O7kvGNi1xiu5lAtNhU7zJj5CWFbwj2Mh69rsRLZ3Xp94e3n58XsJPNJ5ZMia1c1A/Jf+P1N/NTZZ2BKPK7GxLkNhYa0WsKQZ2nqNYWIX7NuYXsxrhaZvp7G3LEJY1fP6h6DRbFciT4i3p6fn9Rsv+D0XDw+PdB4eHgkQf+ZhJn9nz/TY4kXWl2yvjIUZCuvyS/Eh/mMXdAWleer8KAn2bV85vp2CpvmtGdULISzqanVvnMd9ZxA5Pp4/efLqzQD+xTmtx2fpkhmIv9F2Ll0nYJNWC2i8HCszFNY1ty0dpqNtUy3qr8bOvUlIkeNoupKL+qsRwpq2N/Ij5ZqiRALldeLEiQtB/CZlxnQen6R0ROi5mjs0/p3E2OLAl8T3TIGVGQrrKnGUUwXRVnsjW6ti7zLeieXnhJ6QeB/SeSGEFalfuoWSf2MqItyH/du3efEPzpmyZs2aLYsrwjY1tjCiD7YIyH2TGd9gaYbCsm5kJeclA11PUoek9HHC3jVeycXcaCp5hGdJEcJ6gr6fCfUWxSaC3dq2/UAAv8papEjhHM6IMDhYhtQ3XbDF4EEUPeKApRkKy+ozinHd0Da2Jz8Ox+6N7cnc1mjqNoHtlRHCcl432At9hzoQobyWL7/CZ84lSxcplAARRqrwaea1whY3cwU6ncuFtRkKqwpO88TpYTJ0qRzXuZkJu3fgSzpMR9OyZgwZgBBWc7vaTWLM/YqI9HT1suN8lqZKlXKuiHBY1YicFxyxgaq8i94jsThDYVVbalBnHdpOFqHkIYRffJX/DJpuZabmRoSwmAsVn5N0QzEizse1i/eE8Emx2lVyGIhwCc5+i21VsMX6uqS5HgeLMxRWVXc9m6uj7ZtZzG+JIPt1Z7+Y6AlN9NbtEUJYy9Fqb8mxJR0R5u7MeS/4JFfTxukQ4Ta3LaX3G9jgQ3Yf1tTD6gyFRT1LFZzivhO6PqTwi/s4LoIWizlVEE3l9/IgFUJYyc46/hTdmpAIErJ1+k4FpGvaJCciAgRkvseR4tjip6FU2GlgdYbCoiZ0o/dItC1uQeu5CJjcmWkd0dRnFBtqIYSFrGkaRMV1cYgYr6fPuA841+9Q0kBEiKnfUWUbtriTI8D5UlYsz1BYk8p1Fc8saPvyAEeKI+BEUVrNQ9Pa+vQbhhDWMa9dKPWWxiRC3J8w6z2Q7pvWyRAR5EOGJ5zJjy1qbKHXKKzPUFjT6UIUO4q2OxnJ7GkgwD9ecM7LaPJJR6UdCGEZE7pBy9lORIRro5cGg1GtYyVHRIQZ25M667DF1uqk9HTF+gyFNXWcwZw2aBswjJG9EZ/lveDgGwc9KvnzRC8MhLAGNWgIdB3nQAQ4PnITEKt19/SICOTn8dK4lBMbBOa8xfLG2AFDYUkf3HxjP3FFV4jHfcf7bojP2s3hcAk0VdvGXQ+EsIbBg2DwAIPwO9d/O5Dw2++TISLUsAE0XYotxvWg1AEDO2AoLGnpV7Scj7Zdlai+GfGrWd8woSuaBg5hZUOEsISJP8CEroSf50+rgVTd27oiItabdG8dr2XGBs8z+hpn82IPDIUlld/LoZJoa7ySdXUQvzqfj6ZL0bSlBj3GIIQVrKuvGP8D4eY9eFEopP2peQxERBs2gFbzsEWHmbSZg10wFFbk7UHGmwa6XrkFJnkYA/GrINeATDfR9MSNMvsRwgJOlfHnp8GE16tBM4IgWf/2MRERzi/dK4cbGbHBpbyhrreSYxcMhRUNGszwH9E25Xt+GI/4pyIneZ0ATWkeuL5xQAjT8y78jOYLDcIneOZPryBB7+/jICLB6N58tRgbqHL7Gdkb+2AoLCjU457DvVRoy3eeyzkR//TdVPaUQ1OdDVzPihBm96b4NUrvjEn47OtyBWJ3654AERk+eDwzrmXFBhvqkP5aTOyDobCgPRWosg1tF/JS8BTiNwtbMrI3mob3Y1FzhDC5oCp7yXw8EeHi1WMd8NXIVIjIMakrDVdig8Act1lbFzthKCyo6XJW10dbl1+Y3gHxm2s5qLcGTbsq0WUiQpibajeXJCcyEB4BI0cEQIFfiiIiyccMj7iYGxtM+Z7S+w3shKGwntduAYkfxkRXQMpXsR4nQPwmJP77tD5oepGUUgcRwtzG9SDm3uKEx/G21yD5iK8dEJFleidqbcAGvhlecKog9sJQWM/0TnSZiLbVDWm6FPEvpQ/xNBma0jxwfeOAEGa2v3woyxsTDn79piicug6Ih4g0QZl8OJMfG/T/mcbLsRuGwnoKnuFCHrRV2cGecoh/6T6erVXRVHMztzIihIn55/Ci/1DCYVuH+5B/bh5EJFrcgirbsMGjjP7OnumxG4bCci7lIf8ZtN13V+53HRD/sqIJg39C06DBrGqAECbW/2dK73UkzF59vwxchnV2QkSi0NxXOVQSG7SbQ5eJ2A9DYTk/TGTKt2j7uT+DBiJ+505Gqm9G08ba/DgcIczrep4g50tZCbN9LR5C+ZnpEZFqSw2KHjXQdzV3aLw7SbAfhsJqAlO+jPkoEbpUpjuGlzvid1Ti18kfG+i5506lHQhhWqrsAfoNI6wC+o2DhOO/NhCRq+QRNtbEBjU3M6IPdsRQWM3a+jRejrZDpSm/G/FvKu7mfmr0qKQvkz0xEMKsFrfA46oLYXS12UUotzAVIpIdK072yw7oO1GUVLdcsCOGwmqqbWNXBbS1XMiyJoh/02846+qgqcIeHqZECJN6neU5W6sSNmpKr4/EGNHVARHZam1ifktsUGEPM9tjTwyFxTxKE5r2riO6fN0+xH/sgvg36+oxYAiaeo1hSzWEMKkOM6m3hrB53WIL5FiaBxHpruUg9Z0Y6DvwJek9nbEnhsJiRv7IT4PRNqcdHach/p1XeqptQdOKJgwZgBDmdKIoca+nJkzO1/OCLiNcEJGv1QLGdUOfKnmURc2xK4bCWlSWW9z1QFux45wugPh3KtGblA/RdCMrddYhhCmF5L/IhK6EybxOASRaUgURBR6lC0pwzxV926uS7bIjdsVQWMuRkny5D22e2ch10UD8h7L7eZoMPaHx3qfzQghTmt+aL047EQb+38+FgqvdEVGh33B+HI4+VeAcq+tjXwyFtbSez+Kv0NZ7NBO6Iv5T9/HsqISmEkd5mQghTOhj5vscLEUYeNU7Dx0nxEREhQ9pXjl7p0Tf+rrkPeOAfTEUluLn9j7e49joCkrz1PlhUsR/WtKc4T+i6fsp7C2LECa0sCXVthAGB+u+wmVmc0TUmNGR5ovQF5r3EluqYWcMhaXMa8M3M9C2uSb11iD+y9WcNFiFpnltGNsdIUyo2HGOFsN2878JItPaXIioEZrtJufyom9jbQqdMLAzhsJSSh7hZCG01dnAlmqI/xIczz/jLTRdyEuzJQhhPp7ZyHXRwFahfUdBpZXxEVFka3XK7EefKniWzdWxN4bCSm5mIcdlA11PUwe73XNC/LciJ3kbDz2BcYOyXUMI8xk0mPE/YKv3zdfDdxOcEFGl3D421kTf9qrkPWtgbwyFlfw4knHd0DauB31GIP5AxxkcLIWmfOcd/GIjhNmo7J7G/VTY6GGN8zhM+g4RZS7kJeMNB7Sp4sdZWxe7YygsJDjtY6eHydClcl7jRmbEH5j1DRO7oKnNPI4XQQizufgFpQ5ioxvlHxBvZWVE1Gm5kKmd0Le3PDkuOWB3DIWFbK1O7fVoO1WYEocRf+RMQb5egKap3zGtI0KYzY8jmdYR21yo+Jx0W3Igos5j96CE9+Ogr8xBljXB/hgKC6m3jk010NZhJvNaIf7Ix7ghuS+i6Vhx2s5GCJNRGbwcHifDJservCXPzuSIKNT/Z/qMQN/REmS+5oj9MRTW8TxlcIr7Tuj64OYb50lcxB/KfdnxXSz0vIun8p9BCJM5VZgKu7DJntrvKbo1ISIKfUjzysk7FfpqbGF+S+yQobCOiT/QaxTaljSn1TzEH/t6EacLoCmbZ4x3zghhLt3HM7c1ttjYMJDy6+MiotLMDjRbgr4ruUhzxxk7ZCgsQ+W5zPWsaCu7n8MlEH9sUldmtUNT0+VcyIMQpqLc7zs/TYgN9lQJptaKWIioFJr9Bmfyo+/rRUzoij0yFJZxpiBFj6HtbgYy3TAQf+xQaTpOQ9OYXsxviRCmcjk3lXZgg6vFfGk23xkRpbZWp/QB9N3LEJzwXlzskaGwjE7Tmd0WbQOHMKIP4k/4xqfwCTTtLU/nSQhhKmN7Mqkz+p4U8aHmOkdE1Cq/lw210Nd1Ej8Nxi4ZCqvwd3sb+3E8dIV43He4nxLxZzLecfFzRM/LJJQ6iBCm0ngll3Kh7UOZ0+Q/GAcRtS7lIaOnI9pepv3gci8JdslQWMWyZny9AG27K1JtC+JPNVzN1exoSns/3msHhDCT7NdjvHNGl2q0mjQn3RBRrPV8Jn+HviED+W4y9slQWEX5vRwshbYmK1hbF/GnRvRl8VdoqrWJ2xkQwkRCXIJyXULb+rq4Hs2FiGLP0gTGfxAXbf7uzx1vp8M+GQqL8E6vMt400PUqZUCShzEQf2pHFbqNQ9PAIayphxAmcs+dWhvQ9T7bfVY2RES1wYPoMQZ9c9rReDl2ylBYxOBB/NwXbVO/o+sExJ97moIv96FpQx36DUMIEzlYhq4T0NV3BBV3GIgoFpD2mcNdd7SpnNc4XQA7ZSisITS9j4NParQVOMulXIi/kOpRglcGerw9qLYFIUxkQSsmdUaTV5agGFcyIaLaglY0WIW+nZUpcRh7ZSisYW95Km9H28UvKHAa8Veqb+WuB3pU4tcpHyKEiQwcwqYaaBoykB+HI6KaynuRo8XQV2kX6+pgrwyFNTRbxqoGaOs6iWkdEX9lwDDW1kVT2f08TYYQ5tFiMZdzokfluM791Iiotr8shU4YaLuSi/Q3HbFXhsIS3rh9TPQoJroCUr2M9TgB4q+sq8eAIWjqNoGdFRHCPEoewS8uei7npsRhRJSrtYllTdDXdi6TOmO3DIUlzOhI50loW9OAJssQf8krPdU3o2lxC0b2RgjzSP0w6TM0DRrMlG8RUe12ZpXKyxltT90D4t93xW4ZCksodJoLedBWdTu7yyP+kkr4NvV9NF3OTePlCGEagbFUoZNoqreOO+kRUa3zZEb0Qd+gwfQcjf0yFFZwOTf5zqLtYdrQtF4OiL9W5iDPk6AnyDUgiydCmMaDNNRZh6Z85x0/OiGi2JvU710eJELbx7TPHb3SYL8MhRV0m8Dk79A2oi8DByH+xg8T2VUBTQXOGr5xEcIsLuSl3Sw0JXzjcRcR1cb1oMN09M1tS+Pl2DFDYQGBqV7EeJwIXSrzbbzSIf7GwpaM7ommdnM4VhQhzOJybtrMQc+bhJTdi4hiwRl9uJ4VbSrnNU4Wwo4ZCgtYV49GK9B2uBTl9iD+zqU8NFmGpmnfMrUTQpjFnYw0WYae69lpvggRxdbWp8o29O2sTPEj2DNDYQHVt7KzItpaLWBpU8TfCYobmO0amo4Vp90shDCLJ27U3Iger/Q0WoGIYiWOsrMi+irvZG1d7JmhML9HaULTeDmiyy/Fh/iPXRB/K/85B7/Y6HkXTxU4jRBm4ReP8rvR8yIpVbciotbpQmS/YqDtSi48bjlizwyF+Y3qw4AhaJvblg7TEX+vzTyOF0FTlpsx3zkhhEmEOFH0GHoCYlHyECJqNVvGrHboazuXiV2wa4bC9FTWm9xJj7YSRzlVEPH3pnzP9A5oarySyzkRwixiBeS5gB4VIzjvOUSUepguOPF9F7Q9SxsQ74Erds1QmN7REpTZj7YbWcl5yUD8vaMlaD8TTaP6sKg5QphFotcZb6EpycuUDxFRqu8I+g1D39Cf6D4W+2YoTK/NPBY1R1ufUYz/AaHBL74qdBJNi89BwwAAIABJREFUOyvTbRxCmEWaBykfounLAzxMiYhCH9K8cvZOibaAdE8c7qTDvhkKs3uX4r3rk9joCk7zxOlRUoSOzLdi+Tmh52kKvtyHEGaR5Wb8N2jqM4p1dRBRaNY3fLUYfYu+pt4a7JyhMLv5rWk3C21balB3LUJLw9VcyYGmlI8TvjQQwiTynXcORNOGOvQeiYg6Ksd1zuRHm8p/niPFsXOGwuxKHuFEYbTVXc/m6ggtI/qypBmaqm3D2x0hTKLkET7GRM/jlJQ+gIg6OytT8hD6DpahwCkDO2coTO5mFrJfMdD1LFVwivtOCC07qtB9LJr6/8z62ghhEvXWcS8NmtLej/0sDiLKVNzN2rroq7OBpU2xd4bC5H4cydjuaJvQjd4jEXqeuFFuD5rWNGDgIIQwic6T2fclmtrNYcHXiKhyIS8etxzRdieTSukVA3tnKMwtOO1jpwfJ0aVyXcUzC0KT25NELwz03MlIzY0IYRILWjGqF5qOF6PUQURUabaMKd+ir+skhv+I3TMU5ra1OrXXo+10IYofQeiqsgOftOgJTeCX1gchTOJqTuqtQZPK7snNTIio4ZMhJPG92GjzTe3ncj8xds9QmFu9dWyujraOM5jbGqGr7wg21kRTqcO8SIwQ5hCS4F2ae+ga04u+PyOiRtdJDBqIvgnd+GYGwlCY2vOUwSnuO6Hrg5tvnMeuCF2rGzJoIJq6/MKecghhEmUO8jgFmp6kDnG7GwsRFV6m/eByLwnaQjJ6cy0bwlCY2vju9B6JtqVf0XI+QtutzNRej6b5rRnbHSFMotcYNtVAV931jO6JiArDBvDdZPStq0fl7QgMhZmpnNfwzIK2cvs4VBKhLTT+O3dvNF3IS7MlCGESqxsyYAi6LudR8e8kRkQ+f/fnDrc90FfqMDsqITAUZnaqMMWPoM3bg4w3DYS+Ekd5lRA9gXGDclxBCJPwSUelHWhrPZ8fxiMi38wONFqBvrMFyHbVQGAozKzDTOa2RtugwQz/EWGD76ew70s05b3g6OeCEOagUjxL9MJA14PM/s43PBCRLSTrbc7kR1/zJcxsjwBDYWIf3HzjPHZFV6jHPYd7qRA2mNeGcd3Q1Ho+JwshhElU38rtDGjrN5z6qxGRbW19yu1B36N0QYnux0aAoTCxJc1pNQ9teypQdSvCFufy03wRmn7pwsz2CGESQwaypBnafDM+Z0kzRORSRU6xsyL6+v9M358RnxgKEyu7n8Ml0NZ0OWvqIWwREDc452U0HS5Fh+kIYRJ7y9NmDvqWNcP1ogciUh0qTZ7zBtr807x08k6F+MRQmNfdDGT2NND12i0g8aMYCJvkueT4LhZ6fONT5DhCmIR/woCkD53R12IxRQ85ISJT9a0saYa+Oe1otgTxmaEwr5+GMrI32qZ9S+dJCNu0XMjpAmjKeCe2ryNCmESjVWyohT7fvHcZOAgRia7mJO1tZ7SpXFc5XQDxmaEwrRCP+4733dBW4CwX8iBsM/EHZrVDU/21XM+KECaxvSq1NmCDEyVCHPaVRkSeVguY2AV9uytS4jDiV4bCtHZWpvpmtF38gvxnEDY6WIZOU9H0c3+WNUEIkwhJ+8jpYTJsMGwACY9lRUSWexmCE96Li76q21lTD/ErQ2FajVaxrg7auk5iWkeEjd4moOgxNG2rRs/RCGEWfUYx/gdsEFJtJ+7H3RCRpMsv9B+KPs9suN92QvzKUJjVy5SBSR/EQFdAqpexHidA2Cq9V5y3juh5lIryuxHCLDyzkeuigQ38Sl0g70FXRKR4ls4/tk8S9HWYybhuiH8wFGY1uTPdxqFtTQOaLkXYrN46PLOgR7k9TfTCQAizKHqCc3mxxeOiPlTc4oyIDP2G03UC+p66B7jej4/4B0NhVnkvcDkn2qpuZ085hM2G/sTyxmiquh1vd4Qwi5kd+P4XbHK9+Guaz3dERLy37m+d76ZG34Bh9BiD+CdDYVLn81HoJNoeuIe633VA2GxLDXqPRFP/n1lXByHM4o3bx0SPYmKTI+UDaLrQCRHhRv5I29noe5f2tZNXasQ/GQqT+n4KM9ujbXg/Bg1E2O5hairuRNO6evQfihCm0XQ5qxpgmw0Ngqm7PAYigvmne+bgmQl9k7ry9QLEbwyFOX1M+drlcXx0hWa+Y3i5I2ynkr1I+tRAj7cHVbcihGnsrkiRYwa22Vw/kGprYiEi1tTvaLQCfUEZ73E5J+I3hsKcVjam+SK0HSxD+d2IsKi4m4cp0aOSvErxGCFMQ+W+wuES2GhXbX/Kb4iDiEhBGe9x/gv0LWtGtS2I/2cozKnibvaXQdvXi1jWBBEWvcawpRqaKuzhkRtCmMbiFlTcia0OVntPyY0JERFoYUuqbkWfynuRg6UQ/89QmJKPh0p/ywFdvin8EzxyQYTF8qYM7Y+m3qPZUg0hTCMosze7KmCr45V9ybYtHSLChObw5Ehx9O2qRKETBuL/GQpTGjKQof3RNrs9naYiwsQzG3XXomllY4YMQAjzWNaMPOccsNXZKs9JvrkgIqKsq0fJQ9ig/F7W1EP8i6Ewo9AM3oZPGrQVPcHZfIgwCY3/Lp0Xmm5lpvZ6hDCP0ILnWNQcm92pehOX5bUQEUMVPMv2yug7W4CMno6IfzEUZrSvHJV2oO1aDvKcNxBhU/IILxOhJzSBX1ofhDCRfeVIc8MFm72qfRhjQhdEhNhVibxnDfQ1XsmMbxC/YyjM6KulrGyItp5jmdQZEUZdfmFPOTSVPsTzJAhhItW2MaoXtgtovQy+H++EiABfHmBVA/R5ZQxN6uOC+B1DYUKvUgYkehQTXUGpn8V4lBgRRgtbMronmn6YyK4KCGEiV/KExr+TGNupn4ZBxRUJEeF2rDiZrzmi7/spDO2P+D1DYUKTO9N1Ato21qbBKkRYXc5N4+VoWtyCEX0QwkzazqXLRMJi3jfBZNqYDRFeNbYwrxX6XqT1j30/EeL3DIX5qDyXuZIDbTU3s70yIqyCXT9muommqzlpsAohzORhJn+nc7kIi0P1XhBveVVE+FzKQ+o7MdA3eBBdJiL+jaEwn5NFKHoMbY/ThKTycUSEWeFTvI2HnuB4/hluI4SpDB5EkaMOhIV3rUsYI3saiPBoupxJndH3wf2F4x13xL8xFObTbg7zWqFtdG/6DUOEXccZHCyFpqIneJ0AIcwkIM8NxnYnTN61XAvNZrsgwu52ltAkPrHR90sXmi5F/DtDYTp+bu9dH8dBl8p2g1sZEWE3uz0TuqLp22nsL4MQpnKojHI+mZcwCR06CPKtc0eE2TezGNYPfYEZHnAxN+LfGQrTmdOOb2ag7VhxSh9AhMPZAjRfhKa5bRnXDSHMpfdospyNQ9isa/GexCvKI8LoYfpA13sJ0DevDTU2If6DoTCdwqc4XQBtbeeysAUiHAJcg3JcQdOFvDRbghDmEljsLO1nEkaX69zBYURPAxEm3cfTeyT6QrLf5FhRxH8wFGZzKQ9fnDPQ9c7tneuT2IjwyHfewS82egJdA7NdQwiTuZHvA+vqEEavv9oG9ee5IsLgpfv7WN7J0be6IWX2I/6ToTCbzpOZ2gltC1rRfiYiXNrO5XgRNBU4a/jFQQiTmdOORJdSEUahg4dA9vWZEbYbNJhOU9Gn8l1gVwXEfzIUJuOf8o3LowRoK3WYE4UR4TLtW6Z2QlP72RwthhAmo+qvo9wuB8Jq81e+xJtfF2ErP/fXTrfd0bejCvlPG4j/ZChMZklzWixE280sZL9iIMLlRFHazEHTjI5M/g4hzOZV7ocMGUCY3axzDbqNdEbYZmxPWizEBqUOs7Yu4r8YCpMpc5DDJdD240jGdkeEzwfX0C/Oo+lUYVrNQwjTOVBWGZurEWZ+7VZCsZWpEbb4mP6xcTUb+o6UJOtVB8R/MRTmcjMLWa8Z6ApO+9jpQXJEOOW86vQuJnr8XUPyXEAI8xnRl7iHvyDM1LQfgkiytCLCBjM7UHctNqi2jQVfI/6boTCX3qMZ2x1tW6tTez0ivFos5kx+NOW+7OQXCyFMRzVcQ4oT7oTdqQb3MH4a4IjQFZzZi9MF0HchL2lvOyP+m6EwlcA0z5wfJkVbvXVsqoEIr4k/MKsdmlou5FRBhDAf/3LHyXo0EWH3qsVWKL84BULT0q+osAsbNFrFlG8Rf8BQmMra+jRYhbanqYNT3HdChNeh0nSYjqZfujDjG4QwoZfFblJidyzCLnR0v1CSLa6I0BKa5wr7y6DvZlaVzNsF8QcMhalU2cGuCmgb1YcfhyPCzTc+hU6i6UhJ2s9ECDPyKvKM+isdCIcDTR9D76HOCA2balH0qIG+tnMZ0QfxRwyFmfh4qHR3HNClMt/mdgZE+GW+FdPPGT1+8VWB0whhSmdLv6fLBINweP71diiyPB3ib6kip9hcHX0P0gfF94mP+COGwkwGDWZof7Qd+JKyexERoMkKLuVCU9YbMd45I4Qpba8RwrB+hEfoxD5BxJ9bD/F39pUj9wUDfT9MpO/PiD9kKEwkxOO+g09qtDVbxvLGiAgwphcLvkZT0+VcyIMQ5jSvDQz6ySA8Tje+C+0mxEH8tQp7WNYEfc/TfXDxTob4Q4bCRLZVo/pmtL1KGZDoYSxEBNhbns6T0DSuB/NaIYRJjekF/YYahMfbb1ZCpqUFEX/lVGEyeDqhb8AwOk9C/DFDYSJ117OxJtp+6ULXCYiI8CoxxY+gaX9ZvpuMEGY1oRv0HGUQHmpe5w84De7tiPhzdTYwqx36fN3fON1Ji/hjhsI8nqQJdrvnhC6V+wpXciAihId3nLeO6HmTkGJHEcK0pn4HXSYYhMutZqeh5GJ3xJ+5mpOUd2Oib3RvWs1D/AlDYR6j+tD3Z7SdLELRY4iIUW8d17OiKcPd2L6OCGFas76BjlMcCJegwSNCiTetGeJPtFjM+B/Q5+/x1LieBfEnDIVpqMy3uZ0BbW3nMq8VImL83J+lTdHUYA3XsiGEec1vo2gzy4HwOfKVDzScmgTxR7wyhSTyiYu+6Z2ovxrxZwyFaewvS7k9aPNze+/6OA4iYmyvSvexaBrRlyXNEMLElnwdSvO5zoTP2++WQPJZNRF/oNN0Bv+EvqDM3pzNh/gzhsI0mi1jRSO0zW7PNzMQEeRpCr7ch6adlflhPEKY2cpmIVRaFY9wWtnpFbScGB/xn56kC4jrkwh9i1tQaQfiTxkKs3iVMiDxw5hoK3SaM/kRESXVo/ivDfQ8S07pAwhhausbB5J7WyrC6XH7LZBmXnnEf+g9mp6j0Rea6xoHSiP+lKEwi1+68MN4tF38gi/OGYiIUmMLd9KjKc2DeK8dEMLUDtd6TeqtuQkntaCLH3QcHRfxe6/Tvovp5Ya+DXUofthA/ClDYRIq9xWuZkfb91OY2gkRYQYNZnV9NNXaxK2MCGFunlW9cF1bgfDyab0P3GdVRPzO0J/oMB19qvBptlZF/DlDYRInilLsKNr8U75xeZQAEWE21eLH4WgaPIiVDRHC5J7WPIXTrFaEV+j0Xh+g5fiEiN+8d3/peDM9+vZUIM95A/HnDIVJtJvD/JZoW9KcFgsREedBGiruRNPmmvQeiRBm96HpRvhpkEF43Wm3H1JMq4P4p0ld+WoxNii7nxWNEH/BUJjD+xTvXB/HQVvpQxwugYg4KvnzJM8M9DxMTYVdCGF6Id1+gSZzXQgvNaeHLzSYnBzxWVDGe1zOib4TRcno6Yj4C4bCHBa2pN0stN3MQtZrBiICVd7JvTToUSmeJX5uIIT5TeymKLAhFeH2oOMWSDS2pYGApV9RbQs2qLWJOW0Qf8VQmEOpwxwvgrZeYxjbHRGR+o5gQy00Vd2OT1qEsIANX70nxYbChJta0fkFlJqRDaHyXuRAafRdzk3qOzEQf8VQmMLNLGS7aqArMPVz54dJERFpTQN+Goym/j+zvjZCWMHlmt7EnNWC8HvedRk49+rngr3bXZGCJw30NVvGhK6Iv2QoTKHvCMb0QNva+jRYhYhQdzNQfTOa1tVjwBCEsIQX9Q9C91GOhN/ujncgw/QK2LmKu1nVAH13Mocm9omD+EuGwgyC3R85PUiOtso72VUBEaFUwrcpH6LJ24OqWxHCGoK6TIfKyxMQfv7DRwVBk3Fu2LMLeUl/0xF9HWYytD/irxkKM9handrr0ebjodLdcUBErLL7eZwCPSrxa7dHCGEV0zsHk2l9DiLA9W8Og+ug752xX82WMbUT+h55BLr6JET8NUNhBvXWsakG2gYOYWh/RATrMY5tVdBUfi+P3BDCKg7Uf0mcBfWJAKELer6CbJPLYa98MoQk8YmNvh7j6D0S8TcMhQk8Txmc4r4TukLSPXC4lwoRwZY3ZVg/NPUaw9aqCGEZXnUvQK+fnYgAL/rNVtBgXBrs0w8TGTgIfS/d38f0ToH4G4bCBCZ0o/dItG2rRvXNiIh2Iyt11qFpRROG9kcI6/jwzRIovzwJEeHMdychdr/uMbFDr9O8j3UvKfoGDabTVMTfMRTRn8p1Fc8saKuzgY01EREtNP47d2803cxCnXUIYSFqcrcQ3NflIyKELuz9HDxG1zOwO8P70XEa+vzcXzveTof4O4Yi+jtVmOJH0PY4TYjbPSdEhCt5hBeJ0RMa/527N0JYyqEGz4g142sixJuBU0KhxPiC2JmP6Z463MiIvnE9aLEQ8bcMRfTXYSZzW6Nt5I/0/RkR8br8wu7yaCp5hBeJEcJSHtY7Ce1+iUWEuNxtD9B8eGrsypx21F+Nvo/pHxtXsyH+lqGI9j64+cZ5EhddoZnvcCc9IuItbMmoXmjq8gu7yyOEtQR0ngVfrMlAhFBbe9wAl54942I/QrPf4GQh9M3sQJ11iL9nKKK9Jc1pPRdt+8tSbg8iElzOTcOVaFrYklG9EMJqFnb0J/6C2kSMoBmDXkGKn9o6Yy821qbUQfQFZ7nLqYKIv2coor2y+zlSHG3NlrGiESISBLt+zHQTTZdz02gFQljO5fo3ofsIZyLGq6FTgiHjsAYO2IcSR9lcHX3LmlFhF0KDoYjufNKR2dNA12u3gESPYiIiQ+FTvI2HnmDXj5luIoT1+LZbBcVXpiKC3Oy7Fsg/sjz24GQRsl1xQFtonivsL4PQYCiiu+H9GNYPbdM70XkSIlJ0nMHBUmgqfIq38RDCetTUbkEkXVSZiHKyzwGg/IgCWF/D1cxpg75NtShyzEBoMBTRnMruiVc6tBU8w4U8iEgxuz0TuqKp4wwOlkIIKzrZ8B70GuZMBFE7+1wEag36AovzyhiazCcW+oofY1MNhA5DEc2dKUipg2i7lIf8ZxCR42wBmi9C0+z2TOiKEJb08uutUHi5BxEldPkAL6DeoJxYWtdJDBmAvqMlyHHJAaHDUERzXScxqx3auk5iaidE5AiIG5zjCprOFqD5IoSwJjWxdxDx59QnwgTOHv4IjIYDs2Fdb9K8c7mXBH21NzK/JUKLoYjeglM9i/kkAboCUr2M+TghIpLkveDgFxs9AXGDc1xBCKs60+gudBjvQoTxnzXiKRhN+2XDqkb3puM09N3IplJ6xUBoMRTR27Zq1F+NtjUNaLIMEVnazONEYTTlveDgFxshrMr3mxWQc2V2Is6HGSOfg1Gnb34sKTD9Q+NGJvS1n83ongg9hiJ6a7KCjTXRVnU7u8sjIsvU75jWEU1t5nGiMEJYlprb2Z9YYzsZRJz3U0e/BCr1LYUFLW5BrQ3oe5IuwPV+fIQeQxGt+SX3T/woBroeuIe633VARJbjxWg7G01Tv2NaR4SwsKuNrkLVecmJQH4zxz0BSvStbGAxwTlucqgk+voNp8cYhCZDEa0ta0aH6Wj7uT+DBiIizXtXle8smo4Xo+1shLAy/15TIOm86kSkj/NHewN5ujWOgaUsaU6Z/eh7l/a1k1dqhCZDEa3V2sSB0ugKzXTX8HJHRJ7s153fxUDP+3ih+c4ihLVta/UMOo6NTUQKWjHiOpDy+28SYh3BOW6yvwz6JnXl6wUIXYYiOnuTLCjlPUd0HSxD+d2ISPTVUs7lRVOOa87vYiCEtT1rswWyLs1HhArdMPI0ELt11wxYxZLmlNmPvuCMPlzOidBlKKKzBa3oMhFtXy9ieWNEJBrfnTlt0NR8CefyIoTFqZnd/HEe2NuJCKWOjtuowKjTuZSBFQTnuMn+Muhb3pQq2xDaDEV0Vnknx4ugyzeFf4LHsRCR6MCXdJqKpgndmNMGISzPs9k5KLgoKxHs1sT5/kCOb5vHxfyWNKf0AfSp/OfZ9yVCm6GIxl6kCHH3MtA1uz3fTkFEpjcJKXIcTQe+pNNUhLC+wMEjQ4k1vIsDEezlzMlPANeWnbJicu9z+LC/DPr2VKDAKQOhzVBEYzM70GsU2ood52w+RKTKeMfF1wk9bxJS5DhC2IOTLW5CqQUeRLTAtVOO8Um5TtVjYGY9x1J+NzaotIuVDRH6DEU0VnY/5/Ki63Ymcl00EJGq4Wqu5EBTxjsuvk4IYQ8+9JsIcca3M4hwF6Yu9QeStmiTDdO6UCAk5uVM6Lv4BR43nRD6DEX09cwtNNMNA12DBzG6JyJyjfyRxV+hqeFqruRACPtwoJU3VJiVjoj3ev60O3xStE1DV0wppMgZhvbHBs2XMPk7hA0MRfQ1px19RqBLZbpj3E+FiFy7KvHDeDSN/JFFzRHCTvh1nw1xRnZyIOKF7pm7IRCI06hFSQfM55cuZD8fA3330wcnuhcHYQNDEX1V28apgug6XoxyexCR7HkySh9A065KdJ2AEHZje/sHUGJOFiLDi6VzL/NJ6iZN8xiYy6ky/hwugQ16jmXAEIQtDEW05Zs0MPU9A13fTmPB14jIlvZ+vNcO6HmejFIHEcJ++PaaCTEHd3ciMqgzc5f78kn2pk09MJG7RZ7TcRo28E3jG9MnOcIWhiLaWtmY7yajK9DtlctTV0Rkq72RWxnRlPa+6xsHhLAjB9regXzz8hA5PmxctiOYT4rUrZMRk3hV7Aald8bEBuO703Y2wiaGItpqtIq9ZdG1sTZNliEi3eBBrGyIptobuZURIezJhwETQ3Hq2T82keTFmqVH+CxXnTp5DKK/91UPkfVYQmwQlPEe17IhbGIooquPSd8leuqErkar2FYFEek216T3SDQNGcjKhghhX062uQrpp1Ui0vgsX3aZzzxq1ywWg+jtfq3zJDvhgS2WN6XaFoRtDEV0tbU6Xy9A17tk/kkeOyEi3cPUVNiFpi016D0SIexMwIjhQdB4Qgoiz63160/wWdxylSt5EH2drPUU1z2FsIUqcI79ZRC2MRTRVdu5bKiFrhVN6DAdEflUimeJnxvoeZSKCrsQwu54djgI8Ue2dyASPdy4fn8In2WuXKmkK9HSkrYBpN+cHZsc+JJ8ZwyEbQxFNBWa8qnLSxd01d7I/jKIKFBlBz5p0aPcniZ+biCE3VELe7yEojNzEalebdux8wWfOeQtVbJEUqIZny4bofSaJNim+laWNUHYyFBEU+fyU2MTut4mC0zxwBERBfoNZ31tNFXdjk9ahLBDL3ouAMfOg+IRuULP79h5LIRfZStVvEBmR6KLwAlDPkD7yTGwzZmCpLnjjLCRoYimhg1gegd0LWxJ50mIqLC2PgOGoKn/z6yvjRB26UCHG5B8zFcGke3tvj2HL/MPcfLmz58/iyP/c2pP12uQYnxjAxtV3c60jghbGYpoqthxvN3RVXU7R4shooJXeqptQdO6egwYghD2KWD08I9QfMoXRIFXRw8dPhvMP8TJlS1btuzujvzPBK8eew4cvh0aH1sdL4b7zRgIWxmK6OllstDsV9H1MkVwGm8HRFRQid6kfIgmbw+qbUEIe+XdbT04dByakCjx/sTJs2d9+E2sLNkyp/dIn9KBqOY3d8I9oOD0/Niu/F7mtEHYzFBET8ub0mMMuua1oftYRNQot4/HKdCjEr92e4QQ9mtn55uQZEQrR6LKi3Nnz5715l9ipPNIny5V6tSpYhElgvevXvUWyNejoSO2O1iGDNedETYzFNFT8yXs+xJdNbZwvAgiavQcy7YqaCq3j0duCGG/AicMfQ9fTChDVHp34/q169dvh/B7iVOnTpUieYrkKZLHJbIE71+9/gWfVO1RxiAMVOnDLGqOsJ2hiJZCk79wfREDTX5JA9weOCCixvKmDOuHpp5j2VoVIezZgx4rgdpjMhLVAm/dvXvX667XB/5DnBTJkiZJ+g+xiSjK8/DhHS/4JHaj7jkIm90VyXLVEWE7QxEtnSpM3bXoWtOAjtMQUeRGVuquRdPypgztjxD27eAP58H5+wEJ+J9Qz+7ef/DwwYOHD4P5b7GT/ipJ0k/iGYTRx0uHDx95yWexqzeoEocwUkVPsrwxIgwMRbQ0bACz26Kr2TJ2VUBEkdD479J5oelGVuqsQwg7F7Ko7xNIPOgbZ/6XQp89fPr06ZOnT54+ec0fiZEk6T8lSZrIAS1vrl/3vH7dK5Rfxa7eoGpswm5rdXJedECEgaGIlr48gFc6NAUme5vgmTMiqpQ4ystE6AmN/87dGyHs3rtRYz9C1pE1DaKFoBcvnv/mZSh/wCHhJ4kSJkwYP84/xHJwdPgs+IP/B/8P/u+fPXny5OmTJ6/5TcISJUvkj0F4hBQ8z9q6iLAwFNGRf4LA9HfQtbMyXy1GRJnOk9lTDk0lj/AiMUKIe32XAsVGlSC6CXn9/LMXzz8LIiziZM1erER2B8JrUlfynjUQYWEooqM9FWg7G10dZrK2LiLKLGjF6J5o6vILu8sjhICT3Y4BNYbnJPpSvs9/8/r1G8Xfie2WOlu2rNlSORARfHK850hxRJgYiuio7wiWNUGTSvMw1os4iChzKQ+Nl6NpYUtG90QI8Yna9ON1ML7+P/bgA9Dn6vH/+PPce43rDjsjOytlRGXLTglJorTQkNBAKRVKZaUyUgolsyHSECEySgN37eCTAAAgAElEQVRlh8zsdQcX997zv/qO/3f+vufez+fez/t9vR6PIaXwhdRTJ06cOB6fmJB4wdnUP6VE5InME5knMk/hokWLFokmiOxNX/DQG0jGGIsX1V7DwSI4+qU6N3yBZJ3zMWcrbsXRr9XoPBMR+VPy1EH7INfDTxVC/s2s2ym+KS+SMcbiQacKpF6xAVfDBzC2F5KFrv2BuBjcJMckVdiGiPzVmXEvnYToPn0LIP/s2OVH+ORmJIOMxYM+bUef13F13XK2X4ZkoR5v8W0DHF37A3ExiMjfnBj+ehLEPvpYPuQfdX2XWz5GMspYPOjR15nbDkcnC6VU3IpkpYkP8nofHPV4i28bICL/3/6XJ56HfI8/Eov83eLm5N1UHMkoY/GgGuvN8Xw4+qgjj7yGZKUfr+Ged3H0Vg9e74OI/KM9L01KhgL9esUgf3Gm6g7efBDJMGPxnrj8qdXX4arbFL5qiWSlpJjkqr/gaE1t7p2CiPyz3198NwUK9OldALmgz1gafhOGZJixeM+ilvQcjyNb/GCeY7mRLFVjfXh8JG7OxKRUX4eI/KvtL0xLheiejxVFmNKNnOsrIxlnLN4zeAjTuuBoQ1Vaf4ZkrW5T+P5aHF25MSIhFyLyb7a+ND0FcnfvX5qL3aIbk3n7PiQAxuI9Lb7m9zI4GvMIrz6KZK1xvZnQA0d3v89PNRGR/+D3kZPPQsSdT1bmorauUTy9xiKBMBbPSc6fUHyfwdHN81hfDclaq+pz/0Qcvfo4b9+HiPxHB0ZPSATT5vFGhovWnjoHuPmjcCQQxuI5667i1g9xlFLwVKFDYUjWSoyxtX7E0TdN6DkeEfkvjo0dcwK4+vFbc3BxOtFgE3WWRCIBMRbPGd+LVx/F0Y/X0PEDJKtV3pozIQduTuan7ipE5L+Kf/P1/UCpPvfHchE6e/0yKqwqhATGWDznjpmsuQZHI55kQg8kq90xk/XVcFTu9zxx4YjIf3f+g1fWAjH39y7DxSa1yywKr74MCZCxeE7ZXZGncuDo+oVsrYhktZFPMOVeHN36MZsrIyL/F7v0lS8A0+bh5mFcVJ4cQeQ31yKBMhavOVaI+itwdC7/6Uv3GiSrfd2CPq/j6MVnmH4HIvI/bB79/lmgwsP35OOiYYc+R9jcNkjAjMVrFl5Pn9dx9F1dukxDstyxQjRcjqMvWtNvJCLyPx16+839QJ67Hq7KxeF8r4nw5oNI4IzFa15+mql34Wh0Xyb0QLJeqb0xJ8Nwc6A4zb5GRBwkzxu/lDQN7++Qh+zv2K3fwKi+SBAYi9fc+jEbq+Cowxx+qYpkvZvn8Vt5HBU9VOCoQUScbHxjagIQ26V7TUP2trnNDnJO7oIEg7F4TdldUafCcWOLHYo9EYZkvSGDmX0bjm78kt2lEBFHce+P30ya6vd1yU829mXnOIrMrYMEhbF4zLFC1F+Bo52Xcf0CJAQ+bceAl3E08CU+uRkRcWZXvzP7NJDrlm5Nwsme7Gv9UqkxrxQSHMbiMYta0ud1HL1/N88/i4TA3lJcvwBHH3XkuSGISHrEz37ne9IU69ylpiH7Seo1Cdq/H4UEibF4zLCnmHoXjnq8xdfNkBCwhY9dctDgZkd52nyKiKTTxklTj5Gm0h13lCeb2Xj7r/Ds4DAkWIzFYzp+xMYqOKr2a9ipaCQUWi5if3HcpOaPK7EXEUm3s/Onf3GONNd2ua0o2Ufy+AFJ5J58OxI8xuIxlbfmTgjHTWJsao21SEg8OYL5N+Go8TIOF0ZEMuDEx9OXWcDUa9++HNnDmh5r4coZVZEgMhZvSYpOuepnHK1swH1vIyEx63aefxZHj73GVy0RkYzZO2v6ei6ofsstVxj87sRTEy30Hh6JBJOxeMv6Gtz5Po7GPMIbDyEhsbUy7efgaOo9DHsSEcmwjbPmbOKC8re0rR2Bj9n3+x2BahPqIcFlLN4yowvDnsTRPVP5/lokJFJjE8v8jqNfq9FpFiISiK2ffLKGC/K1aHX9pfjUpp7LIHpInwgkyIzFW55+mfk34ejKjRHxuZHQaLCS4/lxcz7mbMWtiEiA9s79ZFkqF1Rt1ap+Lnxn3/OTU+DWV0sgQWcs3tLuU3aWxU1ibGr1dUiI9B7H4qY4uvYHcyoGEQnY0c8WLDzBBVHXXdeoZk58ZPurk5Og3PhWSCYwFm8pvyMqLgw3q+rTbRISIpO7M6ovjh6cyLcNEJFgSPlhwYI1lgvy1GnUqHYefOG7kZ9YiO3fNxLJDMbiKaej7TVrcDSuN+N7IiGytiZdpuHozYcY0xsRCZZjixYsOMSfclzT8JpapQ2elvrpqJVAVI8BhZDMYSye8tPV3DsFR/e/w6q6SIiciz5fZSOOvq9D18mISBDZbcuXL9vLXxSsdXWtWqUM3pQw/ZXfgKKPPJgfySzG4inT72REfxzVW82pWCRUaq4Ni8+Dm9MxqTXWIiLBtnv58uXb+KtCtapfXuXyGLwl5dsZMxOAKv3uyIVkHmPxlOcH8cnNuLH54krtRkKm+2RW18HRlRtzxOdCRDLBwe9//OnHI/xNiSpVLq9SuaDBC84v+XjuEdI07dfKIJnJWDzl7vf5pSpu9pXkhi+QkBnXmzcewtFd0/ipJiKSSey+H3/68aej/F1suXJly5UrVzoXoZO08ONPT5Im+vYeNZFMZiyeUn8VCVG4+aoV/UYiIbOyAfdPxNHovrzTHRHJTHbvpk2bN206yf9nLi11aYkSJS4tUSwnWevUwo8/TyBN5A0d2kYjmc5YPKXooWJ/4Gh0X6bci4RMQqy9+gccLW3Kw+MQkcxnD23atOm3nXuS+UemSLGiRYsULVqkaNG8hsxld69csXKDJU3MTR1aRSFZwVi8JD6Whstx1H0ya65BQqfy1pwJOXBzogD1ViIiWSZ5386dO3/fufMo/ypnocJ/Uahw4QJhBFfyupUrV/7Bn/K369AiF5JFjMVL1tfg3ik4qr2GhCgkdG6fxfpqOCq7K+pUOCKS1ZL+2Ldv/740h1L4d2EFC/9NoUI5CETy71u3bN3y82n+FFa9QZvGOZCsYyxeMqcDQwfixuY/VXoXEkIjnuTde3DUYQ6bKyMiIZN67NDBQwcPHjp4+MiR8/wn+Qr/TaECUQZHNvHQwe1bt2z97Tx/FV23fv3aMUjWMhYvGfEkMzvj5lghmn2NhNCiljzyGo6GPsuM2xERL7BxRy44euSC0/wnEfkL5M9fIH++6Kio6KioqOg8EeFh4WHhYeFhKWfOnEk6c8GxQ386wz8oVa9+/aoRSNYzFi/p8RZrrsHNmto8+CYSQkcL02gZjj6/if4jEBHPOX3kb44eOUWG5apQuVLlSpVikRAxFi9p/QUHi+Bm5h2M6I+EUqm9MSfDcPPHpTRfhIh42rmjR/509MSJ4yficFGwSJrSlSuVDkdCyli8pMb6HElhuBn6LB/fgoRSu0/5rTxubNHDBY8YRMQ3kk+eOHEyMTEh8U8pKakpqSmpKalhkbkj/5Q7f5EiRQrnQLzBWLyk8NHSu3B073usq46E0uAhfNARRzcsYHcpREQkUxiLhyRFUm8ljhquIC4GCaV5N/PUSzh6+mXmtkNERDKFsXjIzsvo+AGOih+45BASUntL0epLHH14G4MGIyIimcJYPOTbRjw2Gjdnc1NnNRJStvCxSw4a3GyvQNt5iIhIpjAWD5l5B6P64ub3ctz6IRJaLb5mf3HcpOaLL7kHERHJFMbiIaP6M7MzblY05JHXkNB6YiSftcbRdcs5UggREckMxuIhj77O8oa4md2ZEf2R0Jp5By88g6NHX2dhC0REJDMYi4fcPovfyuNmdF+m34GE1tbK3PIxjt67l+FPICIimcFYPKTlIo7nx03f0XxzHRJaqbGJZX7H0S/V6TwTERHJDMbiIbV+DjsfhpvOs9lWAQmx+qs4nh8352POVtqCiIhkBmPxkDK7Cx3BUcMVJOZBQqzXeJY0wdE1P5q4aEREJBMYi4fEJFTagqMK2/OeREJt0n288jiOHnibFfUREZFMYCzecS4X9VbiqMCJy7Yjoba2Jne+j6MJPRnbCxERyQTG4h0HitPmU9yk5LDXfo+E2rno81U24ui7unSbhIiIZAJj8Y4NVbl3Cm6OFaLVl0jIXbUuLD4Pbk7HpF71MyIikgmMxTuWNabvKNxsq0SXaUjIdZvCd7VxdMWmHAk5ERGR4DMW75jbnhefxs3qevR5HQm5sX2Y0ANHd07n56sQEZHgMxbvmHYXY3rj5vObGPIcEnIrG/DAWzh6pR+TuiEiIsFnLN4x8UHe6Y6bqfcwthcScgmx9uofcLSkGb3GIiIiwWcs3vHaY8zsjJvXH2VaFyT0Km3LFZ8DN8cLUn8FIiISfMbiHS8+w7y2uHn5aea2Q0Kv82x+qYqjsrui4sIQEZGgMxbvGPgSXzfDzbNDWdgCCb3hA3jvbhzd8glbKiEiIkFnLN7x2GusqoubvqNZUR8JvUUteeQ1HL3wHDM7IyIiQWcs3vHA26yvhpuH3uTnq5DQO1qYRstw9FkbnhiOiIgEnbF4x53T+a08bu6ZypZKiAeU3Bd7Igw3+0vQYiEiIhJ0xuId7eeyvzhuOn7EnpKIB7Sdz/bLcGOLHi502CAiIsFmLN7R+guOFsRN6y84WhDxgMFD+PBWHLX6ij0lERGRYDMW77hhAcfz46bpUhKiEA+YdzNPvYSjp4Yxry0iIhJsxuIdrb7iZF7cNF7GmdyIB+wpTasvcfRBJwYPQkREgs1YvKPlIuJicHPdcs7mRDzAFjpe5CCOfqtIu7mIiEiwGYt3NF9MfDRuGq7gXA7EC5ov5o9iuEnNF19qNyIiEmzG4h3NlpCYBzcNVnI+AvGCJ0by+Y04avQtRwsiIiJBZize0eQbTkfipv4qksMRL5h5By88g6NHxrCoOSIiEmTG4h2Nl5GUCzf1VpNqEC/Ycjm3fIyjd7syoj8iIhJkxuIdjb7lbE7c1Pkei3hCSuzpsjtxtL4Gt89ARESCzFi8o+EKzuXATZ3vSTWIJ9RbzYl8uDkffa7yZkREJMiMxTuaLiUxD26uW05SLsQTeo1naWMcXf2TiYtGRESCy1i848YvOVYAN9cv5GRexBMm3ccrj+Po/ndYWQ8REQkuY/GO9nP5oxhu2n3KwSKIJ/xcizvfx9EbDzPuYUREJLiMxTtun8XOsrjp9AG7SiOecDY6+YoNOFpdj+7vICIiwWUs3nHve2yujJt7prKlEuINNdaHx0fiJjE2teZPiIhIcBmLd/R4i7U1cPPA26yvhnhDtyl8fy2OqmzOkZATEREJKmPxjkfGsLoObvqM5ftrEW8Y24cJPXDUZQZrayAiIkFlLN7x5Ai+uQ43T45gSRPEG1Y05IG3cDSqP5O7IiIiQWUs3vHcCyy4HjcvP82c9og3xOe116zB0eLm9B6DiIgElbF4x7Cn+PgW3Lz5EJO6IR5R8bdc8Tlwc7wgDb5FRESCyli8460evNMdNx90YmQ/xCM6z+aXqjgqszv6VBgiIhJMxuIdH3RiZD/cLGrJ0y8iHjF8AO/djaP2c9laERERCSZj8Y5FLRk4FDc/XU2PCYhHLLyeR1/F0fODmNUJEREJJmPxjh+voed43Oy8jE6zEI84cgnXfYOj+W15chgiIhJMxuIdO8pz+wzcnMxPy68QryixP/ZEGG72l6DlV4iISDAZi3ccL0irL3GTmjPlqp8Rr2g7n+2X4cYWOVLosEFERILIWLwjJYLa3+GoxP4iBxGvGPQ8H96Ko+sXsrcEIiISRMbiIflOVdyKo9prOJsT8Yi57Xn6RRw9NYy57RARkSAyFg8pu6vQERx1mMOu0ohH7C7DDV/g6KOOPPs8IiISRMbiIXW+N2dz4KbPWFbWQzzCFjxR9ACOdl7GjZ8jIiJBZCwe0mEOu0vhZvgAPuiIeEXzxfxRDDe24ImiBxARkSAyFg/pPY5VdXEz7S5GP4Z4Rf9RfH4jjpovZn9xREQkeIzFQ4Y9xYe34uabJvQdhXjFjC4MHYijJ0fwaRtERCR4jMVD3r+b1x7BzY7ydPgI8YrNVejwEY4+6MSgwYiISPAYi4csacYTw3GTHJlcbT3iFSmxp8vtwNGO8tw0HxERCR5j8ZAtl9NlGo4qbcuTYBCvqLeaE/lwYwucLPYHIiISPMbiIfGxNF6Ko5s+Z9+liFf0Gs/ipjhqtoQ/iiEiIkFjLF4SG19hG44ef5UlTRCvmNKNEf1x9MRI5t+EiIgEjbF4SZXNuRPDcDOhJ289gHjFL9XpNAtHszszeBAiIhI0xuIlbT5jT0ncLG5Ov5GIVyTHJJX/DUfbK9DmU0REJGiMxUv6jmZxU9zsKU3beYhn1Pmek3lxY/OfKr4fEREJGmPxkjcf4s0HcZMam1huB+IZD7/BkiY4arqUA0UREZFgMRYvWdycvqNwVG81J/MiXjG5OyP74aj/KD5rjYiIBIuxeMme0rSdh6OH3mR5Q8Qr1teg80wczbqdIc8hIiLBYixekhqVdPkmHL3VgzG9Ea84H3O2wjYc/VaRtvMQEZFgMRZPuXJjztPhuPm+Dt0mIZ5Rew0n8+ImNX/cpfsQEZFgMRZPaT+X38vg5nRMas2fEM/oOYGljXHU5BsOFkFERILEWDzliZF81RJHl2/JmZAD8YpJ9zGqL476vcLnNyIiIkFiLJ4ypRuj+uKo82zWV0O8Yt1V3D4DRzPv4PlnERGRIDEWT1lbk7um4mhUf956APGK8zFnK27F0bZKtJuLiIgEibF4ytno5Kq/4GhVfe5+D/GMa3/gVCxuUvPFl9iLiIgEibF4S9UNEQm5cHM29lz53xDPeOhNvrkOR42XcegSREQkOIzFW+6axtoaOKq/ikOXIF7xzv288jiO+o7mixsQEZHgMBZvGdWfKffiqP8o5rZDvGJtTe6YjqMZXXjhGUREJDiMxVu+bsGjr+Jobnv6j0C84lzMuUpbcLS1Mu3nICIiwWEs3nLkEposwdGhotRfgXjGNT+aUzG4Sc0XX2o3IiISHMbiMcUP5D9mcFR+R84TeRCv6PEWyxrh6LrlHCmEiIgEhbF4TOsv2FEOR/dN4quWiFe8/QCjH8PR46+y4HpERCQojMVjnh/EtC44mt2ZfiMRr/i5Fl2m4Wj6nbz4NCIiEhTG4jFft6DneBwdvcRWX4d4xbmYc5U342hzFW75GBERCQpj8Zi4/Kk11uKq1s8cLIJ4xdU/mVMxuEnJm1h6FyIiEhTG4jU11oedjMHRgOHMuB3xigcnsrwhjhqu4GhBREQkGIzFa3pO4OtmOFrcnK6TEa+Y+CCvPoqjR1/nq5aIiEgwGIvXvH83zz+Lo6T8SSX2GMQjfrqau6bi6P27eekpREQkGIzFa3aUp9WXuGr1FeuqIx5xNuZ8lY042nQFHT5CRESCwVi8xhY9nO9YGI7G92LIc4hX1FwbFheFm5S8iWV+R0REgsFYPKf9XH6piqO9pbjqZ8Qr7n+HFfVx1GAlRwsiIiJBYCye8+rjvPoorq7+id2lEI948yFe74OjR8awsAUiIhIExuI5v1aj9We4GvosY3ojHvHDtdz9Ho6m3sPLAxARkSAwFs+xxQ5FHc+Jow1VaboY8YikmOQrNuBo45Xc+iEiIhIExuI9d05neUMc2fI7w4/kRzziqnVhcVG4SYk9XXYnIiISBMbiPe/dy3NDcNV3NO/djXjEfZNYWQ9H9VdxrAAiIhI4Y/GefSWpuwpXKxvQ6kvEIyb0ZExvHPUZy6LmiIhI4IzFgy7fEn4sL45Sy+0O/+MSxBvW1Oaed3H03r0MexIREQmcsXhQn7HMbYerp19mbC/EG5Jikq/8FUcbqtLxA0REJHDG4kGftuPhcbjaUJU6qxGPqLE+LD4PbpJjz5TbgYiIBM5YPCiu0PlSuwyuqv3KjnKIN3SfzKq6OKq3muP5ERGRgBmLF7VcxNoauBo+gKEDEW9442HG9sJR73F83QwREQmYsXjR+F4MHoSr3WW4fKNBPOH7Otw7BUfvdmX4E4iISMCMxYv2luKqn3HW6FtW10E84UxMStVfcPRrNTrNQkREAmYsnlTrZ3aXwtW7Xek2CfGG6r+Ex0fiJjn2TPnfEBGRgBmLJz0/iLG9cJVYPC7PgVjEE7pNYXUdHNX9jpN5ERGRQBmLJ62vQfNFOHv4DSb0QDxhfC/GPYyjXuNZ0gQREQmUsXiSLbs74kg+XK27ipo/IZ7wXV26TsbRlG6M7IeIiATKWLzpkTFMvwNn1/7Aj7UQLzgTk1JtPY5+qU7nmYiISKCMxZuWNuXmT3D29gM8+CbiCdV+DY+PxE1yTFKFbYiISKCMxZtSShzMeTA/ruKLJ0Tvy4t4Qdd3+a42jup8z8m8iIhIgIzFox57jXe646znBEb1RbxgXG/G98TRw2+wtDEiIhIgY/GoH66l6WKcba1M6e0RiAesrke3STia+CBjeyEiIgEyFo+yFbebfcVx1voLPrwV8YDTManV1+FoVX0efBMREQmQsXjVcy/w6qM4+7oF9VYiXlB1Q0R8btzE5aX+CkREJEDG4lWbq3DNGpzZahv4/lrEA+59j++vxVHpPXlPGEREJDDG4lk117KtAs4m3UfnmYgHjO3DGw/hqPUX7C2BiIgExlg8a1R/Bg/CWVKpI+E7SiOht6o+3d/B0ZMj+LIVIiISGGPxrH2lbNntYTgbPISe45HQOx2TWmMtjt6/mxH9ERGRwBiLd12/kEXNcXa8dEKuncWR0LtyY0RiTtysrcnd7yEiIoExFu/6qCO3zcbdgOE8+ioSel1m8OuVuDkTnVrzJ0REJDDG4l3nShzJsb8wzg6XORO56xIk5F5+mpmdcVRpW+6EcEREJCDG4mFPjGRUX9w99hpPDkNCbn5bBg7FUYc5bKuAiIgExFg8bFslKm02ONtf7lz07gJIqP1ejrbzcDToeea0R0REAmIsXtZ4Gcsb4q7nBJ55AQm11NjEcjtw9OFtDHkOEREJiLF42fQ7uWsq7naXT47aUQQJtdprSIjCzeYqdPwAEREJiLF4WVLxE7n/yI+7XuPpPQYJtfsmseYa3CRHnbt8EyIiEhBj8bRHxjCyH+4OXZaYY0s5JMRee4zJXXFUY314Yi5ERCQQxuJp2ypRakcE7p4dSpdpSIh93YLHX8HRndNZXw0REQmEsXjbTZ/zQUfcxZU7ZtZWR0LrYDFaLMTRy08zszMiIhIIY/G2xc2pu4p0ePVxbvgCCS1b+FixP3A0pwPPP4uIiATCWLzNVtvAd7Vxl1RxL0uaIKHVeBlHC+Lm12rc+T4iIhIIY/G4Sfdx+wzS4d2uVPspAgmp3uNY1gg3p6Oo/R0iIhIIY/G4pJJHI34vgbuUa3/mjYeQkHqrB+N74qjU3gLHEBGRQBiL1z33AgNeJh1WNqDAbwWQUFrZgIfewFGzJRwtiIiIBMBYvO5A6fP590STDndO5+FxSCidzE/D5Th66E1W10FERAJgLJ53z1RG9SUd9ldKDFtXFQmlEvsLHMPR6L5MvQsREQmAsXjepitt0Z2RpMNLA2m8xCAh1GwJxwrg5rM2PPMCIiISAGPxvo4fMe5h0iHpip3M6oSEUI+3+K42brZWptMsREQkAMbifeuuouT2nKTDp+0osjk/Ejqv9OP9O3GTFEmd1YiISACMxQfafMY73UkH234e3d9BQmd+W54bgqPCR0vuQUREAmAsPvBdXS7bEkE67KsSz9LGSMhsuZzOM3FUY33E2TBERCTjjMUPWnzNtC6kx/heVFyfGwmVc5GptX7EUesvOFAUERHJOGPxg2WNuXxDGOmQ2mA1A4ciIVPu99iTBjcPTuTHWoiISMYZix/YRiuYcTvpsfGq8xE/V0VC5fqFHC6Mm+cHMa8tIiKSccbiC4tactnmHKTHcy9Qa3UOJETuf4e1NXAz6T7eeAgREck4Y/EF23wJE3qQHklXbeG5IUiIDBnM/Jtws+AGBg5FREQyzlj8YU1tiu7IQ3r8WCclfNW1SGhMuo8JPXDzazXunYKIiGScsfhEhzm89BTpMmQwFdfmQULiq1YMHIqbEwVosRAREck4Y/GJzVem5t1ZgPQ4X/8Heo9BQmJDVe55Fzc297nq6xARkYwzFr/oPpknhpMuW2sksbAFEgon89PsaxwVOlZuByIiknHG4hd7Kp7Nvf1S0mVsHy5dXxAJARuTWHkzjsruKnwYERHJOGPxjb6jue9t0iX1+q9pM88gIVBhe74TOKr2a+4ziIhIxhmLbxy9LM78dBXpsr/GUV55HAmBq38KP29wU38V5yMQEZEMMxb/GPkEDZYb0mXBDUR8WwfJek2XkhCFm1ZfcTw/IiKSYcbiH2ev3M6sTqTPU8MotbYAkuXaz2V/cdx0/IjdpRARkQwzFh/5rA0lt+QhXZIbr6TtXINktXumsrkybrpNYcMViIhIhhmLj9gbF/DcENJn71XHeOVxJKv1Gct3tXHzyBhW10FERDLMWPxkS9Xk3FtKkz5ftCb868ZIFnvmRRa2wM0zL7KwBSIikmHG4it9R3Prh6TTgOEU+qEMkrWGD+CjDrh5aSBz2yEiIhlmLL5yquJhljQhfVJaf0X1lVFIlho+gDntcfP8ID5rjYiIZJix+Muk+6i8Lhfpc+La7XSaaZCs9NJA5rXFzbNDWdgCERHJMGPxl9S6axg8iHTaVDuBlwcgWen5QXx+I24GDGdpY0REJMOMxWd+qZWcc93lpNO8mzGf3YhkoUHPs+B63Dz+KivrISIiGWYsfvPUMBp+E0Y6vfAcMSuqIVln4Et83Qw3vcex5hpERCTDjMVvzlTdwcT7SafU2z7m0u9KIFlmwHCWNsbNgxNZVx0REckwY/Gdr1uQd3Mx0ul0kzVU+zYWySqPvcaK+rjpNoWNVRARkQwzFv+5Zyq3zSa9DtfdSYvPcyBZ5I6ZbH1ZuSYAABhuSURBVKuAmzun81t5REQkw4zFf45WPsb8m0ivbXWP03WSQbJG42XER+Om0wfsKo2IiGSYsfjQ+3dTfEN+0mtls7MMHoRkjYq/xcTh6JZP+KMYIiKSYcbiQ7bVQu6YTrp9dJtlfE8kS0QnVtqCo8bLiI9GREQyzFj8aF/Vk8y+jXQb3Rem3oVkgfhYmizBUaVtsacQEZGMMxZfmtGFAhuKkW5Pv0z4h+2RzLe1Ml2m4SgmodIWREQk44zFl2ynD7nxM0N62d7jyflZCyTTzenAwKG4iY+lyRJERCTjjMWfjlY9yMT7SbfUrlPJs7A+ktmeGsYnN+Nma2W6TENERDLOWHzq85uI+qUc6ZZ82yfELqmFZLLmi9l3KW6WNqXfSEREJOOMxa8eeJsG34STbmfbLiTfoquRTJVa4FSxP3A0owujH0NERDLOWPwqvvrvDB5E+iXe8C15v6qNZKZtlWjzKY5G9WdWJ0REJOOMxbdWXpdiFjch/RJuWkbMgnpIJprRheefxdGjr7OsESIiknHG4l8vDaTouiKkX2LbJUR/0RDJPF3fZcH1OLrxS/YXR0REMs5Y/Cu11SJaLAgj/U7fvIg8nzdGMsv5Iieij+TGUbnfo+MMIiKSccbiY4dqHGToQDIg6ZYvifzoRiSTLLye22fg6EQB6qxGREQCYCx+trR5atg3DcmAs7d+RviUu5DM8eBEPuqAo0Ut6T0GEREJgLH42pDBXLquEBlw7q4P4JXHkcyQUuxI5JEoHL00kKl3ISIiATAWX0tpsZRWn4WTASmPjIcnhhkk+L5pwi0f46r9XDZXRkREAmAs/nagxmGefpGMsC8Mgq4TI5Cg6z6Z6XfgqsT+2BNhiIhIAIzF55a0TOGDjmTImz0tbWZGIUF2pOTZvPuicXSgOE2WICIigTAWv3vtMfKsrkaGfNTlHDU/vRQJrhef4fFXcPVpO54YjoiIBMJY/M7e8z5lfyhIhiy+JY7i82siwXS+zB9h28vi6tmhfHgrIiISCGPxvTONfqTZgggyZONNu8gz/WYkiGbdzs2f4KzpUnaVRkREAmEs/rev1mEeG03GHG6/CjOsv0GCpu53LG2Mq9P5z5X5HRERCYixZAMrmp5n6l1kTFL3GdDtjVxIkHxXl2rrDK6+vJH73kZERAJiLNnBWz3IubgBGWNfGATXflQSCY4WX/NOd5x1n8yc9oiISECMJVvo8RYFVlUig2Z1TaLwrKZIMCxpRrnNOXF1ruiJ6MORiIhIQIwlWzh/00LKrb6EDFp7yy7ChvUzSMBs3e+Z1gVnX97I7TMQEZHAGEv2ENfwF65dmocMOtblK+gwJQYJ1LybuXJdOM66vssnNyMiIoExlmxiX5393PxROBmUMuQFqPzRFUhgUmpsYF5bnJ0rcjL6SG5ERCQwxpJdrG8YzyOvkWHz7zpF7tceMEggpt1FnVUGZ1+0pss0REQkQMaSbSy8MYVXHyXDtnf4BW55uwCScYlV9rCkCe7ufY+57RARkQAZS/YxuTtmZicy7Ez/8VByekMkw54axvULcHe2yKmYw7kREZEAGUs28twLRMxtTcbN63acsGefiUAyZnO15JwbKuDuszbc+T4iIhIoY8lG7APvkHvBdWTcvjuXQb13KyAZYZst5dnnSYc7p/NpG0REJFDGkp2kdJlN9JJryLiUlwenEDmsVxiSfjPvoOzGSNwdKnUu38FciIhIoIwlWznX/gsKLLuSAKy8eyc0mlIOSa9TlQ/yWWvSYfAQ+o9AREQCZizZy5kbllF0xWUEIGHAeMgz4qEwJH16TqDdXNIhqfTh8J2lEBGRgBlLNhPX/AfKfFuCQCzttguavFMOSY8vWpNnU2nS4d2u3DYbEREJnLFkN8cabaLSkuIEIv6JNyH3s/1yIs6OVD3EhB6kg63xC6vqIiIigTOWbOePhjupsPRSAvJ19z1w+YTrEEe2/Txazzekw9Km1P4OEREJAmPJfnY12cVlS0sSkPjBr6fAPSMLI04m3UfhX4uQHm3nM6sTIiISBMaSDe1pspOyS0sTmHUProH8I7qFIf/b9hqJzGtLevxWyZbYmQMREQkCY8mO9jbdTumlZQlMytsDTkGtVxsi/0tcvY3cP5F06T2O4U8gIiLBYCzZ0v6m2yi1tBwBOth3BtBhRDnk/5Tc9ksq/hRNehwul5hnX35ERCQYjCV7OtB0CyWWVCBQSx77BXI+OjAW+T88+jr5v6tIujwyht5jEBGRoDCWbOpgs00UWVCDQKVMGXgYLnm+ewTy30zoScTCJqTLrorn8+woioiIBIWxZFeHm20g9tPrCFjcy6PPQfkhncOQ/2jBTSm8fR/pc89UBg5FRESCw1iyreM3rSbX7HYE7vcnPwSuHNrWIP9u3m3n6DeS9NlQzRbYmRcREQkOY8m+Ejt+Sdjb3QiCVQO/Aa4Z2sIg/2LmXSncOiuc9Ll5HiP6IyIiQWIs2dj5btNg2BOGwNnFA9cAjZ5pbpB/9PaDljunRJA+q+tRfHskIiISJMaSnaX2fQ36jggjCOz8Z38Baj3VPgz5G/tKf3jwjTDSxzZezsT7ERGRYDGWbM0Oexq6TMpFMKR+MGgbUOnJLjmRP8U9MBv6jjSk04IbqLgxAhERCRZjyebeeTCVBp8UIihS5ry8FijZt1sMAmtv2w5DnjWkU3LNX5l9GyIiEjTGkt3NveMM5T6vTHDYhS8vA2Lv7VWBi51989Fz5J18C+k2ui+11oQhIiJBYyzZ3o9tD5D342YEy+qX55OmVZ/rw7iY/dHnY7h6djnSbd/lCWZ1bUREJHiMJfvb22Y9EW/cT9BsGDPtDFDh4XvycbE699oLCfDI8Fyk360f02MCIiISRMZyEUi4/TPoNyycoDk+edxuIHeHbo3DuBh91WcbFHinPRnw5Y1csiU/IiISRMZyMUjp/yq0mxpL8KR8NnYxacp0vbcUF5vf+s8D8+DQgmTAmSt3MvUuREQkmIzl4vDWwylU/qQywbTxzeknANP83rbRXETWjJhjod64q8iQZ4fSeIlBRESCyVguEotuO0n0ux0IqqRPJy+0QORNnW6M5KKQ+uXIZUDREXcaMmRr1fM51l+OiIgElbFcLHbc8gs8OTSC4Nr73pSdpIlu2+n6XGR3hz8evxEo2ufhWDLGNl/CUy8hIiLBZSwXjdP3z4BmMwsTZKnfzvz4KGnytm7TKh/Z1/E5s5ekApX635mLjHrzIcpszIOIiASXsVw87Ni+yZScczVBl7xk9pyTpAlv2KZNBbIhu+ObOYuSSVO/f5swMmxzrTN8cQMiIhJkxnIxWdHxILlef8AQfOcWzZ4XxwWVWjdvGE02krrh2+XLD3JB2c6dqhOAs3XW0XM8IiISbMZyUfmj4yq4dWJ+MsP5bz+bv50LIuo0bVonF/53cmOan0/wpxKdOl1tCEi/V6jyYyQiIhJsxnJxOdd3HJSaUZ/MYbd+Nn9lChdENmhc95po/Mme2LV7164tG/fzVzH1GjWpHUaAFrUk55rqiIhI0BnLxeaT7icIH/xUOJnl+NLFi7fxp7CqdevWLW/wi3OHDxw8cPDAvl274/n/LqnfqGH1CAJ3tNoBRj+GiIgEn7FcdPZ2+Raum1aCTLRvyeLF+/mLgrWqV69eKQdeZM/GxcfFHT927NjxY8eOHT7KP8t/xZVXXHHFJQSHbT+Pll+GISIiwWcsF5+UF4ekUmBKWzKV3b5q9eoNqfxFziuqV7+8YqlwQif1TEJimoTE+Lj4uPj4uPi4+Lj4ZP6TnKXKlCldpsxlRQ1BNPFBCv1SDBERyQTGcjH6tsteuH9ULJkt/ofVq78/yt/kvKxixYoVSl+ag0yVHB8fn5CYJiExTUJimoTExNP8D1GFixUtWqxosaLFi4YRfBuuPcO8toiISGYwlovS8fs+gVKTm5EF7B/r02xL5e9MsZIXFC18ST5DgOzp+Lj4fxIXn4STyJjYmNiYmNiYAgUvKJCbzHT42t30mICIiGQKY7k42bcfT4Sew6PJIqc3/rpt27btZ/knEYULX1I4f2ze2Ni8sXmjckfmzh3Bf2STk5KSzib91em4+L9JSMVBnqio6Kg00VFpYmNiY2JiY2IiyEJJTVdTa3keREQkUxjLxer37kuh3JRGZKWUfdu2bd+zd+9B/pvw3JE5w8PDw8LDwsNT06SkpqaeT0pKSsVNzpi/iI6OuiA6Kk10ZBghZu+cwaVriiMiIpnDWC5aqW88eRrT56U8ZL2z+/fu3Xf48JEjh4+cI8NMzD+JjUmTE0964TnyrLgKERHJJMZyEdvedQVUmNiYELLxh0+dijsVdyru1OmkM0kXnE1JSU1JSU1JCQsPCwsLDwuLiMydK/c/ioz5U5TBJ2Z3xsy5GRERySzGcjFLGfN0EtwzsjCSmb5vnMTwJxARkUxjLBe3rV1XQ4ERXcOQTLO50VG6TjKIiEimMZaLXOrbA05CgzevQDLJjkZ/cN3CnIiISOYxloveocdnQET/Z/IgmWFT8wPUXJIXERHJRMYiLOq5Hcq+1sYgQffz9Ue5YmlhREQkMxmLQNJLw85Ds9HVkCBbdeMpan5VCBERyVTGIhds6bkUwu574RIkmL5ud5r6n+dFREQyl7HIn+yc/r9D7DN9ciFBM//Wc7T4JAoREclkxiJ/lTRmaDyUG3WzQYJj+r3JtJuVGxERyWzGIn936Nl3LDR8qQESBHbw83DHuzkQEZFMZyzyD9Y99g1ww9CaSKBOdvsEHhwfjoiIZD5jkX9k5z25Dbj1+cuRgKzptAsz8nGDiIhkAWORf5b8/uA9EHbXoLJIhtkx/c+T//3WiIhIljAW+Vdn3x56CHLcP6AkkjEnus2FOrNLISIiWcNY5N8ljht+AiLuerISkgFrbtsN/V/MgYiIZBFjkf/k1CuvJoDp8FRNJJ1SXnnmPAWmtkZERLKMsch/dnTsmJNAy6cbGSQdNnb/HurNKomIiGQdY5H/Jv6tVw4CdZ+8KRxxdGrw2BTMEy/kQEREspCxyH+X9N7w34GyvbrlQxykvjfgMFScUg8REclSxiL/l+QPXt4A5LmnVxXkf/mx1/cQ+XS/3IiISNYyFvm/pX459ivSNO9zYzjyfzjy9CQLt44qjYiIZDVjkf9py7h3E4GyD91dBPkvTo8ddhIuH9sMERHJesYiDk5NGbcDCL+p+w0RyL879darByFmSK8ciIhICBiLOEn9csxC0hS9p2sl5J/tf+2teAi7++WiiIhISBiLuPptyrsHSNOgW8do5O82jJpxHkyHIVUQEZEQMRZxl/zV5E+TgcibOt0YiaSxy0d+DuS6p29FREQkZIxF0uXwtEmbSBPdrnPLnFzsjsye+CuQ7+HeRRARkRAyFkknu+a9j46QJt8tnZpGcPE6POejb1KAUo93j0ZERELKWCT9kpfOmnOSNPlvbNMqLxejg598uCyVNPV63pYDEREJMWORDDm3cNa8BNJENGrT5jIuLgfmfLjckqZcxzuvREREQs9YJKPOfPHBgjguuLxN6zo5uTgcXPntip8tacp37FjDICIiXmAsEoBz386fv5ML8jRs1qxGGNma/W3Ftyu286eKHW+tbhAREY8wFgmM3fzp/NWWCwo0adasgiE7St6xcdPPK47wJ3Nlu45VDSIi4h3GIoE78uWixQf4U4l6detelZPsI3nHxo2bNm49x1/kvKZhg3r5ERERbzEWCQq7ZfHib07yp1xX161btxj+dm7frt27du/avTeFv8lbv0HDq3MjIiLeYywSNCk/L1686jR/UbpWjeo1Shr85czBgwcPHDx44OCBPyz/X0TFKldUubJyGCIi4k3GIkGV/Ovq1at38Ff5qteoXqNKLjzLJsbFx8XHxR274PixY6f5F/nLXHbFFVeUz4mIiHiZsUjwHf5u1eofT/NXYaUrVqpYsWLJMELrXGJC4gUJiXHx8XHxcfFx8XEJlv8orHCp0mVKlyldOhYREfEBY5HMkbJ93fp16//g73JXqFC6VMlSJS8JI5PZs/FpEhITExMS0yQkpklITEzmf4goWLBg0aLFihYtVrRwOCIi4iPGIpnpyPp16zdvi+cf5CxRquSlhS+5pPAlhXMSuJT4fxOXjAsTHRMbExsTExsTG1ugYMGCBWIMIiLiT8Yimc4e2pZm647z/It8hQvnzRubN29s3ryxUbkjc+eOzB3Bf2bPnz137mzS6TNnTp85feZ0QvxfxZ3BQY6oqKjoqDTRUWmiY2JjYmJjosIQEZFswlgkqyTv3bN3z949e/ec4r8Lj8wZHhYeHh4WHh6W+lcp58+eO4+jPDF/FR0dFRUVHZUmOioHIiKSrRmLZLm4vQcPHzl85PDhI4dPEYgcMf8kNiYmJjocERG5+BiLhNL5uLhTp+JOxZ06deZM0pmkpDNJZ86lpKakpKakpKaG/U3ONLlypomMzBOZJzJPZGR0bEyaXIiIiFxgLCIiIuJ3xiIiIiJ+ZywiIiLid8YiIiIifmcsIiIi4nfGIiIiIn5nLCIiIuJ3xiIiIiJ+ZywiIiLid8YiIiIifmcsIiIi4nfGIiIiIn5nLCIiIuJ3xiIiIiJ+ZywiIiLid8YiIiIifmcsIiIi4nfGIiIiIn5nLCIiIuJ3xiIiIiJ+ZywiIiLid8YiIiIifmcsIiIi4nfGIiIiIn5nLCIiIuJ3xiIiIiJ+ZywiIiLid8YiIiIifmcsIiIi4nfGIiIiIn5nLCIiIuJ3xiIiIiJ+ZywiIiLid8YiIiIifmcsIiIi4nfGIiIiIn5nLCIiIuJ3xiIiIiJ+ZywiIiLid8YiIiIifmcsIiIi4nfGIiIiIn5nLCIiIuJ3xiIiIiJ+ZywiIiLid8YiIiIifmcsIiIi4nfGIiIiIn5nLCIiIuJ3xiIiIiJ+ZywiIiLid8YiIiIifmcsIiIi4nfGIiIiIn5nLCIiIuJ3xiIiIiJ+ZywiIiLid8YiIiIifmcsIiIi4nfGIiIiIn5nLCIiIuJ3xiIiIiJ+ZywiIiLid8YiIiIifmcsIiIi4nfGIiIiIn5nLCIiIuJ3xiIiIiJ+ZywiIiLid8YiIiIifmcsIiIi4nfGIiIiIn5nLCIiIuJ3xiIiIiJ+ZywiIiLid8YiIiIifmcsIiIi4nfGIiIiIn5nLCIiIuJ3xiIiIiJ+ZywiIiLid8YiIiIifmcsIiIi4nfGIiIiIn5nLCIiIuJ3xiIiIiJ+ZywiIiLid8YiIiIifmcsIiIi4nfGIiIiIn5nLCIiIuJ3xiIiIiJ+ZywiIiLid8YiIiIifmcsIiIi4nfGIiIiIn5nLCIiIuJ3xiIiIiJ+ZywiIiLid8YiIiIifmcsIiIi4nfGIiIiIn5nLCIiIuJ3xiIiIiJ+ZywiIiLid8YiIiIifmcsIiIi4nfGIiIiIn5nLCIiIuJ3xiIiIiJ+ZywiIiLid8YiIiIifmcsIiIi4nfGIiIiIn5nLCIiIuJ3xiIiIiJ+ZywiIiLid8YiIiIifmcsIiIi4nfGIiIiIn5nLCIiIuJ3xiIiIiJ+ZywiIiLid8YiIiIifmcsIiIi4nfGIiIiIn5nLCIiIuJ3xiIiIiJ+ZywiIiLid8YiIiIifmcsIiIi4nfGIiIiIn5nLCIiIuJ3xiIiIiJ+ZywiIiLid8YiIiIifmcsIiIi4nfGIiIiIn5nLCIiIuJ3xiIiIiJ+ZywiIiLid8YiIiIifmcsIiIi4nfGIiIiIn5nLCIi8v/agwMaAAAYBEDaP/Sfww2Adb0AAOt6AQDW9QIArOsFAFjXCwCwrhcAYF0vAMC6XgCAdb0AAOt6AQDW9QIArOsFAFjXCwCwrhcAYF0vAMC6XgCAdb0AAOt6AQDW9QIArOsFAFjXCwCwrhcAYF0vAMC6XgCAdb0AAOt6AQDW9QIArOsFAFjXCwCwrhcAYF0vAMC6XgCAdb0AAOt6AQDW9QIArOsFAFjXCwCwrhcAYF0vAMC6XgCAdb0AAOt6AQDW9QIArOsFAFjXCwCwrhcAYF0vAMC6XgCAdb0AAOt6AQDW9QIArOsFAFjXCwCwrhcAYF0vAMC6XgCAdb0AAOt6AQDW9QIArOsFAFjXCwCwrhcAYF0vAMC6XgCAdb0AAOt6AQDW9QIArOsFAFjXCwCwrhcAYF0vAMC6XgCAdb0AAOt6AQDW9QIArOsFAFjXCwCwrhcAYF0vAMC6XgCAdb0AAOt6AQDW9QIArOsFAFjXCwCwrhcAYF0vAMC6XgCAdb0AAOt6AQDW9QIArOsFAFjXCwCwrhcAYF0vAMC6XgCAdb0AAOt6AQDW9QIArOsFAFjXCwCwrhcAYF0vAMC6XgCAdb0AAOt6AQDW9QIArHuJE2GRsR3uDAAAAABJRU5ErkJggg==;" vertex="1" parent="1">
          <mxGeometry x="-740" y="-460" width="2000" height="2000" as="geometry" />
        </mxCell>
        <mxCell id="0HTE8HzG7Rag_H_1Zpx2-5" value="" style="rounded=0;whiteSpace=wrap;html=1;rotation=292;fillColor=#000000;" vertex="1" parent="1">
          <mxGeometry x="-191.39" y="-27.06" width="33" height="19.25" as="geometry" />
        </mxCell>
        <mxCell id="0HTE8HzG7Rag_H_1Zpx2-6" value="" style="rounded=0;whiteSpace=wrap;html=1;rotation=292;fillColor=#000000;" vertex="1" parent="1">
          <mxGeometry x="-67.26" y="-14.17" width="33" height="20" as="geometry" />
        </mxCell>
        <mxCell id="0HTE8HzG7Rag_H_1Zpx2-7" value="" style="rounded=0;whiteSpace=wrap;html=1;rotation=273;fillColor=#000000;" vertex="1" parent="1">
          <mxGeometry x="-95.26" y="173" width="33" height="20" as="geometry" />
        </mxCell>
        <mxCell id="0HTE8HzG7Rag_H_1Zpx2-8" value="" style="rounded=0;whiteSpace=wrap;html=1;rotation=339;fillColor=#000000;" vertex="1" parent="1">
          <mxGeometry x="-235" y="370" width="33" height="20" as="geometry" />
        </mxCell>
        <mxCell id="0HTE8HzG7Rag_H_1Zpx2-9" value="" style="rounded=0;whiteSpace=wrap;html=1;rotation=339;fillColor=#000000;" vertex="1" parent="1">
          <mxGeometry x="-153" y="476" width="33" height="20" as="geometry" />
        </mxCell>
        <mxCell id="0HTE8HzG7Rag_H_1Zpx2-10" value="" style="rounded=0;whiteSpace=wrap;html=1;rotation=5;fillColor=#000000;" vertex="1" parent="1">
          <mxGeometry x="120" y="449" width="33" height="20" as="geometry" />
        </mxCell>
        <mxCell id="0HTE8HzG7Rag_H_1Zpx2-11" value="" style="rounded=0;whiteSpace=wrap;html=1;rotation=-35;fillColor=#000000;" vertex="1" parent="1">
          <mxGeometry x="545" y="411" width="33" height="20" as="geometry" />
        </mxCell>
        <mxCell id="0HTE8HzG7Rag_H_1Zpx2-12" value="" style="rounded=0;whiteSpace=wrap;html=1;rotation=0;fillColor=#000000;" vertex="1" parent="1">
          <mxGeometry x="897" y="346" width="33" height="20" as="geometry" />
        </mxCell>
        <mxCell id="0HTE8HzG7Rag_H_1Zpx2-14" value="" style="rounded=0;whiteSpace=wrap;html=1;rotation=32;fillColor=#000000;" vertex="1" parent="1">
          <mxGeometry x="637" y="903" width="33" height="20" as="geometry" />
        </mxCell>
        <mxCell id="0HTE8HzG7Rag_H_1Zpx2-15" value="" style="rounded=0;whiteSpace=wrap;html=1;rotation=-15;fillColor=#000000;" vertex="1" parent="1">
          <mxGeometry x="632" y="726" width="33" height="20" as="geometry" />
        </mxCell>
        <mxCell id="0HTE8HzG7Rag_H_1Zpx2-16" value="" style="rounded=0;whiteSpace=wrap;html=1;rotation=-90;fillColor=#000000;" vertex="1" parent="1">
          <mxGeometry x="899" y="595" width="33" height="20" as="geometry" />
        </mxCell>
        <mxCell id="0HTE8HzG7Rag_H_1Zpx2-17" value="" style="rounded=0;whiteSpace=wrap;html=1;rotation=5;fillColor=#000000;" vertex="1" parent="1">
          <mxGeometry x="-53" y="722.95" width="23" height="20" as="geometry" />
        </mxCell>
        <mxCell id="0HTE8HzG7Rag_H_1Zpx2-18" value="" style="rounded=0;whiteSpace=wrap;html=1;rotation=339;fillColor=#000000;" vertex="1" parent="1">
          <mxGeometry x="-176" y="632" width="33" height="20" as="geometry" />
        </mxCell>
        <mxCell id="0HTE8HzG7Rag_H_1Zpx2-19" value="" style="rounded=0;whiteSpace=wrap;html=1;rotation=-15;fillColor=#000000;" vertex="1" parent="1">
          <mxGeometry x="305" y="547" width="33" height="20" as="geometry" />
        </mxCell>
        <mxCell id="0HTE8HzG7Rag_H_1Zpx2-20" value="" style="rounded=0;whiteSpace=wrap;html=1;rotation=-5;fillColor=#000000;" vertex="1" parent="1">
          <mxGeometry x="474" y="534" width="33" height="20" as="geometry" />
        </mxCell>
      </root>
    </mxGraphModel>
  </diagram>
</mxfile>
